<svg width="512" height="512" viewBox="0 0 512 512" fill="none" xmlns="http://www.w3.org/2000/svg">
<g clip-path="url(#clip0_31_26)">
<path fill-rule="evenodd" clip-rule="evenodd" d="M256 0C114.8 0 0 114.8 0 256C0 397.2 114.8 512 256 512C397.2 512 512 397.2 512 256C512 114.8 397.2 0 256 0Z" fill="#4BAE4F"/>
<path d="M116 279.6V232.3C116 227.5 119.9 223.5 124.8 223.5H223.7V124.7C223.7 119.9 227.6 115.9 232.5 115.9H279.8C284.6 115.9 288.5 119.8 288.5 124.7V223.6H387.3C392.1 223.6 396.1 227.5 396.1 232.4V279.7C396.1 284.5 392.2 288.4 387.3 288.4H288.4V387.2C288.4 392 284.5 396 279.7 396H232.4C227.6 396 223.6 392.1 223.6 387.2V288.3H124.8C119.9 288.4 116 284.4 116 279.6Z" fill="white"/>
</g>
<defs>
<clipPath id="clip0_31_26">
<rect width="512" height="512" fill="white"/>
</clipPath>
</defs>
</svg>
