<svg width="512" height="512" viewBox="0 0 512 512" fill="none" xmlns="http://www.w3.org/2000/svg">
<path d="M169.016 160.232L61.38 282C57.4063 286.506 54.6096 291.925 53.2395 297.775C51.8695 303.624 51.9686 309.722 53.528 315.524L57.68 330.572C58.2927 332.791 59.6163 334.748 61.4479 336.142C63.2795 337.537 65.518 338.292 67.82 338.292H70.488L231.6 151.832C221.893 145.505 210.238 142.872 198.754 144.414C187.271 145.956 176.722 151.569 169.028 160.232H169.016Z" fill="#FFD3BC"/>
<path d="M473.264 226.104H430.248C424.241 226.104 419.372 230.973 419.372 236.98V401.124C419.372 407.131 424.241 412 430.248 412H473.264C479.271 412 484.14 407.131 484.14 401.124V236.98C484.14 230.973 479.271 226.104 473.264 226.104Z" fill="#696EAF"/>
<path d="M231.588 151.832L68.5239 336.564L70.4879 338.292L123.48 385.004L291.252 195.092L344.324 134.956L289.368 86.436L231.588 151.832Z" fill="#FDB158"/>
<path d="M341.104 83.296C337.501 80.1049 333.305 77.6547 328.754 76.0855C324.204 74.5162 319.39 73.8586 314.586 74.1502C309.781 74.4418 305.082 75.6768 300.755 77.7849C296.428 79.8929 292.559 82.8325 289.368 86.436L261 118.544V118.596L315.928 167.088H315.972L344.324 134.96C347.513 131.361 349.96 127.167 351.525 122.62C353.089 118.072 353.741 113.261 353.441 108.461C353.142 103.662 351.898 98.9684 349.781 94.6507C347.664 90.3329 344.715 86.4755 341.104 83.3V83.296Z" fill="#FF7A8C"/>
<path d="M68.524 336.564L67.82 338.292L27.856 437.92L123.48 385.004L70.488 338.292L68.524 336.564Z" fill="#FFBE9C"/>
<path d="M186.288 313.876H160.288C153.281 313.877 146.492 316.31 141.08 320.76C135.667 325.211 131.967 331.401 130.612 338.276C130.162 340.205 129.951 342.183 129.984 344.164C129.966 348.135 130.741 352.069 132.265 355.735C133.789 359.402 136.029 362.727 138.856 365.516C139.172 365.832 139.564 366.144 139.876 366.46C145.435 371.577 152.72 374.409 160.276 374.388H236C243.737 374.389 251.35 376.332 258.14 380.04L285.304 394.88C299.351 402.526 315.081 406.552 331.074 406.593C347.067 406.634 362.818 402.69 376.904 395.116L383.188 391.74C390.932 387.567 399.591 385.381 408.388 385.38H419.38V252.48C419.38 252.48 366.544 243.28 291.252 195.092L186.288 313.876Z" fill="#FFD3BC"/>
<path d="M484.152 270.864C486.008 270.864 487.789 270.126 489.102 268.814C490.414 267.501 491.152 265.721 491.152 263.864V236.944C491.141 232.209 489.253 227.671 485.901 224.327C482.549 220.982 478.007 219.104 473.272 219.104H430.232C425.497 219.104 420.955 220.982 417.603 224.327C414.251 227.671 412.363 232.209 412.352 236.944V243.648C395.644 239.272 354.752 226.28 301.912 193.52L349.6 139.552C357.221 130.864 361.085 119.508 360.347 107.975C359.608 96.4417 354.327 85.6719 345.66 78.0266C336.994 70.3813 325.649 66.4844 314.114 67.1902C302.579 67.8961 291.794 73.147 284.124 81.792L230.124 142.94C219.22 137.417 206.792 135.663 194.785 137.954C182.778 140.244 171.869 146.45 163.764 155.6L56.136 277.336C51.3781 282.71 48.0313 289.182 46.3967 296.171C44.7621 303.16 44.891 310.445 46.772 317.372L53.052 340.14C53.359 341.249 53.9346 342.264 54.7279 343.098C55.5212 343.931 56.5077 344.555 57.6 344.916L21.336 435.316C20.7981 436.657 20.6883 438.132 21.0217 439.537C21.3551 440.943 22.1154 442.211 23.1982 443.168C24.281 444.125 25.6333 444.723 27.0695 444.88C28.5058 445.038 29.9555 444.747 31.22 444.048C31.22 444.048 102.936 404.352 126.844 391.132C127.534 390.733 128.158 390.231 128.696 389.644C131.992 385.912 140.844 375.928 140.844 375.928C146.691 379.515 153.417 381.413 160.276 381.412H235.956C242.526 381.413 248.99 383.064 254.756 386.212L281.928 401.052C296.99 409.287 313.872 413.625 331.038 413.669C348.204 413.713 365.108 409.462 380.212 401.304C384.156 399.596 393.148 392.404 408.376 392.404H412.348V401.128C412.353 405.868 414.239 410.413 417.591 413.765C420.943 417.117 425.488 419.003 430.228 419.008H473.268C478.008 419.003 482.553 417.117 485.905 413.765C489.257 410.413 491.143 405.868 491.148 401.128V300.4C491.148 298.543 490.41 296.763 489.098 295.45C487.785 294.137 486.004 293.4 484.148 293.4C482.291 293.4 480.511 294.137 479.198 295.45C477.885 296.763 477.148 298.543 477.148 300.4V401.12C477.148 402.149 476.739 403.136 476.012 403.864C475.284 404.591 474.297 405 473.268 405H430.228C429.199 405 428.212 404.591 427.484 403.864C426.757 403.136 426.348 402.149 426.348 401.12V385.572C426.348 385.508 426.368 385.444 426.368 385.38V252.464C426.368 252.392 426.348 252.32 426.348 252.248V236.944C426.354 235.921 426.766 234.941 427.494 234.222C428.221 233.502 429.205 233.1 430.228 233.104H473.268C474.291 233.1 475.275 233.502 476.002 234.222C476.73 234.941 477.142 235.921 477.148 236.944V263.864C477.148 264.784 477.329 265.694 477.681 266.544C478.033 267.393 478.549 268.165 479.2 268.815C479.85 269.465 480.622 269.981 481.472 270.332C482.322 270.684 483.232 270.865 484.152 270.864ZM294.588 91.072C299.798 85.1963 307.125 81.6267 314.963 81.1461C322.801 80.6655 330.509 83.3132 336.398 88.5085C342.286 93.7037 345.874 101.022 346.374 108.859C346.874 116.696 344.245 124.411 339.064 130.312L315.312 157.2L270.856 117.94L294.588 91.072ZM41.668 422.272L71.312 348.364L111.392 383.692L41.668 422.272ZM122.868 375.132L78.4 335.92L122.2 286.296C122.817 285.608 123.291 284.805 123.596 283.933C123.901 283.061 124.031 282.137 123.977 281.214C123.923 280.292 123.687 279.39 123.283 278.559C122.878 277.728 122.313 276.986 121.621 276.374C120.928 275.763 120.121 275.295 119.247 274.997C118.372 274.699 117.447 274.577 116.525 274.638C115.604 274.699 114.703 274.942 113.875 275.353C113.048 275.764 112.31 276.334 111.704 277.032L64.8 330.148L60.264 313.704C58.9918 309.018 58.9044 304.09 60.0097 299.362C61.115 294.635 63.3783 290.256 66.596 286.62L174.244 164.864C179.864 158.508 187.314 154.048 195.571 152.097C203.827 150.146 212.486 150.8 220.356 153.968L173.344 207.2C172.712 207.885 172.222 208.689 171.905 209.566C171.588 210.443 171.449 211.374 171.496 212.305C171.544 213.236 171.777 214.148 172.182 214.988C172.587 215.828 173.155 216.578 173.854 217.196C174.553 217.813 175.368 218.284 176.252 218.582C177.135 218.879 178.069 218.998 178.999 218.93C179.929 218.861 180.836 218.608 181.666 218.185C182.497 217.761 183.235 217.176 183.836 216.464L261.6 128.432L306.056 167.692L183.116 306.86H160.292C153.364 306.858 146.572 308.785 140.679 312.427C134.785 316.068 130.022 321.28 126.924 327.476C123.826 333.673 122.516 340.61 123.139 347.51C123.763 354.41 126.297 360.999 130.456 366.54L122.868 375.132ZM408.4 378.4C396.053 378.687 384.02 382.343 373.6 388.972C360.546 396.022 345.935 399.696 331.099 399.658C316.262 399.62 301.67 395.873 288.652 388.756L261.492 373.924C253.671 369.654 244.903 367.415 235.992 367.412H160.292C157.237 367.411 154.212 366.808 151.39 365.637C148.568 364.467 146.004 362.752 143.845 360.591C141.685 358.43 139.973 355.864 138.805 353.041C137.637 350.218 137.037 347.193 137.038 344.138C137.039 341.083 137.642 338.058 138.813 335.236C139.983 332.414 141.698 329.85 143.859 327.691C146.02 325.531 148.585 323.819 151.408 322.651C154.231 321.483 157.257 320.883 160.312 320.884H290.712C292.568 320.884 294.349 320.146 295.662 318.834C296.974 317.521 297.712 315.741 297.712 313.884C297.712 312.027 296.974 310.247 295.662 308.934C294.349 307.621 292.568 306.884 290.712 306.884H201.808L292.54 204.204C352.184 241.536 396.888 254.472 412.352 258.14V378.4H408.4Z" fill="black"/>
<path d="M146.352 258.944L159.6 244C160.831 242.61 161.458 240.788 161.346 238.934C161.233 237.081 160.388 235.349 158.998 234.118C157.608 232.887 155.786 232.259 153.932 232.372C152.079 232.485 150.347 233.33 149.116 234.72L135.876 249.68C135.267 250.368 134.799 251.17 134.499 252.039C134.2 252.908 134.074 253.828 134.13 254.746C134.186 255.663 134.422 256.561 134.825 257.387C135.228 258.214 135.79 258.953 136.478 259.562C137.166 260.171 137.968 260.639 138.837 260.939C139.706 261.238 140.626 261.363 141.544 261.308C142.461 261.252 143.359 261.016 144.185 260.613C145.012 260.21 145.751 259.648 146.36 258.96L146.352 258.944Z" fill="black"/>
</svg>
