<svg width="51" height="51" viewBox="0 0 51 51" fill="none" xmlns="http://www.w3.org/2000/svg">
<path d="M44.4232 50.9369C43.6003 50.9396 42.7846 50.8491 42.0228 50.6706C41.261 50.4921 40.5681 50.2291 39.9838 49.8967L2.46788 28.3767C1.30332 27.7046 0.649658 26.7956 0.649658 25.848C0.649658 24.9005 1.30332 23.9914 2.46788 23.3194L39.9838 1.79936C41.18 1.21177 42.7186 0.904728 44.2922 0.939595C45.8659 0.974462 47.3586 1.34867 48.4722 1.98743C49.5858 2.6262 50.2381 3.48248 50.2989 4.38517C50.3597 5.28785 49.8244 6.17044 48.8001 6.85658L15.7235 25.8301L48.8001 44.8036C49.6781 45.3032 50.2782 45.9408 50.5244 46.636C50.7707 47.3311 50.6521 48.0525 50.1836 48.709C49.7151 49.3655 48.9178 49.9275 47.8925 50.3241C46.8671 50.7206 45.6598 50.9339 44.4232 50.9369Z" fill="black"/>
</svg>
