<svg width="512" height="512" viewBox="0 0 512 512" fill="none" xmlns="http://www.w3.org/2000/svg">
<g clip-path="url(#clip0_52_74)">
<path d="M460.078 7.5V415.42L96.458 455.1L51.918 459.96V52.04C51.918 39.74 56.898 28.6 64.958 20.54C73.018 12.48 84.158 7.5 96.458 7.5H460.078Z" fill="#DA4A54"/>
<path d="M96.458 7.5V455.1L51.918 459.96V52.04C51.918 39.74 56.898 28.6 64.958 20.54C73.018 12.48 84.158 7.5 96.458 7.5Z" fill="#C32430"/>
<path d="M460.082 415.423H96.4569C71.8589 415.423 51.9189 435.363 51.9189 459.961C51.9189 484.559 71.8589 504.499 96.4569 504.499H460.082V415.423Z" fill="#C32430"/>
<path d="M96.4569 479.5C85.6839 479.5 76.9189 470.735 76.9189 459.962C76.9189 449.189 85.6839 440.423 96.4569 440.423H460.082V479.5H96.4569Z" fill="#DFEAEF"/>
<path d="M212.298 104.066L179.92 70.835L147.542 104.066V7.5H212.298V104.066Z" fill="#F4DD45"/>
<path d="M353.475 131.985H180.812C163.501 131.985 149.467 146.019 149.467 163.33V258.974C149.467 276.285 163.501 290.319 180.812 290.319H353.475C370.786 290.319 384.82 276.285 384.82 258.974V163.33C384.82 146.019 370.787 131.985 353.475 131.985Z" fill="#DFEAEF"/>
<path d="M467.578 72.5C467.578 70.5109 466.788 68.6032 465.381 67.1967C463.975 65.7902 462.067 65 460.078 65C458.089 65 456.181 65.7902 454.775 67.1967C453.368 68.6032 452.578 70.5109 452.578 72.5V407.923H103.957V15H140.042V104.066C140.042 105.558 140.487 107.015 141.32 108.253C142.152 109.491 143.335 110.452 144.717 111.014C146.099 111.576 147.617 111.712 149.077 111.407C150.537 111.102 151.873 110.368 152.914 109.3L179.92 81.583L206.927 109.3C207.968 110.369 209.304 111.104 210.764 111.41C212.224 111.716 213.743 111.579 215.125 111.017C216.507 110.455 217.691 109.493 218.523 108.255C219.356 107.017 219.8 105.558 219.799 104.066V15H452.579V42.5C452.579 44.4891 453.369 46.3968 454.776 47.8033C456.182 49.2098 458.09 50 460.079 50C462.068 50 463.976 49.2098 465.382 47.8033C466.789 46.3968 467.579 44.4891 467.579 42.5V7.5C467.579 5.51088 466.789 3.60322 465.382 2.1967C463.976 0.790176 462.068 0 460.079 0L96.458 0C82.551 0 69.48 5.411 59.655 15.237C49.83 25.063 44.418 38.133 44.418 52.04V459.96L44.42 459.997C44.439 488.675 67.775 512 96.457 512H460.082C462.071 512 463.979 511.21 465.385 509.803C466.792 508.397 467.582 506.489 467.582 504.5L467.578 72.5ZM204.798 15V85.622L185.291 65.602C184.592 64.8847 183.757 64.3147 182.834 63.9255C181.912 63.5362 180.92 63.3357 179.919 63.3357C178.918 63.3357 177.926 63.5362 177.004 63.9255C176.081 64.3147 175.246 64.8847 174.547 65.602L155.041 85.622V15H204.798ZM70.261 25.843C75.453 20.652 81.919 17.197 88.957 15.759V408.471C77.476 410.136 67.2 415.56 59.418 423.455V52.04C59.418 42.139 63.269 32.836 70.261 25.843ZM96.457 497C76.034 497 59.419 480.385 59.419 459.962C59.419 439.539 76.034 422.923 96.457 422.923H452.582V432.92H150.538C148.549 432.92 146.641 433.71 145.235 435.117C143.828 436.523 143.038 438.431 143.038 440.42C143.038 442.409 143.828 444.317 145.235 445.723C146.641 447.13 148.549 447.92 150.538 447.92H452.578V472H96.458C89.819 472 84.418 466.599 84.418 459.96C84.418 453.321 89.819 447.92 96.458 447.92H120.538C122.527 447.92 124.435 447.13 125.841 445.723C127.248 444.317 128.038 442.409 128.038 440.42C128.038 438.431 127.248 436.523 125.841 435.117C124.435 433.71 122.527 432.92 120.538 432.92H96.458C81.548 432.92 69.418 445.05 69.418 459.96C69.418 474.87 81.548 487 96.458 487H452.582V497H96.457Z" fill="black"/>
<path d="M180.812 124.485C159.393 124.485 141.967 141.911 141.967 163.33V258.975C141.967 280.394 159.393 297.82 180.812 297.82H353.475C374.894 297.82 392.32 280.394 392.32 258.975V163.33C392.32 141.911 374.894 124.485 353.475 124.485H180.812ZM377.32 163.33V258.975C377.32 272.123 366.623 282.82 353.475 282.82H180.812C167.664 282.82 156.967 272.123 156.967 258.975V163.33C156.967 150.182 167.664 139.485 180.812 139.485H353.475C366.624 139.485 377.32 150.182 377.32 163.33Z" fill="black"/>
<path d="M337.588 183.784H196.699C194.71 183.784 192.802 184.574 191.396 185.981C189.989 187.387 189.199 189.295 189.199 191.284C189.199 193.273 189.989 195.181 191.396 196.587C192.802 197.994 194.71 198.784 196.699 198.784H337.588C339.577 198.784 341.485 197.994 342.891 196.587C344.298 195.181 345.088 193.273 345.088 191.284C345.088 189.295 344.298 187.387 342.891 185.981C341.485 184.574 339.577 183.784 337.588 183.784ZM337.588 223.521H196.699C194.71 223.521 192.802 224.311 191.396 225.718C189.989 227.124 189.199 229.032 189.199 231.021C189.199 233.01 189.989 234.918 191.396 236.324C192.802 237.731 194.71 238.521 196.699 238.521H337.588C339.577 238.521 341.485 237.731 342.891 236.324C344.298 234.918 345.088 233.01 345.088 231.021C345.088 229.032 344.298 227.124 342.891 225.718C341.485 224.311 339.577 223.521 337.588 223.521Z" fill="black"/>
</g>
<defs>
<clipPath id="clip0_52_74">
<rect width="512" height="512" fill="white"/>
</clipPath>
</defs>
</svg>
