<svg width="512" height="512" viewBox="0 0 512 512" fill="none" xmlns="http://www.w3.org/2000/svg">
<g clip-path="url(#clip0_31_31)">
<path fill-rule="evenodd" clip-rule="evenodd" d="M256 512C396.997 512 512 396.997 512 256C512 115.003 396.997 0 256 0C115.003 0 0 115.003 0 256C0 396.997 115.003 512 256 512Z" fill="#F34235"/>
<path d="M366.313 171.409H145.687C145.071 171.409 144.462 171.535 143.896 171.778C143.33 172.021 142.82 172.377 142.396 172.824C141.97 173.271 141.64 173.801 141.426 174.38C141.211 174.959 141.118 175.576 141.15 176.193L152.743 399.883C153.256 409.834 161.461 417.63 171.431 417.63H340.568C350.539 417.63 358.744 409.834 359.256 399.883L370.849 176.193C370.881 175.576 370.788 174.959 370.573 174.38C370.359 173.801 370.029 173.271 369.603 172.824C369.179 172.377 368.669 172.021 368.104 171.778C367.538 171.535 366.929 171.409 366.313 171.409ZM183.979 216.504C183.895 213.46 185.005 210.558 187.108 208.338C189.211 206.118 192.048 204.846 195.092 204.755C201.427 204.625 206.685 209.597 206.867 215.881L211.08 372.905C211.127 374.407 210.874 375.903 210.337 377.306C209.8 378.709 208.989 379.991 207.951 381.078C206.918 382.17 205.681 383.049 204.309 383.662C202.936 384.276 201.457 384.613 199.954 384.655H199.617C196.689 384.655 193.917 383.545 191.769 381.507C190.678 380.478 189.801 379.243 189.188 377.874C188.575 376.505 188.239 375.028 188.199 373.529L183.979 216.504ZM244.556 373.041V215.997C244.556 209.681 249.691 204.546 256 204.546C262.309 204.546 267.444 209.681 267.444 215.997V373.041C267.444 379.363 262.309 384.505 256 384.505C249.691 384.505 244.556 379.364 244.556 373.041ZM323.801 373.515C323.762 375.017 323.427 376.496 322.814 377.867C322.201 379.238 321.323 380.475 320.231 381.506C318.083 383.544 315.311 384.654 312.383 384.654H312.026C310.526 384.612 309.048 384.275 307.679 383.66C306.31 383.045 305.076 382.165 304.048 381.071C303.009 379.984 302.197 378.701 301.66 377.296C301.123 375.892 300.871 374.395 300.919 372.892L305.132 215.894C305.314 209.604 310.533 204.599 316.829 204.755H316.907C319.951 204.846 322.788 206.118 324.891 208.338C326.994 210.558 328.104 213.46 328.02 216.504L323.801 373.515ZM389 136.414V148.462H123V136.414C123 129.767 128.407 124.36 135.054 124.36H222.55C223.67 124.36 224.75 123.946 225.584 123.198C226.417 122.451 226.946 121.422 227.068 120.309C228.685 105.522 241.122 94.37 256 94.37C270.878 94.37 283.315 105.522 284.932 120.309C285.054 121.422 285.583 122.451 286.416 123.198C287.25 123.946 288.33 124.36 289.45 124.36H376.946C383.593 124.36 389 129.767 389 136.414Z" fill="white"/>
</g>
<defs>
<clipPath id="clip0_31_31">
<rect width="512" height="512" fill="white"/>
</clipPath>
</defs>
</svg>
