<svg width="512" height="512" viewBox="0 0 512 512" fill="none" xmlns="http://www.w3.org/2000/svg">
<g clip-path="url(#clip0_52_3)">
<path d="M296.988 10H31C19.953 10 11 18.953 11 30V482C11 493.047 19.953 502 31 502H374.977C386.02 502 394.977 493.047 394.977 482V107.988L296.988 10Z" fill="white"/>
<path d="M379.094 411.906L462.184 494.996C471.524 504.336 486.66 504.336 495.996 494.996C505.336 485.66 505.336 470.523 495.996 461.184L412.906 378.094L379.094 411.906Z" fill="#FF5D5D"/>
<path d="M431.004 310C431.004 376.273 377.277 430 311.004 430C244.73 430 191.004 376.273 191.004 310C191.004 243.727 244.73 190 311.004 190C377.277 190 431.004 243.727 431.004 310Z" fill="white"/>
<path d="M389.004 310C389.004 353.078 354.082 388 311.004 388C267.926 388 233.004 353.078 233.004 310C233.004 266.922 267.926 232 311.004 232C354.082 232 389.004 266.922 389.004 310Z" fill="#72D8FF"/>
<path d="M316.988 107.988H394.973L296.988 10.004V87.988C296.988 99.035 305.941 107.988 316.988 107.988Z" fill="#FFB954"/>
<path d="M311.004 222C262.48 222 223.004 261.477 223.004 310C223.004 358.523 262.48 398 311.004 398C359.527 398 399.004 358.523 399.004 310C399.004 261.477 359.527 222 311.004 222ZM311.004 378C273.508 378 243.004 347.496 243.004 310C243.004 272.504 273.508 242 311.004 242C348.5 242 379.004 272.504 379.004 310C379.004 347.496 348.5 378 311.004 378Z" fill="black"/>
<path d="M503.066 454.113L423.703 374.746C434.703 355.672 441.003 333.559 441.003 310C441.003 275.23 427.281 243.61 404.973 220.258V107.988H404.949C404.949 105.387 403.957 102.832 402.047 100.918L304.059 2.93C302.145 1.016 299.586 0.027 296.984 0.027C296.984 0.016 296.984 0.012 296.988 0H31C14.457 0 1 13.457 1 30V482C1 498.543 14.457 512 31 512H374.977C391.516 512 404.977 498.543 404.977 482V451.93L455.113 502.07C461.723 508.68 470.406 511.984 479.093 511.984C487.777 511.984 496.461 508.68 503.07 502.07C516.29 488.848 516.29 467.336 503.066 454.113ZM311.004 420C250.352 420 201.004 370.652 201.004 310C201.004 249.348 250.352 200 311.004 200C371.656 200 421.004 249.348 421.004 310C421.004 370.652 371.656 420 311.004 420ZM306.988 34.145L370.832 97.992H316.988C311.473 97.992 306.988 93.504 306.988 87.992V34.145ZM384.977 482C384.977 487.516 380.488 492 374.977 492H31C25.484 492 21 487.516 21 482V30C21 24.484 25.484 20 31 20H286.988V87.988C286.988 104.531 300.445 117.988 316.988 117.988H384.973V203.16C363.965 188.566 338.469 180 311.003 180C239.32 180 181.003 238.316 181.003 310C181.003 323.996 183.238 337.484 187.352 350.129H65.152C59.632 350.129 55.152 354.605 55.152 360.129C55.152 365.649 59.632 370.129 65.152 370.129H192.848C193.789 370.129 194.703 369.989 195.566 369.742C217.238 411.445 260.848 440 311.004 440C334.559 440 356.672 433.7 375.746 422.7L384.976 431.93L384.977 482ZM488.926 487.926C483.504 493.352 474.68 493.352 469.258 487.926L392.52 411.187C399.754 405.347 406.347 398.754 412.187 391.52L488.926 468.254C494.352 473.68 494.352 482.504 488.926 487.926Z" fill="black"/>
<path d="M311.004 265.004C305.48 265.004 301.004 269.48 301.004 275.004C301.004 280.527 305.48 285.004 311.004 285.004C324.785 285.004 336 296.219 336 310C336 315.523 340.477 320 346 320C351.523 320 356 315.523 356 310C356 285.187 335.816 265.004 311.004 265.004ZM155.148 280.793H65.152C59.632 280.793 55.152 285.27 55.152 290.793C55.152 296.316 59.632 300.793 65.152 300.793H155.148C160.672 300.793 165.148 296.316 165.148 290.793C165.148 285.27 160.672 280.793 155.148 280.793ZM161.074 211.46H65.152C59.632 211.46 55.152 215.937 55.152 221.46C55.152 226.98 59.632 231.46 65.152 231.46H161.074C166.598 231.46 171.074 226.98 171.074 221.46C171.074 215.937 166.598 211.46 161.074 211.46ZM191 419.46C188.367 419.46 185.79 420.527 183.93 422.39C182.061 424.269 181.008 426.81 181 429.46C181 432.09 182.07 434.672 183.93 436.527C185.808 438.398 188.349 439.453 191 439.461C193.629 439.461 196.21 438.391 198.078 436.527C199.944 434.648 200.994 432.109 201 429.461C201 426.828 199.937 424.25 198.078 422.391C196.195 420.522 193.653 419.47 191 419.461V419.46ZM149.93 419.46H65.152C59.632 419.46 55.152 423.938 55.152 429.46C55.152 434.98 59.632 439.46 65.152 439.46H149.93C155.45 439.46 159.93 434.98 159.93 429.46C159.93 423.938 155.453 419.46 149.93 419.46ZM65.148 162.129C67.789 162.129 70.359 161.059 72.218 159.199C74.0895 157.321 75.1427 154.78 75.148 152.129C75.148 149.5 74.09 146.922 72.218 145.051C70.3373 143.185 67.7972 142.135 65.148 142.129C62.52 142.129 59.9489 143.191 58.0779 145.051C56.2076 146.933 55.1548 149.476 55.1479 152.129C55.1479 154.762 56.2179 157.339 58.0779 159.199C59.9582 161.066 62.4979 162.119 65.148 162.129ZM257 142.129H107.54C102.02 142.129 97.54 146.605 97.54 152.129C97.54 157.649 102.02 162.129 107.54 162.129H257C262.523 162.129 267 157.649 267 152.129C267 146.605 262.523 142.129 257 142.129ZM65.152 92.793H257C262.523 92.793 267 88.316 267 82.793C267 77.27 262.523 72.793 257 72.793H65.152C59.632 72.793 55.152 77.27 55.152 82.793C55.152 88.316 59.632 92.793 65.152 92.793Z" fill="black"/>
</g>
<defs>
<clipPath id="clip0_52_3">
<rect width="512" height="512" fill="white"/>
</clipPath>
</defs>
</svg>
