<svg width="512" height="512" viewBox="0 0 512 512" fill="none" xmlns="http://www.w3.org/2000/svg">
<path d="M377.218 214.34H377.39C392.196 214.34 404.193 202.333 404.193 187.537C404.193 172.731 392.196 160.723 377.39 160.723C377.197 160.723 377.005 160.723 376.812 160.733H131.374C131.181 160.723 130.989 160.723 130.796 160.723C115.99 160.723 103.993 172.73 103.993 187.537C103.993 202.333 115.99 214.34 130.796 214.34H130.968" fill="#F1B986"/>
<path d="M371.053 90.73C293.263 83.171 214.924 83.171 137.134 90.73C131.083 139.211 129.301 187.691 131.787 236.172C133.597 271.463 161.837 299.554 197.136 301.221C235.086 303.014 273.1 303.014 311.051 301.221C346.349 299.554 374.59 271.464 376.4 236.172C378.886 187.691 377.104 139.21 371.053 90.73Z" fill="#F1D0A5"/>
<path d="M137.138 90.722C176.118 86.942 215.109 85.057 254.1 85.057C234.36 85.057 214.62 86.965 194.88 90.78C191.814 139.661 190.91 188.653 192.17 237.614C192.996 269.824 204.768 296.089 220.215 302.08C212.526 301.871 204.825 301.58 197.137 301.219C161.845 299.556 133.602 271.464 131.787 236.171C129.31 187.689 131.09 139.205 137.138 90.722Z" fill="#F1B986"/>
<path d="M254.093 262.279C240.463 262.279 227.879 254.321 222.034 242.004C221.181 240.156 221.091 238.046 221.784 236.133C222.477 234.219 223.898 232.656 225.736 231.783C227.575 230.911 229.684 230.799 231.605 231.472C233.526 232.145 235.103 233.549 235.995 235.379C239.295 242.333 246.399 246.826 254.094 246.826C261.789 246.826 268.893 242.333 272.194 235.379C273.073 233.528 274.651 232.101 276.581 231.414C278.511 230.726 280.636 230.833 282.487 231.712C284.338 232.591 285.765 234.169 286.452 236.099C287.14 238.029 287.033 240.154 286.154 242.005C280.307 254.321 267.723 262.279 254.093 262.279Z" fill="#C32430"/>
<path d="M197.021 210.186C203.184 210.186 208.181 202.749 208.181 193.574C208.181 184.399 203.184 176.962 197.021 176.962C190.857 176.962 185.861 184.399 185.861 193.574C185.861 202.749 190.857 210.186 197.021 210.186Z" fill="#454045"/>
<path d="M311.166 210.186C317.329 210.186 322.326 202.749 322.326 193.574C322.326 184.399 317.329 176.962 311.166 176.962C305.002 176.962 300.006 184.399 300.006 193.574C300.006 202.749 305.002 210.186 311.166 210.186Z" fill="#454045"/>
<path d="M319.038 131.045C274.221 148.358 210.559 140.724 178.475 108.64C178.475 108.64 170.856 160.732 131.383 160.732L114.17 166.521C68.197 -13.936 166.254 34.281 166.254 34.281C175.512 16.34 188.996 8.913 203.085 7.121C204.324 6.96798 205.568 6.85293 206.814 6.776C206.914 6.776 207.013 6.768 207.113 6.761C217.037 6.233 227.083 8.246 236.011 11.118C239.009 12.0873 241.97 13.1704 244.886 14.365C256.104 18.952 264.274 24.105 265.989 25.208C266.211 25.361 266.326 25.438 266.326 25.438C276.418 12.083 286.043 0 296.625 0C300.967 0 303.968 1.662 305.982 4.319C313.616 14.327 307.345 38.393 306.84 40.285L306.817 40.369C306.825 40.354 306.832 40.323 306.848 40.285L306.902 40.147C308.256 36.731 323.418 0 350.608 0C352.323 0 353.862 0.161 355.233 0.467C375.501 4.946 359.636 40.399 357.89 44.151L357.844 44.258C357.798 44.35 357.767 44.419 357.752 44.449C358.617 43.346 392.562 0.252001 407.646 20.023C407.654 20.038 407.654 20.038 407.661 20.046C422.877 40.101 363.832 113.74 319.038 131.045Z" fill="#F4DD45"/>
<path d="M407.646 20.023H407.638C400.011 12.404 373.594 48.37 357.729 44.472L357.844 44.258C357.798 44.35 357.767 44.419 357.752 44.449C358.618 43.347 392.562 0.253 407.646 20.023ZM355.233 0.467C343.776 -2.135 333.156 19.673 327.155 35.154C324.253 42.641 315.265 45.645 308.44 41.415L306.801 40.399L306.816 40.368L306.839 40.284H306.847L306.901 40.146C308.256 36.731 323.418 0 350.608 0C352.323 0 353.863 0.161 355.233 0.467ZM203.083 7.121C170.295 12.902 157.906 88.073 178.473 108.64C178.473 108.64 170.854 160.732 131.381 160.732L114.168 166.521C68.194 -13.936 166.252 34.281 166.252 34.281C175.509 16.34 188.994 8.913 203.083 7.121ZM305.982 4.319C294.458 -7.205 286.778 51.893 260.835 61.357C234.893 70.821 232.465 58.723 232.465 58.723V58.715C245.237 53.991 256.018 39.059 266.317 25.429L266.325 25.437C266.639 25.016 266.953 24.602 267.267 24.189C267.657 23.661 268.063 23.132 268.461 22.612C277.789 10.429 286.793 0 296.625 0C300.967 0 303.968 1.662 305.982 4.319ZM207.134 6.769C207.027 6.769 206.92 6.769 206.812 6.777C206.912 6.777 207.011 6.769 207.111 6.762L207.134 6.769Z" fill="#ECC32E"/>
<path d="M409.069 243.772L275.168 272.791L275.166 272.792V272.789H236.833V272.791L236.831 272.79L102.93 243.771C89.2739 240.805 76.3619 251.219 76.3619 265.19V426.393C76.3619 436.711 83.5619 445.637 93.6419 447.821L236.831 478.852L236.833 478.851L275.166 478.852H275.168L418.357 447.821C428.437 445.637 435.637 436.711 435.637 426.393V265.191C435.637 251.22 422.725 240.806 409.069 243.772Z" fill="#DFEAEF"/>
<path d="M450.055 281.188V455.33C450.055 466.477 442.277 476.119 431.388 478.478L276.707 512L256.742 499.372V302.565L276.707 289.399L421.355 258.051C436.107 254.846 450.055 266.096 450.055 281.188Z" fill="#DA4A54"/>
<path d="M256.742 302.565V499.372L235.293 512L80.6119 478.478C69.7229 476.119 61.9449 466.476 61.9449 455.33V281.188C61.9449 266.096 75.894 254.846 90.646 258.05L235.294 289.398L256.742 302.565Z" fill="#C32430"/>
<path d="M235.295 512V289.397H276.705V512" fill="#DD636E"/>
<path d="M328.93 348.285C327.025 348.281 325.188 347.574 323.773 346.299C322.358 345.024 321.463 343.271 321.261 341.376C321.059 339.482 321.564 337.58 322.679 336.035C323.793 334.49 325.44 333.411 327.301 333.006L412.857 314.463C414.849 314.057 416.92 314.452 418.623 315.563C420.325 316.674 421.521 318.411 421.952 320.397C422.383 322.384 422.013 324.46 420.924 326.176C419.834 327.892 418.112 329.11 416.131 329.565L330.575 348.108C330.035 348.226 329.483 348.285 328.93 348.285ZM328.93 376.996C327.025 376.992 325.188 376.285 323.773 375.01C322.358 373.735 321.463 371.982 321.261 370.087C321.059 368.193 321.564 366.291 322.679 364.746C323.793 363.201 325.44 362.122 327.301 361.717L412.857 343.174C414.849 342.768 416.92 343.163 418.623 344.274C420.325 345.385 421.521 347.122 421.952 349.108C422.383 351.095 422.013 353.171 420.924 354.887C419.834 356.603 418.112 357.821 416.131 358.276L330.575 376.819C330.035 376.937 329.483 376.996 328.93 376.996Z" fill="#454045"/>
<path d="M57.695 365.329H49.594C37.631 365.329 27.934 355.631 27.934 343.669V324.226C27.934 312.263 37.632 302.566 49.594 302.566H57.695C69.658 302.566 79.355 312.264 79.355 324.226V343.669C79.355 355.632 69.657 365.329 57.695 365.329Z" fill="#F1D0A5"/>
<path d="M61.857 364.921C60.518 365.199 59.117 365.333 57.695 365.333H49.587C37.627 365.333 27.933 355.629 27.933 343.668V324.228C27.933 312.257 37.627 302.563 49.587 302.563H57.695C59.117 302.563 60.518 302.697 61.857 302.975C51.895 304.912 44.375 313.689 44.375 324.228V343.668C44.375 354.208 51.895 362.985 61.857 364.921Z" fill="#F1B986"/>
<path d="M462.407 365.329H454.306C442.343 365.329 432.646 355.631 432.646 343.669V324.226C432.646 312.263 442.344 302.566 454.306 302.566H462.407C474.37 302.566 484.067 312.264 484.067 324.226V343.669C484.067 355.632 474.369 365.329 462.407 365.329Z" fill="#F1D0A5"/>
<path d="M466.569 364.921C465.23 365.199 463.829 365.333 462.407 365.333H454.299C442.339 365.333 432.645 355.629 432.645 343.668V324.228C432.645 312.257 442.339 302.563 454.299 302.563H462.407C463.829 302.563 465.23 302.697 466.569 302.975C456.607 304.912 449.087 313.689 449.087 324.228V343.668C449.087 354.208 456.607 362.985 466.569 364.921Z" fill="#F1B986"/>
</svg>
