<svg width="512" height="512" viewBox="0 0 512 512" fill="none" xmlns="http://www.w3.org/2000/svg">
<path d="M441 140.5V478.5C441 496.7 426.3 511.4 408.1 511.4H103.9C85.7 511.4 71 496.7 71 478.5V33.5C71 15.3 85.7 0.599998 103.9 0.599998H301.1L441 140.5Z" fill="#23A566"/>
<path d="M336.9 254.9H175.1C169.3 254.9 164.6 259.6 164.6 265.4V406.3C164.6 412.1 169.3 416.8 175.1 416.8H337C342.8 416.8 347.5 412.1 347.5 406.3V265.5C347.4 259.7 342.7 254.9 336.9 254.9ZM185.6 322.5H245.5V349.2H185.6V322.5ZM266.5 322.5H326.4V349.2H266.5V322.5ZM326.4 301.5H266.5V276H326.4V301.5ZM245.5 276V301.5H185.6V276H245.5ZM185.6 370.3H245.5V395.8H185.6V370.3ZM266.5 395.8V370.3H326.4V395.8H266.5Z" fill="white"/>
<path d="M319.9 135.4L441 233.5V141.4L372.3 101.5L319.9 135.4Z" fill="black" fill-opacity="0.0980392"/>
<path d="M441 140.5H334C315.8 140.5 301.1 125.8 301.1 107.6V0.599998L441 140.5Z" fill="#8ED1B1"/>
</svg>
