<svg width="200" height="200" viewBox="0 0 200 200" fill="none" xmlns="http://www.w3.org/2000/svg">
<g clip-path="url(#clip0_95_33)">
<path d="M69.6181 147.052L52.952 130.386C52.531 129.954 52.0198 129.622 51.455 129.411C50.8902 129.201 50.2858 129.118 49.6853 129.169C49.0883 129.212 48.5076 129.383 47.9827 129.671C47.4578 129.958 47.0011 130.356 46.6436 130.836L0.837096 193.333C-0.543713 195.174 -0.170679 197.786 1.67027 199.166C2.39151 199.707 3.26869 200 4.17017 200C5.07166 200 5.94884 199.707 6.67008 199.166L69.1678 153.335C71.0239 151.975 71.4267 149.368 70.0669 147.512C69.9409 147.34 69.802 147.178 69.6513 147.027L69.6181 147.052Z" fill="#CFD8DC"/>
<path d="M123.783 117.886L82.1177 76.2214C75.1081 70.7641 66.3748 67.9998 57.5018 68.4299C51.7528 68.2288 46.0218 69.1835 40.6485 71.2375C35.2752 73.2914 30.3687 76.403 26.2197 80.3876C19.4532 87.1542 20.1532 97.612 28.3029 111.478C35.9993 123.546 45.0893 134.667 55.3851 144.61C71.9594 161.176 92.8837 178.392 108.133 178.392C110.259 178.446 112.374 178.064 114.348 177.27C116.321 176.476 118.111 175.287 119.608 173.776C136.957 156.435 132.632 126.745 123.783 117.886Z" fill="#D32F2F"/>
<path d="M157.115 84.5543L115.45 42.889C113.823 41.2625 111.185 41.2625 109.558 42.889L76.2261 76.221C70.7763 81.6708 71.2263 93.7203 88.7257 111.278C100.15 122.702 109.258 126.861 115.725 126.861C117.206 126.913 118.682 126.667 120.067 126.137C121.451 125.608 122.715 124.805 123.783 123.777L157.115 90.4455C158.741 88.8186 158.741 86.1812 157.115 84.5543Z" fill="#F44336"/>
<path d="M199.68 73.4131C199.365 72.6512 198.831 71.9999 198.145 71.5416C197.46 71.0832 196.654 70.8384 195.83 70.8382C186.797 70.8382 166.964 61.0718 152.948 47.0559C138.932 33.04 129.166 13.2154 129.166 4.17431C129.167 3.34917 128.924 2.54218 128.466 1.85564C128.008 1.16911 127.357 0.633934 126.595 0.317972C125.832 0.00200977 124.994 -0.0805154 124.184 0.0808582C123.375 0.242232 122.632 0.640237 122.049 1.22442C105.033 18.2488 99.717 47.2809 126.216 73.7799C131.206 79.325 137.258 83.8116 144.015 86.9736C150.771 90.1356 158.093 91.9086 165.548 92.1874C171.75 92.1163 177.878 90.8218 183.579 88.378C189.28 85.9341 194.443 82.3891 198.772 77.9462C199.354 77.3647 199.75 76.6239 199.912 75.8172C200.074 75.0105 199.993 74.174 199.68 73.4131Z" fill="#D32F2F"/>
<path d="M173.781 26.2233C156.131 8.58212 140.174 0.00743103 124.999 0.00743103C122.698 0.00743103 120.833 1.87299 120.833 4.17407C120.833 16.6154 132.599 38.4978 147.048 52.9555C161.498 67.4131 183.397 79.1713 195.83 79.1713C198.131 79.1713 199.997 77.3057 199.997 75.0047C199.997 59.822 191.422 43.864 173.781 26.2233Z" fill="#F44336"/>
<path d="M165.548 92.1958C158.093 91.9178 150.771 90.1452 144.014 86.9832C137.258 83.8211 131.205 79.3341 126.216 73.7883C120.728 68.7987 116.277 62.7754 113.12 56.0634C109.963 49.3514 108.161 42.0825 107.817 34.6729C107.835 28.4296 109.104 22.2532 111.548 16.5083C113.993 10.7634 117.563 5.56642 122.049 1.22419C122.437 0.837521 122.897 0.531039 123.403 0.322262C123.909 0.113485 124.452 0.0065047 124.999 0.00743707C140.182 0.00743707 156.14 8.58212 173.781 26.2233C191.421 43.8644 199.997 59.8302 199.997 75.0047C199.998 75.5522 199.891 76.0946 199.682 76.6007C199.473 77.1069 199.167 77.567 198.78 77.9545C194.45 82.3981 189.286 85.9434 183.583 88.3872C177.881 90.831 171.752 92.1253 165.548 92.1958ZM126.724 8.39033C119.974 15.4538 116.186 24.8357 116.141 34.6062C116.85 47.3757 122.592 59.3436 132.108 67.8881C155.315 91.1041 178.323 85.5043 191.614 73.2711C190.922 61.0134 182.947 47.1803 167.881 32.1145C152.815 17.0486 138.982 9.0821 126.724 8.39033Z" fill="black"/>
<path d="M195.83 79.1713C183.397 79.1713 161.514 67.4135 147.049 52.9555C132.583 38.4974 120.833 16.615 120.833 4.17407C120.833 1.87299 122.698 0.00743103 124.999 0.00743103C127.3 0.00743103 129.166 1.87299 129.166 4.17407C129.166 13.2155 138.932 33.048 152.948 47.0557C166.964 61.0634 186.797 70.838 195.83 70.838C198.131 70.838 199.997 72.7036 199.997 75.0047C199.997 77.3057 198.131 79.1713 195.83 79.1713ZM115.725 126.87C109.258 126.87 100.15 122.703 88.7257 111.287C71.2263 93.7875 70.7763 81.6798 76.2261 76.23L109.558 42.898C111.156 41.243 113.794 41.1969 115.45 42.7957C117.105 44.3945 117.151 47.0319 115.552 48.6873C115.518 48.722 115.484 48.756 115.45 48.7896L82.1177 82.1216C80.451 83.7883 81.2346 92.013 94.6173 105.396C108 118.778 116.2 119.562 117.891 117.895L151.223 84.5633C152.878 82.9645 155.516 83.0106 157.115 84.6656C157.865 85.4424 158.285 86.4802 158.285 87.5602C158.285 88.6403 157.865 89.6781 157.115 90.4549L123.783 123.787C122.715 124.814 121.451 125.617 120.067 126.146C118.682 126.676 117.206 126.922 115.725 126.87Z" fill="black"/>
<path d="M108.142 178.393C92.8591 178.393 71.9681 161.185 55.3937 144.611C45.1071 134.668 36.0256 123.551 28.3365 111.487C20.1786 97.6206 19.4868 87.1546 26.2534 80.3962C30.3618 76.4626 35.2076 73.3803 40.5119 71.3266C45.8162 69.2729 51.4742 68.2885 57.1604 68.4299H57.5022C66.3706 68.006 75.0974 70.7731 82.1013 76.2296C83.6997 77.8846 83.654 80.5224 81.999 82.1212C80.3842 83.6805 77.8245 83.6805 76.2101 82.1212C70.7285 78.3363 64.1567 76.4541 57.5026 76.7632H57.1776C47.8966 76.5285 38.8949 79.949 32.1118 86.2878C27.4451 90.9544 31.3786 100.271 35.4948 107.279C42.8347 118.73 51.4875 129.285 61.2771 138.728C86.4429 163.894 106.534 175.06 113.717 167.893C124.635 155.699 126.325 137.81 117.884 123.787C116.285 122.132 116.331 119.494 117.986 117.895C119.601 116.336 122.16 116.336 123.775 117.895C132.624 126.753 136.949 156.444 119.608 173.785C118.112 175.294 116.323 176.481 114.351 177.273C112.379 178.065 110.266 178.446 108.142 178.393Z" fill="black"/>
<path d="M4.17055 200C1.86946 200 0.00390625 198.134 0.00390625 195.833C0.00390625 194.932 0.296473 194.055 0.837078 193.333L46.6686 130.836C48.0513 128.997 50.6634 128.627 52.5027 130.01C54.3386 131.39 54.7109 133.996 53.3351 135.836L23.5444 176.459L64.1679 146.668C66.0077 145.286 68.6193 145.657 70.0017 147.497C71.3841 149.336 71.013 151.948 69.1736 153.33L69.1677 153.335L6.67006 199.166C5.94927 199.708 5.07207 200 4.17055 200Z" fill="black"/>
</g>
<defs>
<clipPath id="clip0_95_33">
<rect width="200" height="200" fill="white"/>
</clipPath>
</defs>
</svg>
