<svg width="512" height="512" viewBox="0 0 512 512" fill="none" xmlns="http://www.w3.org/2000/svg">
<path d="M452.441 209.325V508.793H59.559V209.325L257.108 17.691L452.441 209.325Z" fill="#E9EAEF"/>
<path d="M454.531 62.672V197.13L387.658 133.443L356.311 103.59V62.672C356.311 54.72 362.757 48.274 370.709 48.274H440.134C448.085 48.273 454.531 54.72 454.531 62.672Z" fill="#9EB1B7"/>
<path d="M387.657 48.273V133.443L356.31 103.59V62.672C356.31 54.72 362.756 48.274 370.708 48.274L387.657 48.273Z" fill="#879BA0"/>
<path d="M512 462.669V508.791H274.808V462.669C274.808 453.484 282.258 446.045 291.443 446.045H495.365C504.55 446.045 512 453.485 512 462.669ZM83.143 462.669V508.791H0V462.669C0 453.484 7.44 446.045 16.624 446.045H66.507C75.703 446.045 83.143 453.485 83.143 462.669Z" fill="#9CCE21"/>
<path d="M512 478.343V508.791H274.808V478.343C274.808 469.158 282.258 461.719 291.443 461.719H495.365C504.55 461.718 512 469.158 512 478.343ZM83.143 478.343V508.791H0V478.343C0 469.158 7.44 461.719 16.624 461.719H66.507C75.703 461.718 83.143 469.158 83.143 478.343Z" fill="#85C10D"/>
<path d="M452.441 221.081V277.056L256 89.497L59.559 277.056V221.081L240.4 48.851L256 34.357L271.59 48.851L452.441 221.081Z" fill="#D2D4D8"/>
<path d="M255.997 58.347L32.335 271.885L1.06201 245.63L240.403 17.693L255.997 3.20599L271.591 17.693L510.931 245.63L479.657 271.885L255.997 58.347Z" fill="#EA4756"/>
<path d="M107.624 284.421H237.191V508.792H107.624V284.421Z" fill="#C97523"/>
<path d="M274.808 284.421H422.358V413.988H274.808V284.421Z" fill="#A0D9F2"/>
<path d="M274.808 284.421H422.358V323.793H274.808V284.421Z" fill="#C97523"/>
<path d="M211.661 403.726H192.853C188.524 403.726 185.016 400.217 185.016 395.889C185.016 391.561 188.524 388.052 192.853 388.052H211.661C215.99 388.052 219.498 391.561 219.498 395.889C219.498 400.217 215.99 403.726 211.661 403.726Z" fill="#8E480E"/>
<path d="M256 220.357C275.908 220.357 292.047 204.218 292.047 184.31C292.047 164.402 275.908 148.263 256 148.263C236.092 148.263 219.953 164.402 219.953 184.31C219.953 204.218 236.092 220.357 256 220.357Z" fill="#413740"/>
<path d="M237.192 276.587H107.624C105.545 276.587 103.552 277.413 102.082 278.882C100.613 280.352 99.787 282.346 99.787 284.424V508.795H115.46V292.26H229.354V508.794H245.027V284.423C245.028 283.394 244.825 282.375 244.432 281.424C244.038 280.473 243.461 279.609 242.733 278.881C242.006 278.154 241.142 277.576 240.191 277.183C239.24 276.789 238.221 276.587 237.192 276.587ZM422.354 276.587H274.808C272.729 276.587 270.736 277.413 269.266 278.882C267.797 280.352 266.971 282.346 266.971 284.424V413.991C266.971 416.069 267.797 418.063 269.266 419.533C270.736 421.002 272.729 421.828 274.808 421.828H422.354C424.433 421.828 426.426 421.002 427.896 419.533C429.365 418.063 430.191 416.069 430.191 413.991V284.423C430.191 283.394 429.988 282.375 429.595 281.424C429.201 280.473 428.624 279.609 427.896 278.881C427.168 278.154 426.304 277.577 425.353 277.183C424.402 276.789 423.383 276.587 422.354 276.587ZM414.517 292.26V315.958H282.645V292.26H414.517ZM282.645 406.154V331.632H414.517V406.154H282.645Z" fill="#8E480E"/>
<path d="M256 228.192C231.802 228.192 212.116 208.506 212.116 184.308C212.116 160.11 231.802 140.423 256 140.423C280.198 140.423 299.884 160.109 299.884 184.308C299.884 208.505 280.198 228.192 256 228.192ZM256 156.097C240.445 156.097 227.79 168.752 227.79 184.308C227.79 199.863 240.445 212.518 256 212.518C271.555 212.518 284.21 199.863 284.21 184.308C284.21 168.752 271.555 156.097 256 156.097Z" fill="#EA4756"/>
</svg>
