<svg width="512" height="512" viewBox="0 0 512 512" fill="none" xmlns="http://www.w3.org/2000/svg">
<path d="M297.941 48H96V464H416V166.059L297.941 48Z" fill="#231F20"/>
<path d="M392 440H120V72H288L392 176V440Z" fill="white"/>
<path d="M288 176V72L392 176H288Z" fill="#6D6E71"/>
<path d="M288 176L392 280V176H288Z" fill="#E6E7E8"/>
<path d="M48 176H120V416H48V176Z" fill="#231F20"/>
<path d="M120 176H264V416H120V176Z" fill="url(#paint0_linear_52_21)"/>
<path d="M72 200H264V392H72V200Z" fill="#2FA860"/>
<path d="M264 248H288V264H264V248ZM264 288H288V304H264V288ZM264 328H288V344H264V328ZM264 368H288V384H264V368ZM264 208H288V224H264V208ZM304 248H328V264H304V248ZM304 288H328V304H304V288ZM304 328H328V344H304V328ZM304 368H328V384H304V368ZM304 208H328V224H304V208Z" fill="#E6E7E8"/>
<path d="M224 240H192L168 273.6L144 240H112L152 296L112 352H144L168 318.4L192 352H224L184 296L224 240Z" fill="white"/>
<path d="M320 208L328 216V208H320Z" fill="#D4D6D8"/>
<defs>
<linearGradient id="paint0_linear_52_21" x1="260.916" y1="296" x2="123.347" y2="296" gradientUnits="userSpaceOnUse">
<stop stop-color="white"/>
<stop offset="1" stop-color="#E6E7E8"/>
</linearGradient>
</defs>
</svg>
