<svg width="512" height="512" viewBox="0 0 512 512" fill="none" xmlns="http://www.w3.org/2000/svg">
<g clip-path="url(#clip0_31_3)">
<path d="M455.31 148.504H56.6899L38.547 116.708C37.2549 114.443 36.5752 111.881 36.575 109.274V93.002C36.575 84.718 43.291 78.002 51.575 78.002H460.425C468.709 78.002 475.425 84.718 475.425 93.002V109.275C475.425 111.882 474.745 114.444 473.453 116.709L455.31 148.504Z" fill="#EA9B58"/>
<path d="M385.303 78.002H126.697L108.554 46.206C107.262 43.9414 106.582 41.3792 106.582 38.772V22.5C106.582 14.216 113.298 7.5 121.582 7.5H390.418C398.702 7.5 405.418 14.216 405.418 22.5V38.773C405.418 41.38 404.738 43.942 403.446 46.207L385.303 78.002Z" fill="#FFBD86"/>
<path d="M126.697 78.002H385.304V292.684H126.697V78.002Z" fill="#F5F8F9"/>
<path d="M56.47 148.504H455.53V292.684H56.47V148.504Z" fill="#C5D3DD"/>
<path d="M56.47 263.984H455.53V292.685H56.47V263.984Z" fill="#9FACBA"/>
<path d="M126.697 78.002H385.304V292.684H126.697V78.002Z" fill="#F5F8F9"/>
<path d="M126.697 263.984H385.304V292.685H126.697V263.984Z" fill="#E8EDF2"/>
<path d="M190.667 218.527H321.334V361.194H190.667V218.527Z" fill="#D77F4A"/>
<path d="M190.667 263.984H321.334V361.194H190.667V263.984Z" fill="#C86D36"/>
<path d="M7.5 406.667V312.685C7.5 301.639 16.454 292.685 27.5 292.685H484.5C495.546 292.685 504.5 301.639 504.5 312.685V406.667C504.5 417.713 495.546 426.667 484.5 426.667H27.5C16.454 426.667 7.5 417.712 7.5 406.667Z" fill="#E8EDF2"/>
<path d="M484.5 292.685H474.5V376.667C474.5 387.713 465.546 396.667 454.5 396.667H7.5V406.667C7.5 417.713 16.454 426.667 27.5 426.667H484.5C495.546 426.667 504.5 417.713 504.5 406.667V312.685C504.5 301.639 495.546 292.685 484.5 292.685Z" fill="#D9E7EC"/>
<path d="M27.474 490.363C27.474 498.17 33.803 504.5 41.611 504.5H470.391C478.198 504.5 484.528 498.171 484.528 490.363V469.583H27.474V490.363Z" fill="#FDD79B"/>
<path d="M444.649 426.667H67.351C45.327 426.667 27.473 444.521 27.473 466.545V469.584H484.526V466.545C484.526 444.52 466.673 426.667 444.649 426.667Z" fill="#91DEB6"/>
<path d="M297.045 112.253H280.307C273.226 112.253 266.403 114.916 261.195 119.714L256 124.5L250.804 119.714C245.596 114.916 238.773 112.253 231.692 112.253H214.954C213.999 112.253 213.054 112.441 212.171 112.806C211.289 113.172 210.488 113.707 209.812 114.382C209.137 115.058 208.602 115.859 208.236 116.741C207.871 117.624 207.683 118.569 207.683 119.524V167.258C207.683 168.213 207.871 169.158 208.236 170.041C208.602 170.923 209.137 171.724 209.812 172.4C210.488 173.075 211.289 173.61 212.171 173.976C213.054 174.341 213.999 174.529 214.954 174.529H231.692C238.773 174.529 245.596 177.192 250.804 181.99L256 186.776L261.196 181.99C266.404 177.192 273.227 174.529 280.308 174.529H297.046C298.001 174.529 298.946 174.341 299.829 173.976C300.711 173.61 301.512 173.075 302.188 172.4C302.863 171.724 303.398 170.923 303.764 170.041C304.129 169.158 304.317 168.213 304.317 167.258V119.524C304.316 117.596 303.55 115.746 302.186 114.383C300.823 113.019 298.973 112.253 297.045 112.253Z" fill="#C4E2FF"/>
<path d="M376.338 504.5H470.39C478.197 504.5 484.527 498.171 484.527 490.363V469.583H27.474V490.363C27.474 498.17 33.803 504.5 41.611 504.5H341.335" stroke="black" stroke-width="15" stroke-miterlimit="10" stroke-linecap="round" stroke-linejoin="round"/>
<path d="M455.53 291.684V148.504M56.47 148.504V291.684M321.333 292V218.527H190.667V292M256 218.527V291.684M444.649 426.667H67.351C45.327 426.667 27.473 444.521 27.473 466.545V469.584H484.526V466.545C484.526 444.52 466.673 426.667 444.649 426.667ZM7.5 406.667V312.685C7.5 301.639 16.454 292.685 27.5 292.685H484.5C495.546 292.685 504.5 301.639 504.5 312.685V406.667C504.5 417.713 495.546 426.667 484.5 426.667H27.5C16.454 426.667 7.5 417.712 7.5 406.667Z" stroke="black" stroke-width="15" stroke-miterlimit="10" stroke-linecap="round" stroke-linejoin="round"/>
<path d="M279.968 386.646L300.223 333.464C300.637 332.452 302.069 332.451 302.485 333.462L322.556 386.646M286.285 373.401H316.341M78.264 332.705V386.601C78.86 386.703 97.153 386.601 97.153 386.601M126.923 332.705V386.646M188.993 345.117C188.993 351.972 183.436 357.529 176.581 357.529C173.181 357.529 160.912 357.584 160.912 357.584V332.705H176.581C183.436 332.705 188.993 338.262 188.993 345.117Z" stroke="black" stroke-width="15" stroke-miterlimit="10" stroke-linecap="round" stroke-linejoin="round"/>
<path d="M405.418 332.705L422.648 359.092M422.648 359.092L439.737 332.841M422.648 359.092L422.58 386.646M229.375 360.901L252.034 386.646M222.87 332.705V386.646M356.953 360.901L379.612 386.646M350.448 332.705V386.646M126.697 244.393V292.685H385.303V78.002M385.303 78.002H126.697M385.303 78.002L403.446 46.207C404.738 43.942 405.418 41.38 405.418 38.773V22.5C405.418 14.216 398.702 7.5 390.418 7.5H121.582C113.298 7.5 106.582 14.216 106.582 22.5V38.772C106.582 41.3792 107.262 43.9414 108.554 46.206L126.697 78.002M126.697 78.002V209.39M111.583 42.751H400.417M193.837 372.063C193.837 380.082 187.336 386.582 179.318 386.582C175.341 386.582 160.913 386.646 160.913 386.646V357.543H179.318C187.336 357.543 193.837 364.044 193.837 372.063ZM252.034 346.724C252.034 354.466 245.245 360.743 237.222 360.743C233.243 360.743 222.988 360.805 222.988 360.805L222.888 332.705H237.222C245.245 332.705 252.034 338.981 252.034 346.724ZM379.612 346.724C379.612 354.466 372.823 360.743 364.8 360.743C360.821 360.743 350.566 360.805 350.566 360.805L350.466 332.705H364.8C372.823 332.705 379.612 338.981 379.612 346.724Z" stroke="black" stroke-width="15" stroke-miterlimit="10" stroke-linecap="round" stroke-linejoin="round"/>
<path d="M125.697 148.504H56.6899L38.547 116.708C37.2549 114.443 36.5752 111.881 36.575 109.274V93.002C36.575 84.718 43.291 78.002 51.575 78.002H460.425C468.709 78.002 475.425 84.718 475.425 93.002V109.275C475.425 111.882 474.745 114.444 473.453 116.709L455.31 148.505H387M38.575 113.253H126M473.425 113.253H386" stroke="black" stroke-width="15" stroke-miterlimit="10" stroke-linecap="round" stroke-linejoin="round"/>
<path d="M256 186.776L250.804 181.99C245.596 177.192 238.773 174.529 231.692 174.529H214.954C213.999 174.529 213.054 174.341 212.171 173.976C211.289 173.61 210.488 173.075 209.812 172.4C209.137 171.724 208.602 170.923 208.236 170.041C207.871 169.158 207.683 168.213 207.683 167.258V119.524C207.683 118.569 207.871 117.624 208.236 116.741C208.602 115.859 209.137 115.058 209.812 114.382C210.488 113.707 211.289 113.172 212.171 112.806C213.054 112.441 213.999 112.253 214.954 112.253H231.692C238.773 112.253 245.596 114.916 250.804 119.714L256 124.5M256 186.776V124.5M256 186.776L261.196 181.99C266.404 177.192 273.227 174.529 280.308 174.529H297.046C298.001 174.529 298.946 174.341 299.829 173.976C300.711 173.61 301.512 173.075 302.188 172.4C302.863 171.724 303.398 170.923 303.764 170.041C304.129 169.158 304.317 168.213 304.317 167.258V119.524C304.317 118.569 304.129 117.624 303.764 116.741C303.398 115.859 302.863 115.058 302.188 114.382C301.512 113.707 300.711 113.172 299.829 112.806C298.946 112.441 298.001 112.253 297.046 112.253H280.308C273.227 112.253 266.404 114.916 261.196 119.714L256 124.5" stroke="black" stroke-width="15" stroke-miterlimit="10" stroke-linecap="round" stroke-linejoin="round"/>
</g>
<defs>
<clipPath id="clip0_31_3">
<rect width="512" height="512" fill="white"/>
</clipPath>
</defs>
</svg>
