<svg width="512" height="512" viewBox="0 0 512 512" fill="none" xmlns="http://www.w3.org/2000/svg">
<g clip-path="url(#clip0_55_174)">
<path d="M173.559 451.254H485.966C492.871 451.254 499.493 448.511 504.375 443.629C509.257 438.747 512 432.125 512 425.22V26.0339C512 19.1293 509.257 12.5075 504.375 7.62515C499.493 2.74285 492.871 0 485.966 0L199.593 0C192.689 0 186.067 2.74285 181.184 7.62515C176.302 12.5075 173.559 19.1293 173.559 26.0339V451.254Z" fill="#F5EFCA"/>
<path d="M242.983 104.136H216.949V34.7119C216.949 32.4103 216.035 30.203 214.407 28.5756C212.78 26.9482 210.573 26.0339 208.271 26.0339C205.97 26.0339 203.762 26.9482 202.135 28.5756C200.507 30.203 199.593 32.4103 199.593 34.7119V112.814C199.593 115.115 200.507 117.322 202.135 118.95C203.762 120.577 205.97 121.492 208.271 121.492H242.983C245.285 121.492 247.492 120.577 249.119 118.95C250.747 117.322 251.661 115.115 251.661 112.814C251.661 110.512 250.747 108.305 249.119 106.677C247.492 105.05 245.285 104.136 242.983 104.136ZM295.051 26.0339C275.586 26.0339 260.339 46.9998 260.339 73.7627C260.339 100.526 275.586 121.492 295.051 121.492C314.516 121.492 329.763 100.526 329.763 73.7627C329.763 46.9998 314.516 26.0339 295.051 26.0339ZM295.051 104.136C286.841 104.136 277.695 91.6653 277.695 73.7627C277.695 55.8601 286.841 43.3898 295.051 43.3898C303.26 43.3898 312.407 55.8687 312.407 73.7627C312.407 91.6567 303.26 104.136 295.051 104.136ZM381.388 31.9696C380.817 30.2334 379.713 28.7217 378.233 27.65C376.752 26.5783 374.971 26.0013 373.144 26.0013C371.316 26.0013 369.535 26.5783 368.055 27.65C366.575 28.7217 365.47 30.2334 364.9 31.9696L338.866 110.071C338.139 112.258 338.31 114.644 339.341 116.704C340.373 118.764 342.181 120.33 344.368 121.058C346.554 121.785 348.94 121.614 351 120.582C353.061 119.55 354.627 117.742 355.354 115.556L359.164 104.136H387.141L390.951 115.556C391.678 117.742 393.244 119.55 395.305 120.582C397.365 121.614 399.751 121.785 401.937 121.058C404.124 120.33 405.932 118.764 406.964 116.704C407.995 114.644 408.166 112.258 407.439 110.071L381.388 31.9696ZM364.943 86.7796L373.153 62.1516L381.362 86.7796H364.943ZM477.288 26.0339C474.987 26.0339 472.779 26.9482 471.152 28.5756C469.524 30.203 468.61 32.4103 468.61 34.7119V79.3253L441.483 30.4944C440.549 28.8142 439.083 27.4918 437.316 26.7346C435.549 25.9775 433.581 25.8285 431.72 26.3111C429.859 26.7937 428.211 27.8805 427.035 29.401C425.858 30.9214 425.22 32.7895 425.22 34.7119V112.814C425.22 115.115 426.135 117.322 427.762 118.95C429.389 120.577 431.597 121.492 433.898 121.492C436.2 121.492 438.407 120.577 440.035 118.95C441.662 117.322 442.576 115.115 442.576 112.814V68.2001L469.704 117.031C470.638 118.711 472.103 120.034 473.87 120.791C475.637 121.548 477.606 121.697 479.467 121.214C481.327 120.732 482.975 119.645 484.152 118.124C485.328 116.604 485.966 114.736 485.966 112.814V34.7119C485.966 32.4103 485.052 30.203 483.424 28.5756C481.797 26.9482 479.59 26.0339 477.288 26.0339Z" fill="#A56A43"/>
<path d="M321.085 199.593H208.271C205.97 199.593 203.762 198.679 202.135 197.052C200.507 195.424 199.593 193.217 199.593 190.915C199.593 188.614 200.507 186.406 202.135 184.779C203.762 183.152 205.97 182.237 208.271 182.237H321.085C323.386 182.237 325.594 183.152 327.221 184.779C328.848 186.406 329.763 188.614 329.763 190.915C329.763 193.217 328.848 195.424 327.221 197.052C325.594 198.679 323.386 199.593 321.085 199.593ZM321.085 242.983H262.248C259.947 242.983 257.739 242.069 256.112 240.441C254.484 238.814 253.57 236.607 253.57 234.305C253.57 232.004 254.484 229.796 256.112 228.169C257.739 226.541 259.947 225.627 262.248 225.627H321.085C323.386 225.627 325.594 226.541 327.221 228.169C328.848 229.796 329.763 232.004 329.763 234.305C329.763 236.607 328.848 238.814 327.221 240.441C325.594 242.069 323.386 242.983 321.085 242.983ZM321.085 286.373H297.741C295.439 286.373 293.232 285.459 291.605 283.831C289.977 282.204 289.063 279.996 289.063 277.695C289.063 275.393 289.977 273.186 291.605 271.559C293.232 269.931 295.439 269.017 297.741 269.017H321.085C323.386 269.017 325.594 269.931 327.221 271.559C328.848 273.186 329.763 275.393 329.763 277.695C329.763 279.996 328.848 282.204 327.221 283.831C325.594 285.459 323.386 286.373 321.085 286.373ZM321.085 329.763H315.618C313.316 329.763 311.109 328.848 309.481 327.221C307.854 325.594 306.94 323.386 306.94 321.085C306.94 318.783 307.854 316.576 309.481 314.949C311.109 313.321 313.316 312.407 315.618 312.407H321.085C323.386 312.407 325.594 313.321 327.221 314.949C328.848 316.576 329.763 318.783 329.763 321.085C329.763 323.386 328.848 325.594 327.221 327.221C325.594 328.848 323.386 329.763 321.085 329.763ZM477.288 199.593H364.475C362.173 199.593 359.966 198.679 358.338 197.052C356.711 195.424 355.797 193.217 355.797 190.915C355.797 188.614 356.711 186.406 358.338 184.779C359.966 183.152 362.173 182.237 364.475 182.237H477.288C479.59 182.237 481.797 183.152 483.424 184.779C485.052 186.406 485.966 188.614 485.966 190.915C485.966 193.217 485.052 195.424 483.424 197.052C481.797 198.679 479.59 199.593 477.288 199.593ZM477.288 242.983H364.475C362.173 242.983 359.966 242.069 358.338 240.441C356.711 238.814 355.797 236.607 355.797 234.305C355.797 232.004 356.711 229.796 358.338 228.169C359.966 226.541 362.173 225.627 364.475 225.627H477.288C479.59 225.627 481.797 226.541 483.424 228.169C485.052 229.796 485.966 232.004 485.966 234.305C485.966 236.607 485.052 238.814 483.424 240.441C481.797 242.069 479.59 242.983 477.288 242.983ZM477.288 286.373H364.475C362.173 286.373 359.966 285.459 358.338 283.831C356.711 282.204 355.797 279.996 355.797 277.695C355.797 275.393 356.711 273.186 358.338 271.559C359.966 269.931 362.173 269.017 364.475 269.017H477.288C479.59 269.017 481.797 269.931 483.424 271.559C485.052 273.186 485.966 275.393 485.966 277.695C485.966 279.996 485.052 282.204 483.424 283.831C481.797 285.459 479.59 286.373 477.288 286.373ZM477.288 329.763H364.475C362.173 329.763 359.966 328.848 358.338 327.221C356.711 325.594 355.797 323.386 355.797 321.085C355.797 318.783 356.711 316.576 358.338 314.949C359.966 313.321 362.173 312.407 364.475 312.407H477.288C479.59 312.407 481.797 313.321 483.424 314.949C485.052 316.576 485.966 318.783 485.966 321.085C485.966 323.386 485.052 325.594 483.424 327.221C481.797 328.848 479.59 329.763 477.288 329.763Z" fill="#CBB292"/>
<path d="M147.525 503.322C224.209 503.322 286.373 441.158 286.373 364.475C286.373 287.791 224.209 225.627 147.525 225.627C70.8421 225.627 8.67798 287.791 8.67798 364.475C8.67798 441.158 70.8421 503.322 147.525 503.322Z" fill="#ECF0F1"/>
<path d="M268.236 295.832C241.799 280.785 211.153 274.835 181.006 278.898C150.86 282.962 122.882 296.812 101.373 318.322C79.8631 339.831 66.0124 367.809 61.9493 397.956C57.8862 428.102 63.8354 458.748 78.8827 485.185C60.3108 474.614 44.4295 459.899 32.4755 442.186C20.5214 424.473 12.8172 404.239 9.96285 383.061C7.10847 361.883 9.18093 340.332 16.0188 320.086C22.8568 299.84 34.2756 281.446 49.3861 266.335C64.4967 251.225 82.8911 239.806 103.137 232.968C123.383 226.13 144.934 224.058 166.112 226.912C187.29 229.766 207.524 237.471 225.237 249.425C242.95 261.379 257.665 277.26 268.236 295.832Z" fill="white"/>
<path d="M225.627 373.153H147.525C145.224 373.153 143.017 372.238 141.389 370.611C139.762 368.983 138.847 366.776 138.847 364.475V269.017C138.847 266.715 139.762 264.508 141.389 262.881C143.017 261.253 145.224 260.339 147.525 260.339C149.827 260.339 152.034 261.253 153.662 262.881C155.289 264.508 156.203 266.715 156.203 269.017V355.797H225.627C227.929 355.797 230.136 356.711 231.763 358.338C233.391 359.966 234.305 362.173 234.305 364.475C234.305 366.776 233.391 368.983 231.763 370.611C230.136 372.238 227.929 373.153 225.627 373.153Z" fill="#E64C3C"/>
<path d="M403.3 408.732C399.878 408.738 396.51 407.891 393.497 406.269C390.485 404.646 387.925 402.298 386.048 399.438L376.06 384.46C375.744 383.976 375.313 383.579 374.806 383.304C374.298 383.029 373.73 382.886 373.153 382.886C372.575 382.886 372.007 383.029 371.499 383.304C370.992 383.579 370.561 383.976 370.245 384.46L366.635 389.884C364.732 392.742 362.152 395.086 359.124 396.706C356.095 398.326 352.714 399.172 349.279 399.169H321.085C318.783 399.169 316.576 398.255 314.948 396.627C313.321 395 312.407 392.793 312.407 390.491C312.407 388.19 313.321 385.982 314.948 384.355C316.576 382.727 318.783 381.813 321.085 381.813H349.288C349.863 381.813 350.428 381.67 350.934 381.398C351.44 381.125 351.87 380.731 352.187 380.251L355.797 374.888C357.696 372.024 360.275 369.675 363.304 368.049C366.332 366.424 369.716 365.574 373.153 365.574C376.589 365.574 379.973 366.424 383.001 368.049C386.03 369.675 388.609 372.024 390.508 374.888L400.497 389.866C400.861 390.43 401.38 390.876 401.992 391.15C402.604 391.425 403.282 391.516 403.945 391.413C404.608 391.311 405.226 391.018 405.726 390.571C406.226 390.124 406.586 389.542 406.762 388.894L408.29 383.523C409.434 379.476 411.778 375.87 415.011 373.18C418.245 370.491 422.217 368.843 426.405 368.454C430.593 368.065 434.8 368.953 438.474 371.002C442.147 373.05 445.114 376.163 446.985 379.93C447.272 380.513 447.717 381.003 448.27 381.345C448.822 381.687 449.459 381.867 450.109 381.865H477.288C479.59 381.865 481.797 382.78 483.424 384.407C485.052 386.034 485.966 388.242 485.966 390.543C485.966 392.845 485.052 395.052 483.424 396.679C481.797 398.307 479.59 399.221 477.288 399.221H450.1C446.225 399.234 442.425 398.161 439.129 396.124C435.832 394.087 433.173 391.168 431.451 387.697C431.145 387.057 430.65 386.527 430.033 386.178C429.416 385.828 428.707 385.675 428.001 385.74C427.296 385.806 426.626 386.085 426.084 386.542C425.542 386.999 425.153 387.611 424.969 388.296L423.433 393.659C422.211 398.041 419.574 401.896 415.932 404.622C412.29 407.349 407.849 408.794 403.3 408.732Z" fill="#CBB292"/>
<path d="M147.525 512C66.048 512 0 445.952 0 364.475C0 282.997 66.048 216.949 147.525 216.949C229.003 216.949 295.051 282.997 295.051 364.475C294.964 445.917 228.968 511.913 147.525 512ZM147.525 234.305C75.6371 234.305 17.3559 292.586 17.3559 364.475C17.3559 436.363 75.6371 494.644 147.525 494.644C219.414 494.644 277.695 436.363 277.695 364.475C277.608 292.621 219.379 234.392 147.525 234.305Z" fill="#3B97D3"/>
</g>
<defs>
<clipPath id="clip0_55_174">
<rect width="512" height="512" fill="white"/>
</clipPath>
</defs>
</svg>
