<svg width="100" height="100" viewBox="0 0 100 100" fill="none" xmlns="http://www.w3.org/2000/svg">
<path d="M50 0C30.6051 0 14.8438 15.7617 14.8438 35.1562C14.8438 41.7187 16.6605 48.1057 20.1174 53.6135L47.6168 98.6162C48.0859 99.3779 48.7891 99.8469 49.6096 99.9641C50.7225 100.14 51.9535 99.6711 52.5979 98.5578L80.176 53.1445C83.4568 47.7541 85.1562 41.4846 85.1562 35.1562C85.1562 15.7617 69.3949 0 50 0ZM50 52.7344C40.1566 52.7344 32.4219 44.7656 32.4219 35.1562C32.4219 25.4881 40.3318 17.5781 50 17.5781C59.6682 17.5781 67.5781 25.4881 67.5781 35.1562C67.5781 44.707 59.9607 52.7344 50 52.7344Z" fill="#FD003A"/>
<path d="M50 0V17.5781C59.6682 17.5781 67.5781 25.4881 67.5781 35.1562C67.5781 44.707 59.9607 52.7344 50 52.7344V99.9982C50.9998 100.021 52.0279 99.5422 52.5977 98.5578L80.1758 53.1445C83.4568 47.7541 85.1562 41.4846 85.1562 35.1562C85.1562 15.7617 69.3949 0 50 0Z" fill="#E50027"/>
</svg>
