<svg width="150" height="150" viewBox="0 0 150 150" fill="none" xmlns="http://www.w3.org/2000/svg">
<rect width="150" height="150" rx="75" fill="white"/>
<path d="M35.2959 102.35C35.4137 102.35 35.508 102.415 35.6022 102.513C35.6729 102.643 35.72 102.774 35.72 102.937V107.405C35.72 107.6 35.6729 107.731 35.5786 107.829C35.508 107.959 35.3902 108.024 35.2724 107.992C34.7776 107.992 33.953 107.959 32.7749 107.959H25.4241C25.3063 107.959 25.1885 107.894 25.1178 107.796C25.0236 107.666 25 107.535 25 107.372V107.339C25 107.176 25.0236 107.046 25.1178 106.915C25.212 106.818 25.3298 106.752 25.4476 106.752L25.9189 106.818C26.1545 106.818 26.2723 106.557 26.2723 106.1V90.2177C26.2723 90.022 26.2251 89.8589 26.1309 89.7285C26.0602 89.5654 25.9424 89.5328 25.8246 89.5328L25.4476 89.5654C25.3063 89.5654 25.212 89.5328 25.1178 89.4024C25.0236 89.3045 25 89.1414 25 88.9784C25 88.8153 25.0236 88.6849 25.1178 88.5544C25.1885 88.4566 25.3063 88.3914 25.4241 88.3914H30.7488C30.8666 88.3914 30.9608 88.4566 31.055 88.5544C31.1257 88.6849 31.1728 88.8153 31.1728 88.9784C31.1728 89.1741 31.1257 89.3045 31.0315 89.4024C30.9608 89.5328 30.843 89.598 30.7252 89.5654L30.0184 89.5328H29.9713C29.8299 89.5328 29.7357 89.598 29.665 89.7285C29.5707 89.8589 29.5236 90.022 29.5236 90.2177V106.361C29.5236 106.655 29.6178 106.785 29.8299 106.785H31.7854C32.8221 106.785 33.5996 106.394 34.1179 105.644C34.6127 104.991 34.8718 104.046 34.919 102.839C34.9425 102.708 34.9661 102.578 35.0368 102.48C35.1074 102.415 35.2017 102.35 35.2959 102.35ZM43.952 89.7285C43.8578 89.8589 43.8342 90.022 43.8342 90.2177V106.1C43.8342 106.622 43.9756 106.85 44.3054 106.818L44.6824 106.785C44.8002 106.785 44.918 106.818 44.9887 106.948C45.0829 107.046 45.1301 107.209 45.1301 107.372C45.1301 107.535 45.0829 107.666 44.9887 107.796C44.918 107.894 44.8238 107.959 44.706 107.959H39.7111C39.5933 107.959 39.4755 107.894 39.4049 107.796C39.3106 107.666 39.2871 107.535 39.2871 107.372C39.2871 107.209 39.3106 107.046 39.4049 106.948C39.4991 106.818 39.5933 106.785 39.7347 106.785L40.1117 106.818H40.1588C40.418 106.818 40.5593 106.557 40.5593 106.1V90.2177C40.5593 90.022 40.5122 89.8589 40.4415 89.7285C40.3473 89.5654 40.253 89.5328 40.1117 89.5328L39.7347 89.5654C39.5933 89.5654 39.4991 89.5328 39.4049 89.4024C39.3106 89.3045 39.2871 89.1414 39.2871 88.9784C39.2871 88.8153 39.3106 88.6849 39.4049 88.5544C39.4755 88.4566 39.5933 88.3914 39.7111 88.3914H44.706C44.8238 88.3914 44.918 88.4566 44.9887 88.5544C45.0829 88.6849 45.1301 88.8153 45.1301 88.9784C45.1301 89.1414 45.0829 89.3045 44.9887 89.4024C44.918 89.5328 44.8002 89.5654 44.6824 89.5654L44.3054 89.5328H44.2583C44.117 89.5328 44.0227 89.598 43.952 89.7285ZM60.7601 100.067C61.1135 100.849 61.3019 101.73 61.3019 102.676C61.3019 106.198 59.5585 107.959 56.0951 107.959H49.5217C49.4275 107.959 49.3097 107.894 49.239 107.796C49.1448 107.666 49.1212 107.535 49.1212 107.372V107.339C49.1212 107.176 49.1683 107.046 49.239 106.948C49.3332 106.818 49.4275 106.785 49.5453 106.785L50.2521 106.818C50.4877 106.818 50.6291 106.557 50.6291 106.1V90.2829C50.6291 90.1198 50.5819 89.9894 50.5113 89.8263C50.4406 89.6959 50.3463 89.6306 50.2285 89.6306L49.5453 89.6633C49.4275 89.6633 49.3332 89.6306 49.239 89.5002C49.1683 89.4024 49.1212 89.2393 49.1212 89.0762C49.1212 88.9132 49.1448 88.7827 49.239 88.6523C49.3097 88.5544 49.4275 88.4892 49.5217 88.4892H56.4485C57.7679 88.4892 58.781 88.8805 59.4878 89.6633C60.171 90.446 60.5245 91.62 60.5245 93.1528C60.5245 94.2943 60.2182 95.2727 59.6292 96.0554C59.1108 96.7729 58.4511 97.2294 57.6265 97.523C57.603 97.523 57.603 97.523 57.5794 97.5556C57.5794 97.5556 57.5794 97.5882 57.603 97.5882C57.603 97.6208 57.603 97.6208 57.6265 97.6208C58.2155 97.686 58.781 97.9143 59.2993 98.2731C59.9119 98.697 60.3831 99.3167 60.7601 100.067ZM53.8804 90.022V96.675C53.8804 96.8381 53.904 96.9685 53.9982 97.0664C54.0689 97.1642 54.1631 97.2294 54.2574 97.2294H55.1055C55.8124 97.2294 56.3543 96.9033 56.7077 96.2837C57.0375 95.664 57.226 94.6856 57.226 93.3159C57.226 90.8699 56.4956 89.6306 55.0584 89.6306H54.1631C53.9982 89.6306 53.904 89.7611 53.8804 90.022ZM57.2495 105.741C57.7208 105.057 57.9564 103.98 57.9564 102.611C57.9564 101.11 57.7679 100.034 57.3909 99.3819C57.0139 98.697 56.4249 98.3709 55.671 98.3709H54.2574C54.1631 98.3709 54.0689 98.4361 53.9982 98.534C53.904 98.6318 53.8804 98.7622 53.8804 98.9253V106.361C53.8804 106.655 53.9746 106.785 54.2103 106.785H55.3647C56.1658 106.785 56.8019 106.426 57.2495 105.741ZM77.0026 107.111H77.0498C77.144 107.111 77.2382 107.144 77.2854 107.209C77.356 107.307 77.3796 107.405 77.3796 107.535C77.3796 107.666 77.356 107.763 77.2854 107.829C77.2382 107.926 77.1676 107.959 77.0733 107.959H74.5052C74.0811 107.959 73.7042 107.763 73.3979 107.339C73.068 106.948 72.9031 106.426 72.856 105.839V105.807C72.8324 105.22 72.8089 104.828 72.8089 104.535V103.458C72.8089 101.991 72.5262 100.882 71.9136 100.165C71.3246 99.4471 70.5942 99.0884 69.746 99.0884H69.3926C69.2984 99.0884 69.2277 99.121 69.1806 99.1862C69.1334 99.2514 69.1099 99.3493 69.1099 99.4797V106.1C69.1099 106.557 69.2512 106.818 69.5811 106.818L70.2879 106.785C70.4057 106.785 70.5235 106.818 70.6178 106.948C70.6884 107.046 70.7356 107.176 70.7356 107.372C70.7356 107.535 70.6884 107.666 70.6178 107.796C70.5235 107.894 70.4293 107.959 70.3115 107.959H64.9868C64.869 107.959 64.7512 107.894 64.6805 107.796C64.5863 107.666 64.5627 107.535 64.5627 107.372C64.5627 107.209 64.5863 107.046 64.6805 106.948C64.7748 106.818 64.869 106.785 65.0104 106.785L65.3873 106.818H65.4345C65.6936 106.818 65.835 106.557 65.835 106.1V90.2177C65.835 90.022 65.7879 89.8589 65.6936 89.7285C65.6229 89.5654 65.4816 89.5328 65.3166 89.5328L65.0104 89.5654C64.869 89.5654 64.7748 89.5328 64.6805 89.4024C64.5863 89.3045 64.5627 89.1414 64.5627 88.9784C64.5627 88.8153 64.5863 88.6849 64.6805 88.5544C64.7512 88.4566 64.869 88.3914 64.9868 88.3914H70.6884C72.3848 88.3914 73.6571 88.7827 74.4581 89.598C75.2827 90.3807 75.6832 91.62 75.6832 93.3159C75.6832 94.653 75.377 95.7619 74.7644 96.6424C74.1518 97.5556 73.3272 98.1426 72.2434 98.4687C72.8089 98.4687 73.3979 98.6644 73.9869 99.121C74.5523 99.545 75.0471 100.197 75.4241 101.013C75.8246 101.86 76.0131 102.839 76.0131 103.948C76.0131 104.567 76.0838 105.22 76.2251 105.904C76.3429 106.589 76.5079 106.981 76.6963 107.046C76.7906 107.079 76.9084 107.111 77.0026 107.111ZM71.9607 96.8055C72.2905 96.0554 72.4555 95.0118 72.4555 93.7399C72.4555 92.2723 72.267 91.1961 71.89 90.5438C71.5131 89.8589 70.924 89.5328 70.1465 89.5328H69.3926C69.2041 89.5328 69.1099 89.6633 69.1099 89.8589V97.523C69.1099 97.6534 69.1334 97.7512 69.1806 97.8165C69.2277 97.8817 69.2984 97.9143 69.3926 97.9143H70.5942C71.1596 97.9143 71.6073 97.5556 71.9607 96.8055ZM92.9625 106.785C93.0803 106.785 93.1745 106.818 93.2688 106.915C93.363 106.981 93.4101 107.111 93.4337 107.242C93.4573 107.437 93.4337 107.6 93.3395 107.763C93.2688 107.894 93.151 107.959 93.0332 107.959H86.7425C86.6247 107.959 86.5305 107.894 86.4362 107.796C86.3656 107.666 86.3184 107.535 86.3184 107.372V107.339C86.3184 107.176 86.3656 107.046 86.4362 106.948C86.5305 106.818 86.6483 106.752 86.7661 106.752L87.4022 106.818C87.897 106.883 88.1326 106.622 88.1326 106.035C88.1326 105.644 88.0384 105.22 87.897 104.73L87.0724 102.024C87.0253 101.893 86.9546 101.828 86.8603 101.828H81.9126C81.842 101.828 81.7713 101.893 81.7242 102.024L80.9702 104.535C80.7582 105.22 80.6404 105.774 80.6404 106.198C80.6404 106.655 80.8053 106.85 81.1587 106.85L81.7948 106.785C81.9126 106.785 82.0069 106.818 82.1011 106.948C82.1954 107.046 82.2425 107.209 82.2425 107.372C82.2425 107.535 82.1954 107.666 82.1011 107.796C82.0304 107.894 81.9362 107.959 81.8184 107.959H78.355C78.2372 107.959 78.143 107.894 78.0487 107.796C77.978 107.666 77.9309 107.535 77.9309 107.372C77.9309 107.209 77.978 107.046 78.0723 106.948C78.143 106.818 78.2608 106.785 78.3786 106.785L78.6142 106.818H78.7084C79.0383 106.818 79.2974 106.589 79.5095 106.198C79.7451 105.709 79.9807 105.057 80.2163 104.274L84.8813 88.7501C85.0697 88.2609 85.3289 88 85.6823 88C85.8708 88 86.0357 88.0652 86.1771 88.1957C86.3184 88.3261 86.4362 88.5218 86.5069 88.7501L91.219 104.339C91.4311 105.122 91.6667 105.741 91.9023 106.231C92.1143 106.622 92.397 106.818 92.7269 106.818H92.8447L92.9625 106.785ZM82.2189 100.262C82.1954 100.36 82.1954 100.458 82.2425 100.523C82.2896 100.621 82.3367 100.654 82.4074 100.654H86.3656C86.4362 100.654 86.4834 100.621 86.5305 100.523C86.5776 100.458 86.5776 100.36 86.554 100.262L84.5514 93.7399C84.5043 93.6094 84.4572 93.5442 84.3629 93.5442C84.2922 93.5442 84.2216 93.6094 84.1744 93.7399L82.2189 100.262ZM109.676 107.111H109.723C109.818 107.111 109.912 107.144 109.959 107.209C110.03 107.307 110.053 107.405 110.053 107.535C110.053 107.666 110.03 107.763 109.959 107.829C109.912 107.926 109.841 107.959 109.747 107.959H107.179C106.755 107.959 106.378 107.763 106.072 107.339C105.742 106.948 105.577 106.426 105.53 105.839V105.807C105.506 105.22 105.483 104.828 105.483 104.535V103.458C105.483 101.991 105.2 100.882 104.587 100.165C103.998 99.4471 103.268 99.0884 102.42 99.0884H102.066C101.972 99.0884 101.901 99.121 101.854 99.1862C101.807 99.2514 101.784 99.3493 101.784 99.4797V106.1C101.784 106.557 101.925 106.818 102.255 106.818L102.962 106.785C103.079 106.785 103.197 106.818 103.291 106.948C103.362 107.046 103.409 107.176 103.409 107.372C103.409 107.535 103.362 107.666 103.291 107.796C103.197 107.894 103.103 107.959 102.985 107.959H97.6604C97.5426 107.959 97.4248 107.894 97.3542 107.796C97.2599 107.666 97.2364 107.535 97.2364 107.372C97.2364 107.209 97.2599 107.046 97.3542 106.948C97.4484 106.818 97.5426 106.785 97.684 106.785L98.061 106.818H98.1081C98.3673 106.818 98.5086 106.557 98.5086 106.1V90.2177C98.5086 90.022 98.4615 89.8589 98.3673 89.7285C98.2966 89.5654 98.1552 89.5328 97.9903 89.5328L97.684 89.5654C97.5426 89.5654 97.4484 89.5328 97.3542 89.4024C97.2599 89.3045 97.2364 89.1414 97.2364 88.9784C97.2364 88.8153 97.2599 88.6849 97.3542 88.5544C97.4248 88.4566 97.5426 88.3914 97.6604 88.3914H103.362C105.058 88.3914 106.331 88.7827 107.132 89.598C107.956 90.3807 108.357 91.62 108.357 93.3159C108.357 94.653 108.051 95.7619 107.438 96.6424C106.825 97.5556 106.001 98.1426 104.917 98.4687C105.483 98.4687 106.072 98.6644 106.661 99.121C107.226 99.545 107.721 100.197 108.098 101.013C108.498 101.86 108.687 102.839 108.687 103.948C108.687 104.567 108.757 105.22 108.899 105.904C109.017 106.589 109.182 106.981 109.37 107.046C109.464 107.079 109.582 107.111 109.676 107.111ZM104.634 96.8055C104.964 96.0554 105.129 95.0118 105.129 93.7399C105.129 92.2723 104.941 91.1961 104.564 90.5438C104.187 89.8589 103.598 89.5328 102.82 89.5328H102.066C101.878 89.5328 101.784 89.6633 101.784 89.8589V97.523C101.784 97.6534 101.807 97.7512 101.854 97.8165C101.901 97.8817 101.972 97.9143 102.066 97.9143H103.268C103.833 97.9143 104.281 97.5556 104.634 96.8055ZM121.207 88.9784C121.207 88.8153 121.254 88.6849 121.348 88.5544C121.419 88.4566 121.513 88.3914 121.631 88.3914H124.576C124.694 88.3914 124.788 88.4566 124.882 88.5544C124.953 88.6849 125 88.8153 125 88.9784C125 89.1414 124.953 89.3045 124.882 89.4024C124.788 89.5002 124.67 89.5654 124.552 89.5654L124.293 89.5328C124.034 89.5328 123.822 89.7611 123.633 90.2177L120.147 98.8275C120.123 98.8927 120.099 98.9905 120.099 99.0884V106.133C120.099 106.589 120.264 106.818 120.571 106.818L121.277 106.785C121.395 106.785 121.489 106.818 121.584 106.948C121.678 107.046 121.702 107.176 121.702 107.372C121.702 107.535 121.678 107.666 121.584 107.796C121.513 107.894 121.395 107.959 121.277 107.959H115.647C115.529 107.959 115.434 107.894 115.34 107.796C115.27 107.666 115.222 107.535 115.222 107.372C115.222 107.176 115.27 107.046 115.34 106.948C115.434 106.818 115.552 106.785 115.67 106.785L116.377 106.818C116.683 106.818 116.825 106.557 116.825 106.1V99.7406C116.825 99.6102 116.825 99.5123 116.777 99.4145L112.772 90.1524C112.584 89.7611 112.395 89.5328 112.183 89.5328L111.971 89.5654C111.83 89.5654 111.735 89.5002 111.641 89.4024C111.547 89.3045 111.5 89.1414 111.5 88.9784C111.5 88.8153 111.547 88.6849 111.641 88.5544C111.712 88.4566 111.806 88.3914 111.924 88.3914H117.484C117.602 88.3914 117.696 88.4566 117.767 88.5544C117.861 88.6849 117.908 88.8153 117.908 88.9784V89.011C117.908 89.1741 117.861 89.3045 117.767 89.4024C117.696 89.5328 117.578 89.598 117.461 89.598L116.636 89.5328H116.612C116.448 89.5328 116.353 89.6633 116.353 89.8589C116.353 89.9894 116.4 90.1524 116.471 90.3155L119.251 96.7076C119.345 96.9033 119.463 97.0012 119.628 97.0012C119.77 97.0012 119.887 96.8707 119.982 96.675L122.62 90.1851C122.668 90.0872 122.691 89.9894 122.691 89.8589C122.691 89.6633 122.597 89.5328 122.455 89.5328L121.654 89.5654C121.537 89.598 121.419 89.5328 121.348 89.4024C121.254 89.3045 121.207 89.1741 121.207 89.011V88.9784Z" fill="#3FC1C9"/>
<path d="M45.7205 61.9677C46.8659 63.6452 47.4386 65.8387 47.4386 68.5484C47.4386 70.871 47.0221 73 46.137 74.871C45.252 76.7419 44.0025 78.2258 42.2845 79.3226C40.5664 80.4839 38.484 81 36.0371 81C34.5273 81 32.8613 80.7419 31.0912 80.1613C29.0608 79.5161 27.7072 79.1935 26.9783 79.1935C26.666 79.1935 26.3015 79.1935 25.885 79.2581H25.833C25.6247 79.3226 25.4686 79.2581 25.3124 79.0645C25.1562 78.871 25.1041 78.6774 25.1041 78.4194C25.1562 77.4516 25.2082 76.1613 25.2082 74.5484C25.2082 72.8065 25.1562 71.1935 25.1041 69.7097C25.1041 69.1935 25.0521 68.7419 25 68.3548C25 68.0968 25.0521 67.8387 25.2082 67.6452C25.3124 67.4516 25.5206 67.3226 25.7289 67.2581C25.9371 67.2581 26.0933 67.3226 26.2495 67.4516C26.4057 67.6452 26.5098 67.8387 26.5618 68.0968C26.9783 71.3871 27.9155 73.9677 29.4252 75.7742C31.0392 77.7097 33.0696 78.6774 35.4644 78.6774C37.2345 78.6774 38.6402 78.0323 39.6814 76.871C40.7226 75.6452 41.2432 74.0323 41.2432 72.0323C41.2432 69 39.5773 66.7419 36.2453 65.129L31.1433 62.4839C27.1345 60.4194 25.1562 57.0645 25.1562 52.4194C25.1562 50.3548 25.5727 48.4194 26.3536 46.6774C27.1866 45 28.384 43.5806 29.9979 42.5484C31.5598 41.5161 33.5381 41 35.8288 41C36.9742 41 37.9633 41.129 38.7443 41.3226C39.5773 41.5161 40.3582 41.8387 41.1912 42.1613C41.9721 42.4839 42.5448 42.7419 42.9092 42.871C43.4819 43.129 44.0025 43.2581 44.4711 43.2581H45.1479C45.3561 43.1935 45.5123 43.2581 45.6685 43.4516C45.7726 43.6452 45.8767 43.8387 45.8767 44.0968C45.8247 45.0645 45.7726 46.3548 45.7726 47.9032C45.7726 49.1935 45.7726 50.0968 45.8247 50.6774C45.8247 50.8065 45.8247 50.9355 45.8767 51.0645C45.8767 51.3871 45.8247 51.6452 45.6685 51.9032C45.5123 52.0968 45.3561 52.2258 45.0958 52.2258H45.0437C44.8355 52.2258 44.6793 52.1613 44.5231 51.9677C44.3669 51.7742 44.3149 51.5806 44.2628 51.3226C44.1587 49.0645 43.3778 47.1935 42.0762 45.7097C40.6185 44.0323 38.7963 43.1935 36.6618 43.1935C35.0479 43.1935 33.6943 43.7097 32.601 44.7419C31.716 45.6452 31.1953 46.7419 30.9871 48.1613C30.7788 49.7097 31.0912 51.129 31.9763 52.2903C32.7051 53.2581 33.8505 54.1613 35.4123 54.9355L39.8376 57.2581C42.5968 58.7419 44.5231 60.2903 45.7205 61.9677ZM84.6835 62.7419C84.9438 62.7419 85.152 62.8065 85.3082 63.0645C85.5164 63.2581 85.6206 63.5161 85.6206 63.8387C85.6206 64.1613 85.5164 64.4194 85.3082 64.6774C85.152 64.871 84.8917 65 84.6314 65L83.9025 64.9355C83.5902 64.9355 83.3819 65.0645 83.1737 65.3226C83.0175 65.5806 82.9134 65.9032 82.9134 66.2903V76.7419C82.9134 77.0645 82.8613 77.3871 82.6531 77.5806C82.4448 77.8387 82.2366 77.9677 81.9242 77.9677C81.4556 77.9677 80.9871 78.0323 80.4665 78.2258L78.5922 79C77.1866 79.5806 75.885 80.0968 74.5835 80.4839C73.334 80.8065 71.8242 81 70.1062 81C65.1083 81 61.2037 79.3226 58.3923 75.9677C55.581 72.5484 54.1753 67.6452 54.1753 61.129C54.1753 54.5484 55.581 49.5161 58.4444 46.0968C61.2557 42.6774 65.3165 41 70.5227 41C72.0325 41 73.3861 41.129 74.5835 41.5161C74.6876 41.5161 74.7917 41.5161 74.8959 41.5806C74.9479 41.5806 75 41.6452 75.1041 41.6452H75.2082C75.5727 41.7742 75.885 41.8387 76.2495 41.9677L76.3015 42.0323H76.4577H76.5098C76.5098 42.0968 76.5618 42.0968 76.5618 42.0968C76.6139 42.0968 76.6139 42.1613 76.6139 42.1613C77.2907 42.4194 77.9675 42.7419 78.5402 43.1935C79.6855 43.9677 80.5706 44.9355 81.1433 46.0323C81.768 47.0645 81.9763 48.2258 81.8201 49.3226C81.6639 50.3548 81.2995 51.129 80.6747 51.7097C80.05 52.2903 79.269 52.4839 78.3319 52.2903C77.551 52.1613 76.9783 51.7742 76.5618 51.2581C76.1454 50.6774 75.9892 49.9677 76.0933 49.129C76.1454 48.8064 76.2495 48.4194 76.4577 47.9677C76.666 47.5806 76.8222 47.1935 76.8742 46.7419C76.9263 46.2903 76.9783 45.9677 76.9783 45.5806C76.718 44.6129 76.0412 43.9677 74.8438 43.5806C73.6985 43.2581 72.449 43.0645 71.0954 43.0645C70.2103 43.0645 69.3773 43.1935 68.5964 43.5161C66.8784 44.2258 65.4727 45.6452 64.4315 47.8387C62.8176 51 62.0366 55.6452 62.0366 61.7097C62.0366 73.0645 64.9 78.7419 70.5748 78.7419C71.6681 78.7419 72.6052 78.5484 73.3861 78.0968C74.2191 77.7097 75 77 75.7289 75.9677V66.3548C75.7289 65.3871 75.3644 64.9355 74.7397 64.9355L72.5531 65C72.2928 65 72.0845 64.9355 71.9284 64.6774C71.7201 64.4839 71.616 64.2258 71.616 63.9032V63.8387C71.616 63.5161 71.7201 63.2581 71.8763 63.0645C72.0845 62.8065 72.2928 62.7419 72.5531 62.7419H84.6835ZM116.15 42.8064C116.15 42.4839 116.254 42.2258 116.462 41.9677C116.618 41.7742 116.826 41.6452 117.087 41.6452H124.063C124.323 41.6452 124.531 41.7742 124.74 41.9677C124.896 42.2258 125 42.4839 125 42.8064C125 43.129 124.896 43.4516 124.74 43.6452C124.531 43.9032 124.323 43.9677 124.011 43.9677L122.97 43.9032H122.865C122.605 43.9032 122.345 44.0323 122.189 44.2903C122.032 44.5484 121.928 44.871 121.928 45.1935V67.1935C121.928 71.5806 120.991 74.9355 119.117 77.3871C117.191 79.7742 114.379 81 110.579 81C101.312 81 96.6264 76.4839 96.6264 67.4516V45.2581C96.6264 44.871 96.5743 44.5484 96.3661 44.2903C96.1578 43.9677 95.9496 43.9032 95.6372 43.9032L94.6481 43.9677C94.3878 43.9677 94.1274 43.9032 93.9713 43.6452C93.763 43.4516 93.6589 43.129 93.6589 42.8064C93.6589 42.4839 93.763 42.2258 93.9192 41.9677C94.1274 41.7742 94.3357 41.6452 94.596 41.6452H106.57C106.83 41.6452 107.039 41.7742 107.195 41.9677C107.403 42.2258 107.507 42.4839 107.507 42.8064V42.871C107.507 43.1935 107.403 43.4516 107.195 43.6452C107.039 43.9032 106.778 44.0323 106.518 43.9677L104.904 43.9032H104.8C104.54 43.9032 104.332 44.0323 104.123 44.2903C103.967 44.5484 103.863 44.871 103.863 45.1935V67.4516C103.863 71.129 104.54 73.8387 105.945 75.6452C107.299 77.4516 109.329 78.3548 111.933 78.3548C114.64 78.3548 116.566 77.3226 117.815 75.3871C119.065 73.3871 119.69 70.6774 119.69 67.1935V45.2581C119.69 44.871 119.586 44.4839 119.429 44.2258C119.221 43.9677 119.013 43.9032 118.753 43.9032L117.139 43.9677C116.878 44.0323 116.618 43.9032 116.462 43.6452C116.254 43.4516 116.15 43.1935 116.15 42.871V42.8064Z" fill="#3FC1C9"/>
</svg>
