<svg width="512" height="512" viewBox="0 0 512 512" fill="none" xmlns="http://www.w3.org/2000/svg">
<g clip-path="url(#clip0_55_168)">
<path d="M256 512C397.385 512 512 397.385 512 256C512 114.615 397.385 0 256 0C114.615 0 0 114.615 0 256C0 397.385 114.615 512 256 512Z" fill="#EB1E34"/>
<path fill-rule="evenodd" clip-rule="evenodd" d="M273.668 376.738V392.935C273.668 405.923 267.195 417.136 255.946 423.63C250.534 426.754 244.494 428.497 238.231 428.5C231.962 428.503 225.924 426.757 220.508 423.63L148.491 382.051C137.241 375.556 130.769 364.346 130.769 351.356V138.945C130.769 119.4 146.668 103.501 166.213 103.501H324.822C344.368 103.501 360.268 119.398 360.268 138.945V183.72C360.268 190.143 355.053 195.359 348.63 195.359C342.205 195.359 336.994 190.144 336.994 183.72V138.945C336.994 132.233 331.533 126.773 324.821 126.773H185.839L255.946 167.256C267.191 173.749 273.668 184.96 273.668 197.945V353.465H324.822C331.533 353.465 336.995 348.007 336.995 341.296V302.045C336.995 295.618 342.202 290.407 348.631 290.407C355.057 290.407 360.269 295.619 360.269 302.045V341.296C360.269 360.842 344.368 376.74 324.823 376.74H273.668V376.738ZM381.504 251.755L368.688 264.571C364.144 269.115 364.145 276.482 368.688 281.027C369.768 282.108 371.05 282.966 372.462 283.55C373.874 284.134 375.388 284.434 376.916 284.432C380.013 284.432 382.957 283.219 385.148 281.027L417.825 248.344C422.368 243.801 422.368 236.437 417.825 231.894L385.148 199.217C380.603 194.672 373.235 194.674 368.689 199.216C364.146 203.756 364.147 211.126 368.689 215.667L381.505 228.48H295.646C289.216 228.48 284.01 233.69 284.01 240.119C284.01 246.548 289.217 251.755 295.646 251.755H381.504Z" fill="white"/>
</g>
<defs>
<clipPath id="clip0_55_168">
<rect width="512" height="512" fill="white"/>
</clipPath>
</defs>
</svg>
