<svg width="200" height="200" viewBox="0 0 200 200" fill="none" xmlns="http://www.w3.org/2000/svg">
<rect width="200" height="200" rx="100" fill="white"/>
<path d="M19.1758 97.0087L17.1392 96.3537V93.7336L18.8848 93.0786C19.7576 89.8035 19.7576 86.2009 18.8848 82.9258L17.1392 81.9432V79.3231L53.5057 60L76.7802 81.2882C80.5623 84.8908 83.4716 97.0087 77.0711 98.3188C75.9074 98.3188 73.289 99.6288 68.3432 100.284L74.7437 103.559V105.524L72.1253 106.179C71.5434 109.127 71.2525 111.747 71.5434 114.694L83.4716 117.314V119.279L82.017 119.607C80.8532 122.882 80.8532 127.467 82.017 130.742H83.4716V132.38L62.5246 135L25.2853 132.38C18.303 131.725 16.5574 120.59 23.5397 116.659C21.2123 116.659 19.4667 116.659 18.8848 116.004C14.8118 112.729 15.1027 100.284 19.1758 97.0087ZM21.7941 115.022L44.4868 112.074C42.1593 106.179 42.7412 99.3013 44.4868 93.4061L20.6304 99.3013C16.2664 100.284 17.1392 115.349 21.7941 115.022ZM62.8155 132.707L81.1442 131.07C79.9804 127.467 80.2714 122.555 81.1442 118.952L63.3973 116.004C54.3785 114.367 53.5057 134.017 62.8155 132.707ZM45.0687 112.074L52.051 113.384C56.7059 112.729 59.9062 112.074 61.6518 112.402L70.9616 114.367C70.6706 111.092 70.9616 108.472 71.8344 105.197L45.0687 93.4061C43.3231 99.3013 42.7412 106.179 45.0687 112.074ZM19.1758 81.6157C20.3395 85.5459 20.6304 88.821 19.4667 92.7511L52.6329 80.6332C54.0875 76.048 53.5057 69.8253 52.6329 65.2402L19.1758 81.6157ZM53.5057 65.2402C54.3785 69.8253 54.9603 76.048 53.5057 80.6332C56.415 82.9258 74.1618 96.0262 76.1983 96.0262C79.9804 96.0262 78.5258 86.2009 76.1983 84.2358L53.5057 65.2402Z" fill="#3FC1C9"/>
<path d="M103.72 88.3225C104.75 89.7902 105.266 91.7096 105.266 94.0806C105.266 96.1128 104.891 97.9757 104.094 99.6128C103.298 101.25 102.173 102.548 100.627 103.508C99.0809 104.524 97.2067 104.976 95.0045 104.976C93.6457 104.976 92.1463 104.75 90.5532 104.242C88.7258 103.677 87.5076 103.395 86.8516 103.395C86.5705 103.395 86.2425 103.395 85.8676 103.452H85.8208C85.6334 103.508 85.4928 103.452 85.3522 103.282C85.2117 103.113 85.1648 102.943 85.1648 102.718C85.2117 101.871 85.2585 100.742 85.2585 99.3306C85.2585 97.8064 85.2117 96.3951 85.1648 95.0967C85.1648 94.6451 85.118 94.2499 85.0711 93.9112C85.0711 93.6854 85.118 93.4596 85.2585 93.2902C85.3522 93.1209 85.5397 93.008 85.7271 92.9515C85.9145 92.9515 86.0551 93.008 86.1956 93.1209C86.3362 93.2902 86.4299 93.4596 86.4768 93.6854C86.8516 96.5644 87.695 98.8225 89.0538 100.403C90.5063 102.097 92.3337 102.943 94.4891 102.943C96.0821 102.943 97.3472 102.379 98.2844 101.363C99.2215 100.29 99.69 98.8789 99.69 97.1289C99.69 94.4757 98.1906 92.4999 95.1919 91.0886L90.6001 88.7741C86.9922 86.9677 85.2117 84.0322 85.2117 79.9677C85.2117 78.1612 85.5865 76.4677 86.2893 74.9435C87.039 73.4757 88.1167 72.2338 89.5692 71.3306C90.9749 70.4273 92.7554 69.9757 94.817 69.9757C95.8479 69.9757 96.7381 70.0886 97.441 70.258C98.1906 70.4273 98.8935 70.7096 99.6432 70.9919C100.346 71.2741 100.861 71.4999 101.189 71.6128C101.705 71.8386 102.173 71.9515 102.595 71.9515H103.204C103.392 71.8951 103.532 71.9515 103.673 72.1209C103.766 72.2902 103.86 72.4596 103.86 72.6854C103.813 73.5322 103.766 74.6612 103.766 76.016C103.766 77.1451 103.766 77.9354 103.813 78.4435C103.813 78.5564 103.813 78.6693 103.86 78.7822C103.86 79.0644 103.813 79.2902 103.673 79.516C103.532 79.6854 103.392 79.7983 103.157 79.7983H103.11C102.923 79.7983 102.782 79.7419 102.642 79.5725C102.501 79.4031 102.454 79.2338 102.408 79.008C102.314 77.0322 101.611 75.3951 100.44 74.0967C99.1277 72.6289 97.4878 71.8951 95.5667 71.8951C94.1142 71.8951 92.896 72.3467 91.912 73.2499C91.1155 74.0402 90.6469 74.9999 90.4595 76.2419C90.2721 77.5967 90.5532 78.8386 91.3497 79.8548C92.0057 80.7015 93.0365 81.4919 94.4422 82.1693L98.4249 84.2015C100.908 85.4999 102.642 86.8548 103.72 88.3225ZM138.786 88.9999C139.021 88.9999 139.208 89.0564 139.348 89.2822C139.536 89.4515 139.63 89.6773 139.63 89.9596C139.63 90.2419 139.536 90.4677 139.348 90.6935C139.208 90.8628 138.974 90.9757 138.739 90.9757L138.083 90.9193C137.802 90.9193 137.615 91.0322 137.427 91.258C137.287 91.4838 137.193 91.766 137.193 92.1048V101.25C137.193 101.532 137.146 101.814 136.959 101.984C136.771 102.21 136.584 102.322 136.303 102.322C135.881 102.322 135.459 102.379 134.991 102.548L133.304 103.226C132.039 103.734 130.868 104.185 129.696 104.524C128.572 104.806 127.213 104.976 125.667 104.976C121.169 104.976 117.654 103.508 115.124 100.572C112.594 97.5806 111.329 93.2902 111.329 87.5886C111.329 81.8306 112.594 77.4273 115.171 74.4354C117.701 71.4435 121.356 69.9757 126.042 69.9757C127.4 69.9757 128.619 70.0886 129.696 70.4273C129.79 70.4273 129.884 70.4273 129.977 70.4838C130.024 70.4838 130.071 70.5402 130.165 70.5402H130.259C130.587 70.6531 130.868 70.7096 131.196 70.8225L131.242 70.8789H131.383H131.43C131.43 70.9354 131.477 70.9354 131.477 70.9354C131.524 70.9354 131.524 70.9919 131.524 70.9919C132.133 71.2177 132.742 71.4999 133.257 71.8951C134.288 72.5725 135.085 73.4193 135.6 74.3789C136.162 75.2822 136.35 76.2983 136.209 77.258C136.069 78.1612 135.741 78.8386 135.178 79.3467C134.616 79.8548 133.913 80.0241 133.07 79.8548C132.367 79.7419 131.852 79.4031 131.477 78.9515C131.102 78.4435 130.961 77.8225 131.055 77.0886C131.102 76.8064 131.196 76.4677 131.383 76.0725C131.57 75.7338 131.711 75.3951 131.758 74.9999C131.805 74.6048 131.852 74.3225 131.852 73.9838C131.617 73.137 131.008 72.5725 129.931 72.2338C128.9 71.9515 127.775 71.7822 126.557 71.7822C125.76 71.7822 125.011 71.8951 124.308 72.1773C122.762 72.7983 121.497 74.0402 120.559 75.9596C119.107 78.7257 118.404 82.7902 118.404 88.0967C118.404 98.0322 120.981 103 126.088 103C127.072 103 127.916 102.831 128.619 102.435C129.368 102.097 130.071 101.476 130.727 100.572V92.1612C130.727 91.3144 130.399 90.9193 129.837 90.9193L127.869 90.9757C127.635 90.9757 127.447 90.9193 127.307 90.6935C127.119 90.5241 127.025 90.2983 127.025 90.016V89.9596C127.025 89.6773 127.119 89.4515 127.26 89.2822C127.447 89.0564 127.635 88.9999 127.869 88.9999H138.786ZM167.106 71.5564C167.106 71.2741 167.199 71.0483 167.387 70.8225C167.527 70.6531 167.715 70.5402 167.949 70.5402H174.228C174.462 70.5402 174.649 70.6531 174.837 70.8225C174.977 71.0483 175.071 71.2741 175.071 71.5564C175.071 71.8386 174.977 72.1209 174.837 72.2902C174.649 72.516 174.462 72.5725 174.181 72.5725L173.244 72.516H173.15C172.916 72.516 172.681 72.6289 172.541 72.8548C172.4 73.0806 172.307 73.3628 172.307 73.6451V92.8951C172.307 96.7338 171.463 99.6693 169.776 101.814C168.043 103.903 165.513 104.976 162.092 104.976C153.752 104.976 149.535 101.024 149.535 93.1209V73.7015C149.535 73.3628 149.488 73.0806 149.301 72.8548C149.113 72.5725 148.926 72.516 148.645 72.516L147.754 72.5725C147.52 72.5725 147.286 72.516 147.145 72.2902C146.958 72.1209 146.864 71.8386 146.864 71.5564C146.864 71.2741 146.958 71.0483 147.098 70.8225C147.286 70.6531 147.473 70.5402 147.708 70.5402H158.484C158.719 70.5402 158.906 70.6531 159.047 70.8225C159.234 71.0483 159.328 71.2741 159.328 71.5564V71.6128C159.328 71.8951 159.234 72.1209 159.047 72.2902C158.906 72.516 158.672 72.6289 158.437 72.5725L156.985 72.516H156.891C156.657 72.516 156.469 72.6289 156.282 72.8548C156.141 73.0806 156.048 73.3628 156.048 73.6451V93.1209C156.048 96.3386 156.657 98.7096 157.922 100.29C159.14 101.871 160.968 102.661 163.31 102.661C165.747 102.661 167.481 101.758 168.605 100.064C169.73 98.3144 170.292 95.9435 170.292 92.8951V73.7015C170.292 73.3628 170.198 73.0241 170.058 72.7983C169.87 72.5725 169.683 72.516 169.448 72.516L167.996 72.5725C167.762 72.6289 167.527 72.516 167.387 72.2902C167.199 72.1209 167.106 71.8951 167.106 71.6128V71.5564Z" fill="#3FC1C9"/>
<path d="M94.3374 127.344C94.4435 127.344 94.5283 127.396 94.6131 127.474C94.6767 127.579 94.7191 127.683 94.7191 127.813V131.388C94.7191 131.544 94.6767 131.649 94.5919 131.727C94.5283 131.831 94.4222 131.883 94.3162 131.857C93.8709 131.857 93.1288 131.831 92.0686 131.831H85.4528C85.3468 131.831 85.2407 131.779 85.1771 131.701C85.0923 131.596 85.0711 131.492 85.0711 131.362V131.336C85.0711 131.205 85.0923 131.101 85.1771 130.996C85.2619 130.918 85.368 130.866 85.474 130.866L85.8981 130.918C86.1101 130.918 86.2161 130.709 86.2161 130.344V117.638C86.2161 117.482 86.1737 117.351 86.0889 117.247C86.0253 117.116 85.9193 117.09 85.8133 117.09L85.474 117.116C85.3468 117.116 85.2619 117.09 85.1771 116.986C85.0923 116.908 85.0711 116.777 85.0711 116.647C85.0711 116.516 85.0923 116.412 85.1771 116.308C85.2407 116.229 85.3468 116.177 85.4528 116.177H90.245C90.351 116.177 90.4358 116.229 90.5206 116.308C90.5843 116.412 90.6267 116.516 90.6267 116.647C90.6267 116.803 90.5843 116.908 90.4994 116.986C90.4358 117.09 90.3298 117.142 90.2238 117.116L89.5876 117.09H89.5452C89.418 117.09 89.3332 117.142 89.2696 117.247C89.1848 117.351 89.1424 117.482 89.1424 117.638V130.553C89.1424 130.788 89.2272 130.892 89.418 130.892H91.178C92.111 130.892 92.8107 130.579 93.2772 129.979C93.7225 129.457 93.9558 128.7 93.9982 127.735C94.0194 127.631 94.0406 127.526 94.1042 127.448C94.1678 127.396 94.2526 127.344 94.3374 127.344ZM102.128 117.247C102.043 117.351 102.022 117.482 102.022 117.638V130.344C102.022 130.762 102.149 130.944 102.446 130.918L102.785 130.892C102.891 130.892 102.997 130.918 103.061 131.022C103.146 131.101 103.188 131.231 103.188 131.362C103.188 131.492 103.146 131.596 103.061 131.701C102.997 131.779 102.912 131.831 102.806 131.831H98.3111C98.2051 131.831 98.0991 131.779 98.0355 131.701C97.9507 131.596 97.9295 131.492 97.9295 131.362C97.9295 131.231 97.9507 131.101 98.0355 131.022C98.1203 130.918 98.2051 130.892 98.3323 130.892L98.6716 130.918H98.714C98.9473 130.918 99.0745 130.709 99.0745 130.344V117.638C99.0745 117.482 99.0321 117.351 98.9685 117.247C98.8837 117.116 98.7988 117.09 98.6716 117.09L98.3323 117.116C98.2051 117.116 98.1203 117.09 98.0355 116.986C97.9507 116.908 97.9295 116.777 97.9295 116.647C97.9295 116.516 97.9507 116.412 98.0355 116.308C98.0991 116.229 98.2051 116.177 98.3111 116.177H102.806C102.912 116.177 102.997 116.229 103.061 116.308C103.146 116.412 103.188 116.516 103.188 116.647C103.188 116.777 103.146 116.908 103.061 116.986C102.997 117.09 102.891 117.116 102.785 117.116L102.446 117.09H102.404C102.276 117.09 102.192 117.142 102.128 117.247ZM117.255 125.517C117.573 126.144 117.743 126.848 117.743 127.605C117.743 130.422 116.174 131.831 113.057 131.831H107.141C107.056 131.831 106.95 131.779 106.886 131.701C106.801 131.596 106.78 131.492 106.78 131.362V131.336C106.78 131.205 106.823 131.101 106.886 131.022C106.971 130.918 107.056 130.892 107.162 130.892L107.798 130.918C108.01 130.918 108.137 130.709 108.137 130.344V117.69C108.137 117.56 108.095 117.456 108.031 117.325C107.968 117.221 107.883 117.169 107.777 117.169L107.162 117.195C107.056 117.195 106.971 117.169 106.886 117.064C106.823 116.986 106.78 116.855 106.78 116.725C106.78 116.595 106.801 116.49 106.886 116.386C106.95 116.308 107.056 116.255 107.141 116.255H113.375C114.562 116.255 115.474 116.568 116.11 117.195C116.725 117.821 117.043 118.76 117.043 119.986C117.043 120.899 116.767 121.682 116.237 122.308C115.771 122.882 115.177 123.248 114.435 123.482C114.414 123.482 114.414 123.482 114.393 123.508C114.393 123.508 114.393 123.535 114.414 123.535C114.414 123.561 114.414 123.561 114.435 123.561C114.965 123.613 115.474 123.795 115.94 124.082C116.492 124.422 116.916 124.917 117.255 125.517ZM111.063 117.482V122.804C111.063 122.934 111.085 123.039 111.169 123.117C111.233 123.195 111.318 123.248 111.403 123.248H112.166C112.802 123.248 113.29 122.987 113.608 122.491C113.905 121.995 114.074 121.213 114.074 120.117C114.074 118.16 113.417 117.169 112.124 117.169H111.318C111.169 117.169 111.085 117.273 111.063 117.482ZM114.096 130.057C114.52 129.509 114.732 128.648 114.732 127.552C114.732 126.352 114.562 125.491 114.223 124.97C113.884 124.422 113.354 124.161 112.675 124.161H111.403C111.318 124.161 111.233 124.213 111.169 124.291C111.085 124.369 111.063 124.474 111.063 124.604V130.553C111.063 130.788 111.148 130.892 111.36 130.892H112.399C113.12 130.892 113.693 130.605 114.096 130.057ZM131.873 131.153H131.916C132.001 131.153 132.086 131.179 132.128 131.231C132.192 131.309 132.213 131.388 132.213 131.492C132.213 131.596 132.192 131.675 132.128 131.727C132.086 131.805 132.022 131.831 131.937 131.831H129.626C129.244 131.831 128.905 131.675 128.629 131.336C128.332 131.022 128.184 130.605 128.142 130.135V130.109C128.12 129.64 128.099 129.327 128.099 129.092V128.231C128.099 127.057 127.845 126.17 127.293 125.596C126.763 125.022 126.106 124.735 125.343 124.735H125.024C124.94 124.735 124.876 124.761 124.834 124.813C124.791 124.865 124.77 124.943 124.77 125.048V130.344C124.77 130.709 124.897 130.918 125.194 130.918L125.83 130.892C125.936 130.892 126.042 130.918 126.127 131.022C126.191 131.101 126.233 131.205 126.233 131.362C126.233 131.492 126.191 131.596 126.127 131.701C126.042 131.779 125.957 131.831 125.851 131.831H121.059C120.953 131.831 120.847 131.779 120.784 131.701C120.699 131.596 120.678 131.492 120.678 131.362C120.678 131.231 120.699 131.101 120.784 131.022C120.868 130.918 120.953 130.892 121.08 130.892L121.42 130.918H121.462C121.695 130.918 121.823 130.709 121.823 130.344V117.638C121.823 117.482 121.78 117.351 121.695 117.247C121.632 117.116 121.505 117.09 121.356 117.09L121.08 117.116C120.953 117.116 120.868 117.09 120.784 116.986C120.699 116.908 120.678 116.777 120.678 116.647C120.678 116.516 120.699 116.412 120.784 116.308C120.847 116.229 120.953 116.177 121.059 116.177H126.191C127.717 116.177 128.862 116.49 129.583 117.142C130.326 117.769 130.686 118.76 130.686 120.117C130.686 121.186 130.41 122.074 129.859 122.778C129.308 123.508 128.566 123.978 127.59 124.239C128.099 124.239 128.629 124.396 129.159 124.761C129.668 125.1 130.114 125.622 130.453 126.274C130.813 126.952 130.983 127.735 130.983 128.622C130.983 129.118 131.047 129.64 131.174 130.188C131.28 130.735 131.428 131.049 131.598 131.101C131.683 131.127 131.789 131.153 131.873 131.153ZM127.336 122.908C127.633 122.308 127.781 121.473 127.781 120.456C127.781 119.282 127.611 118.421 127.272 117.899C126.933 117.351 126.403 117.09 125.703 117.09H125.024C124.855 117.09 124.77 117.195 124.77 117.351V123.482C124.77 123.587 124.791 123.665 124.834 123.717C124.876 123.769 124.94 123.795 125.024 123.795H126.106C126.615 123.795 127.018 123.508 127.336 122.908ZM146.237 130.892C146.343 130.892 146.428 130.918 146.513 130.996C146.598 131.049 146.64 131.153 146.661 131.257C146.683 131.414 146.661 131.544 146.577 131.675C146.513 131.779 146.407 131.831 146.301 131.831H140.639C140.533 131.831 140.449 131.779 140.364 131.701C140.3 131.596 140.258 131.492 140.258 131.362V131.336C140.258 131.205 140.3 131.101 140.364 131.022C140.449 130.918 140.555 130.866 140.661 130.866L141.233 130.918C141.678 130.97 141.89 130.762 141.89 130.292C141.89 129.979 141.806 129.64 141.678 129.248L140.936 127.083C140.894 126.978 140.83 126.926 140.745 126.926H136.292C136.229 126.926 136.165 126.978 136.123 127.083L135.444 129.092C135.253 129.64 135.147 130.083 135.147 130.422C135.147 130.788 135.296 130.944 135.614 130.944L136.186 130.892C136.292 130.892 136.377 130.918 136.462 131.022C136.547 131.101 136.589 131.231 136.589 131.362C136.589 131.492 136.547 131.596 136.462 131.701C136.398 131.779 136.314 131.831 136.208 131.831H133.091C132.985 131.831 132.9 131.779 132.815 131.701C132.751 131.596 132.709 131.492 132.709 131.362C132.709 131.231 132.751 131.101 132.836 131.022C132.9 130.918 133.006 130.892 133.112 130.892L133.324 130.918H133.409C133.706 130.918 133.939 130.735 134.13 130.422C134.342 130.031 134.554 129.509 134.766 128.883L138.964 116.464C139.134 116.073 139.367 115.864 139.685 115.864C139.855 115.864 140.003 115.916 140.13 116.021C140.258 116.125 140.364 116.281 140.427 116.464L144.668 128.935C144.859 129.561 145.071 130.057 145.283 130.449C145.474 130.762 145.728 130.918 146.025 130.918H146.131L146.237 130.892ZM136.568 125.674C136.547 125.752 136.547 125.831 136.589 125.883C136.632 125.961 136.674 125.987 136.738 125.987H140.3C140.364 125.987 140.406 125.961 140.449 125.883C140.491 125.831 140.491 125.752 140.47 125.674L138.667 120.456C138.625 120.352 138.583 120.299 138.498 120.299C138.434 120.299 138.371 120.352 138.328 120.456L136.568 125.674ZM161.28 131.153H161.322C161.407 131.153 161.492 131.179 161.534 131.231C161.598 131.309 161.619 131.388 161.619 131.492C161.619 131.596 161.598 131.675 161.534 131.727C161.492 131.805 161.428 131.831 161.343 131.831H159.032C158.65 131.831 158.311 131.675 158.035 131.336C157.739 131.022 157.59 130.605 157.548 130.135V130.109C157.527 129.64 157.505 129.327 157.505 129.092V128.231C157.505 127.057 157.251 126.17 156.7 125.596C156.169 125.022 155.512 124.735 154.749 124.735H154.431C154.346 124.735 154.282 124.761 154.24 124.813C154.197 124.865 154.176 124.943 154.176 125.048V130.344C154.176 130.709 154.304 130.918 154.6 130.918L155.236 130.892C155.343 130.892 155.449 130.918 155.533 131.022C155.597 131.101 155.639 131.205 155.639 131.362C155.639 131.492 155.597 131.596 155.533 131.701C155.449 131.779 155.364 131.831 155.258 131.831H150.466C150.359 131.831 150.253 131.779 150.19 131.701C150.105 131.596 150.084 131.492 150.084 131.362C150.084 131.231 150.105 131.101 150.19 131.022C150.275 130.918 150.359 130.892 150.487 130.892L150.826 130.918H150.868C151.102 130.918 151.229 130.709 151.229 130.344V117.638C151.229 117.482 151.186 117.351 151.102 117.247C151.038 117.116 150.911 117.09 150.762 117.09L150.487 117.116C150.359 117.116 150.275 117.09 150.19 116.986C150.105 116.908 150.084 116.777 150.084 116.647C150.084 116.516 150.105 116.412 150.19 116.308C150.253 116.229 150.359 116.177 150.466 116.177H155.597C157.124 116.177 158.269 116.49 158.99 117.142C159.732 117.769 160.092 118.76 160.092 120.117C160.092 121.186 159.817 122.074 159.265 122.778C158.714 123.508 157.972 123.978 156.996 124.239C157.505 124.239 158.035 124.396 158.566 124.761C159.074 125.1 159.52 125.622 159.859 126.274C160.22 126.952 160.389 127.735 160.389 128.622C160.389 129.118 160.453 129.64 160.58 130.188C160.686 130.735 160.834 131.049 161.004 131.101C161.089 131.127 161.195 131.153 161.28 131.153ZM156.742 122.908C157.039 122.308 157.187 121.473 157.187 120.456C157.187 119.282 157.018 118.421 156.678 117.899C156.339 117.351 155.809 117.09 155.109 117.09H154.431C154.261 117.09 154.176 117.195 154.176 117.351V123.482C154.176 123.587 154.197 123.665 154.24 123.717C154.282 123.769 154.346 123.795 154.431 123.795H155.512C156.021 123.795 156.424 123.508 156.742 122.908ZM171.657 116.647C171.657 116.516 171.7 116.412 171.784 116.308C171.848 116.229 171.933 116.177 172.039 116.177H174.689C174.795 116.177 174.88 116.229 174.965 116.308C175.029 116.412 175.071 116.516 175.071 116.647C175.071 116.777 175.029 116.908 174.965 116.986C174.88 117.064 174.774 117.116 174.668 117.116L174.435 117.09C174.202 117.09 174.011 117.273 173.841 117.638L170.703 124.526C170.682 124.578 170.661 124.656 170.661 124.735V130.37C170.661 130.735 170.809 130.918 171.085 130.918L171.721 130.892C171.827 130.892 171.912 130.918 171.996 131.022C172.081 131.101 172.102 131.205 172.102 131.362C172.102 131.492 172.081 131.596 171.996 131.701C171.933 131.779 171.827 131.831 171.721 131.831H166.653C166.547 131.831 166.462 131.779 166.377 131.701C166.314 131.596 166.271 131.492 166.271 131.362C166.271 131.205 166.314 131.101 166.377 131.022C166.462 130.918 166.568 130.892 166.674 130.892L167.31 130.918C167.586 130.918 167.713 130.709 167.713 130.344V125.257C167.713 125.152 167.713 125.074 167.671 124.996L164.066 117.586C163.896 117.273 163.727 117.09 163.536 117.09L163.345 117.116C163.218 117.116 163.133 117.064 163.048 116.986C162.963 116.908 162.921 116.777 162.921 116.647C162.921 116.516 162.963 116.412 163.048 116.308C163.112 116.229 163.197 116.177 163.303 116.177H168.307C168.413 116.177 168.498 116.229 168.561 116.308C168.646 116.412 168.689 116.516 168.689 116.647V116.673C168.689 116.803 168.646 116.908 168.561 116.986C168.498 117.09 168.392 117.142 168.286 117.142L167.544 117.09H167.522C167.374 117.09 167.289 117.195 167.289 117.351C167.289 117.456 167.331 117.586 167.395 117.716L169.897 122.83C169.982 122.987 170.088 123.065 170.236 123.065C170.364 123.065 170.47 122.961 170.555 122.804L172.929 117.612C172.972 117.534 172.993 117.456 172.993 117.351C172.993 117.195 172.908 117.09 172.781 117.09L172.06 117.116C171.954 117.142 171.848 117.09 171.784 116.986C171.7 116.908 171.657 116.803 171.657 116.673V116.647Z" fill="#3FC1C9"/>
</svg>
