<svg width="200" height="200" viewBox="0 0 200 200" fill="none" xmlns="http://www.w3.org/2000/svg">
<g clip-path="url(#clip0_88_17)">
<path d="M151.917 147.461V151.606C151.917 153.264 151.503 154.715 150.674 155.544C149.845 156.58 148.601 156.995 146.736 156.995C145.078 156.995 143.627 156.58 142.798 155.751C141.762 154.922 141.347 153.679 141.14 152.228V116.373C141.14 115.544 141.347 114.922 141.762 114.301C142.176 113.679 142.591 113.264 143.42 112.85C144.663 112.021 146.114 111.606 147.565 111.606C148.187 111.606 148.808 111.606 149.43 111.813C150.052 112.021 150.466 112.228 150.881 112.642C151.295 112.85 151.71 113.264 152.124 113.886C152.539 114.301 152.953 114.922 153.368 115.544L167.461 135.233L168.912 137.306V130.052L168.705 117.824C168.705 116.788 168.912 115.959 168.912 115.337C169.119 114.508 169.534 113.886 169.948 113.472C170.363 113.057 170.984 112.642 171.813 112.435C172.435 112.228 173.264 112.021 174.301 112.021C177.824 112.021 179.482 113.886 179.482 117.409V152.435C179.482 153.264 179.275 153.886 179.067 154.508C178.653 155.13 178.238 155.751 177.617 156.166C176.373 156.995 174.922 157.409 173.264 157.409C172.643 157.409 172.021 157.409 171.399 157.202C170.777 156.995 170.363 156.788 169.948 156.373C169.534 155.959 169.119 155.751 168.705 155.13C168.29 154.715 167.876 154.093 167.461 153.472L151.503 130.674V140.415C151.917 143.109 151.917 145.596 151.917 147.461ZM106.529 123.834V116.58C106.529 115.751 106.736 115.13 106.943 114.508C107.15 113.886 107.772 113.264 108.187 112.85C109.223 112.021 110.674 111.606 112.124 111.606H130.777C131.399 111.606 132.228 111.606 132.642 111.813C133.264 112.021 133.679 112.435 134.301 112.85C134.715 113.264 135.13 113.679 135.337 114.301C135.544 114.922 135.751 115.337 135.751 116.166C135.751 117.409 135.544 118.446 135.13 119.275C134.715 120.104 133.886 120.725 132.85 121.14H132.642C132.228 121.14 130.777 121.347 128.29 121.347H117.098V124.663L116.891 129.845H117.927C121.451 129.845 124.56 129.845 127.254 129.637C128.083 129.637 128.912 129.637 129.534 129.845L131.399 130.466C132.435 131.088 133.057 132.539 132.85 134.404C132.85 135.855 132.435 137.098 131.399 137.927C130.57 138.756 129.326 139.171 127.876 139.171H116.684V147.047H131.813C133.264 147.047 134.301 147.461 135.13 148.29C135.959 149.119 136.166 150.363 136.166 151.813C136.166 153.472 135.751 154.715 134.922 155.544C134.093 156.373 132.85 156.995 131.192 156.995H113.782C112.539 156.995 111.295 156.995 110.466 156.788C109.43 156.58 108.601 156.373 108.187 155.959C107.565 155.544 106.943 154.922 106.736 154.301C106.321 153.679 106.114 152.85 106.114 151.813V127.772L106.529 123.834ZM80.2073 124.041V132.746H85.5959C86.6321 132.746 87.2539 132.539 87.8757 132.332C88.9119 132.124 89.9482 131.295 90.57 130.259C90.9845 129.637 91.1917 129.016 91.399 128.394C91.6062 127.772 91.6062 127.15 91.8135 126.528C91.8135 125.285 91.6062 124.456 91.1917 123.627C90.7772 122.798 89.9482 122.176 89.1192 121.762C88.0829 121.14 86.4249 120.933 84.3523 120.933H80.2073V124.041ZM69.2228 152.435C69.2228 149.326 69.2228 141.865 69.4301 130.259V116.995C69.4301 116.373 69.6373 115.959 69.6373 115.337C70.4663 113.057 72.1244 111.813 74.6114 111.606H77.513C79.171 111.606 81.2435 111.606 84.1451 111.399C86.4249 111.399 88.7047 111.606 90.57 112.021C92.6425 112.435 94.5078 113.264 96.1658 114.301C98.4456 115.751 99.8964 117.409 100.933 119.689C101.969 121.762 102.383 124.249 102.383 127.15C102.383 128.808 101.969 130.466 101.554 132.124C100.933 133.782 100.104 135.233 99.0674 136.684C98.0311 138.135 96.7876 139.378 95.3368 140.207C93.886 141.036 92.4352 141.865 90.7772 142.073C89.9482 142.28 88.9119 142.28 87.2539 142.487C85.8031 142.487 83.9378 142.694 81.658 142.694H80V152.228C80 153.886 79.5855 155.13 78.5492 155.959C77.513 156.788 76.2694 157.202 74.4042 157.202C71.0881 156.995 69.2228 155.544 69.2228 152.435ZM52.8498 138.964C53.4715 137.513 53.6788 135.855 53.6788 133.99C53.6788 132.124 53.2643 130.466 52.8498 128.808C52.228 127.15 51.1917 125.907 50.1555 124.87C48.9119 123.627 47.6684 122.798 46.4249 122.383C44.9741 121.762 43.5233 121.554 41.8653 121.554C38.7565 121.554 36.2694 122.798 34.1969 125.285C33.1606 126.528 32.3316 127.979 31.9171 129.43C31.2953 131.088 31.0881 132.746 31.0881 134.819C31.0881 136.684 31.2953 138.549 31.9171 140C32.5389 141.451 33.3679 142.902 34.4042 143.938C35.4404 145.181 36.6839 146.01 38.1347 146.425C39.3782 147.047 41.0363 147.254 42.6943 147.254C45.8031 147.254 48.2902 146.01 50.57 143.316C51.399 141.865 52.228 140.415 52.8498 138.964ZM26.943 117.824C31.5026 113.264 36.6839 111.192 42.2798 111.192C45.3886 111.192 48.0829 111.813 50.7772 112.85C53.4715 113.886 55.7513 115.544 58.0311 117.617C62.3834 121.969 64.6632 127.358 64.6632 133.782C64.6632 137.098 64.0415 140 63.0052 142.902C61.9689 145.596 60.3109 148.29 58.2384 150.57C56.1658 152.85 53.6788 154.508 50.9845 155.751C48.2902 156.995 45.3886 157.409 42.2798 157.409C39.3782 157.409 36.6839 156.995 33.9896 155.959C31.5026 154.922 29.0156 153.472 26.7358 151.399C22.3834 147.254 20.1036 141.865 20.1036 135.44C20.1036 131.917 20.7254 128.808 21.7617 125.907C23.0052 122.591 24.6632 120.104 26.943 117.824Z" fill="white"/>
<path d="M141.14 146.425V116.373C141.14 115.544 141.347 114.922 141.762 114.301C142.176 113.679 142.591 113.264 143.42 112.85C144.663 112.021 146.114 111.606 147.565 111.606C148.186 111.606 148.808 111.606 149.43 111.813C150.052 112.021 150.466 112.228 150.881 112.642C151.295 112.85 151.71 113.264 152.124 113.886C152.539 114.301 152.953 114.922 153.368 115.544L167.461 135.233L168.912 137.306V130.052L168.705 117.824C168.705 116.788 168.912 115.959 168.912 115.337C169.119 114.508 169.534 113.886 169.948 113.472C170.363 113.057 170.984 112.642 171.813 112.435C172.435 112.228 173.264 112.021 174.3 112.021C177.824 112.021 179.482 113.886 179.482 117.409V152.435C179.482 153.264 179.275 153.886 179.067 154.508C178.653 155.13 178.238 155.751 177.617 156.166C176.373 156.995 174.922 157.409 173.264 157.409C172.642 157.409 172.021 157.409 171.399 157.202C170.777 156.995 170.363 156.788 169.948 156.373C169.534 155.959 169.119 155.751 168.705 155.13C168.29 154.715 167.876 154.093 167.461 153.472L151.503 130.674V151.813C151.503 153.472 151.088 154.922 150.259 155.751C149.43 156.788 148.186 157.202 146.321 157.202C144.663 157.202 143.212 156.788 142.383 155.959C141.347 155.13 140.933 153.886 140.725 152.435L141.14 146.425ZM106.528 139.585V116.373C106.528 115.544 106.736 114.922 106.943 114.301C107.15 113.679 107.772 113.057 108.186 112.642C109.223 111.813 110.674 111.399 112.124 111.399H130.777C131.399 111.399 132.228 111.399 132.642 111.606C133.264 111.813 133.679 112.228 134.3 112.642C134.715 113.057 135.129 113.472 135.337 114.093C135.544 114.715 135.751 115.13 135.751 115.959C135.751 117.202 135.544 118.238 135.129 119.067C134.715 119.896 133.886 120.518 132.85 120.933H132.642C132.228 120.933 130.777 121.14 128.29 121.14H117.098V124.456L116.891 129.637H117.927C121.451 129.637 124.56 129.637 127.254 129.43C128.083 129.43 128.912 129.43 129.534 129.637L131.399 130.259C132.435 130.881 133.057 132.332 132.85 134.197C132.85 135.648 132.435 136.891 131.399 137.72C130.57 138.549 129.326 138.964 127.876 138.964H116.684V146.839H131.813C133.264 146.839 134.3 147.254 135.129 148.083C135.958 148.912 136.166 150.155 136.166 151.606C136.166 153.264 135.751 154.508 134.922 155.337C134.093 156.166 132.85 156.788 131.192 156.788H113.782C112.539 156.788 111.295 156.788 110.466 156.58C109.43 156.373 108.601 156.166 108.186 155.751C107.565 155.337 106.943 154.715 106.736 154.093C106.321 153.472 106.114 152.642 106.114 151.606V143.316L106.528 139.585ZM69.2228 117.824V116.995C69.2228 116.373 69.43 115.959 69.43 115.337C70.259 113.057 71.9171 111.813 74.4041 111.606H77.3056L83.9378 111.399C86.2176 111.399 88.4974 111.606 90.3626 112.021C92.4352 112.435 94.3005 113.264 95.9585 114.301C98.2383 115.751 99.6891 117.409 100.725 119.689C101.762 121.762 102.176 124.249 102.176 127.15C102.176 128.808 101.762 130.466 101.347 132.124C100.725 133.782 99.8963 135.233 98.8601 136.684C97.8238 138.135 96.5803 139.378 95.1295 140.207C93.6787 141.036 92.2279 141.865 90.5699 142.073C89.7409 142.28 88.7046 142.28 87.0466 142.487C85.5958 142.487 83.7305 142.694 81.4507 142.694H79.7927V152.228C79.7927 153.886 79.3782 155.13 78.3419 155.959C77.3056 156.788 76.0621 157.202 74.1968 157.202C70.6735 157.202 68.8082 155.751 68.8082 152.642C68.8082 149.534 68.8082 142.073 69.0155 130.466V118.653L69.2228 117.824ZM26.943 117.824C31.5025 113.264 36.6839 111.192 42.2797 111.192C45.3886 111.192 48.0829 111.813 50.7772 112.85C53.4715 113.886 55.7513 115.544 58.031 117.617C62.3834 121.969 64.6632 127.358 64.6632 133.782C64.6632 137.098 64.0414 140 63.0051 142.902C61.9689 145.596 60.3108 148.29 58.2383 150.57C56.1658 152.85 53.6787 154.508 50.9844 155.751C48.2901 156.995 45.3886 157.409 42.2797 157.409C39.3782 157.409 36.6839 156.995 33.9896 155.959C31.5025 154.922 29.0155 153.472 26.7357 151.399C22.3834 147.254 20.1036 141.865 20.1036 135.44C20.1036 131.917 20.7253 128.808 21.7616 125.907C23.0051 122.591 24.6632 120.104 26.943 117.824ZM10.1554 90.0518V178.342C10.1554 178.964 10.3626 179.585 10.7772 180C11.1917 180.415 11.8134 180.622 12.4352 180.622H187.15C187.772 180.622 188.394 180.415 188.808 180C189.223 179.585 189.43 178.964 189.43 178.342V90.0518C189.43 89.4301 189.223 88.8083 188.808 88.3938C188.394 87.9793 187.772 87.772 187.15 87.772H12.4352C11.8134 87.772 11.1917 87.9793 10.7772 88.3938C10.5699 88.8083 10.1554 89.4301 10.1554 90.0518Z" fill="#3CC440"/>
<path d="M34.1969 125.078C33.1607 126.321 32.3317 127.772 31.9171 129.223C31.2954 130.881 31.0881 132.539 31.0881 134.611C31.0881 136.477 31.2954 138.342 31.9171 139.793C32.5389 141.244 33.3679 142.694 34.4042 143.731C35.4405 144.974 36.684 145.803 38.1348 146.218C39.3783 146.839 41.0363 147.047 42.6944 147.047C45.8032 147.047 48.2902 145.803 50.57 143.109C51.6063 141.865 52.4353 140.414 53.057 138.756C53.6788 137.306 53.8861 135.648 53.8861 133.782C53.8861 131.917 53.4716 130.259 53.057 128.601C52.228 127.15 51.1918 125.907 50.1555 124.87C48.912 123.627 47.6684 122.798 46.4249 122.383C44.9741 121.762 43.5234 121.554 41.8653 121.554C38.7565 121.347 36.2695 122.591 34.1969 125.078ZM80.2073 124.041V132.746H85.5959C86.6322 132.746 87.2539 132.539 87.8757 132.332C88.912 132.124 89.9482 131.295 90.57 130.259C90.9845 129.637 91.1918 129.016 91.399 128.394C91.6063 127.772 91.6063 127.15 91.8135 126.528C91.8135 125.285 91.6063 124.456 91.1918 123.627C90.7773 122.798 89.9482 122.176 89.1192 121.762C88.083 121.14 86.4249 120.933 84.3524 120.933H80.2073V124.041Z" fill="#3CC440"/>
<path d="M99.8964 34.5078C101.969 34.5078 103.834 33.6788 105.078 32.4352L105.285 32.228C106.736 30.7772 107.565 28.9119 107.565 26.8394C107.565 24.7668 106.736 22.9016 105.285 21.4508C103.834 20 101.969 19.171 99.8964 19.171C97.8239 19.171 95.9586 20 94.5078 21.4508C93.057 22.9016 92.228 24.7668 92.228 26.8394C92.228 28.9119 93.057 30.7772 94.5078 32.228C95.9586 33.6788 97.8239 34.5078 99.8964 34.5078Z" fill="#FFE749"/>
<path d="M196.269 81.1399C193.99 78.8601 190.881 77.4093 187.358 77.4093H168.29L117.72 24.7668C117.306 20.6218 115.44 17.0984 112.539 14.1969C109.223 10.8808 104.87 9.01554 99.8964 9.01554C94.9223 9.01554 90.3627 11.0881 87.2539 14.1969C84.5596 16.8912 82.6943 20.6218 82.0725 24.7668L31.5026 77.4093H12.6425C9.11917 77.4093 6.01036 78.8601 3.73057 81.1399C1.45078 83.4197 0 86.5285 0 90.0518V178.342C0 181.865 1.45078 184.974 3.73057 187.254C6.01036 189.534 9.11917 190.984 12.6425 190.984H187.358C190.881 190.984 193.99 189.534 196.269 187.254C198.549 184.974 200 181.865 200 178.342V90.0518C200 86.5285 198.549 83.4197 196.269 81.1399ZM94.5078 21.4508C95.9585 20 97.8238 19.171 99.8964 19.171C101.969 19.171 103.834 20 105.285 21.4508C106.736 22.9016 107.565 24.7668 107.565 26.8394C107.565 28.9119 106.736 30.7772 105.285 32.228L105.078 32.4352C103.627 33.6788 101.969 34.5078 99.8964 34.5078C97.8238 34.5078 95.9585 33.6788 94.5078 32.228C93.057 30.7772 92.228 28.9119 92.228 26.8394C92.228 24.7668 93.057 22.9016 94.5078 21.4508ZM84.7668 36.7876C85.3886 37.8238 86.2176 38.8601 87.0466 39.6891C90.3627 43.0052 94.715 44.8705 99.6891 44.8705C104.456 44.8705 108.808 43.0052 112.124 39.8964C112.332 39.8964 112.332 39.6891 112.539 39.6891C113.368 38.8601 114.197 37.8238 114.819 36.7876L153.99 77.4093H45.8031L84.7668 36.7876ZM189.637 178.342C189.637 178.964 189.43 179.585 189.016 180C188.601 180.415 187.979 180.622 187.358 180.622H12.4352C11.8135 180.622 11.1917 180.415 10.7772 180C10.3627 179.585 10.1554 178.964 10.1554 178.342V90.0518C10.1554 89.4301 10.3627 88.8083 10.7772 88.3938C11.1917 87.9793 11.8135 87.772 12.4352 87.772H187.15C187.772 87.772 188.394 87.9793 188.808 88.3938C189.223 88.8083 189.43 89.4301 189.43 90.0518V178.342H189.637Z" fill="#983C2A"/>
</g>
<defs>
<clipPath id="clip0_88_17">
<rect width="200" height="200" fill="white"/>
</clipPath>
</defs>
</svg>
