<svg width="512" height="512" viewBox="0 0 512 512" fill="none" xmlns="http://www.w3.org/2000/svg">
<g clip-path="url(#clip0_55_187)">
<path d="M500.777 55.417V222.017H413.903V55.4159C414.031 46.8672 416.671 38.5451 421.494 31.4854C426.316 24.4258 433.109 18.9405 441.026 15.7123C448.942 12.4856 457.633 11.6587 466.017 13.3345C474.4 15.0103 482.105 19.1148 488.173 25.1371C492.171 29.1009 495.342 33.8177 497.506 39.0149C499.669 44.2121 500.781 49.7865 500.776 55.4159L500.777 55.417Z" fill="#FEDB41"/>
<path d="M67.4719 460.138V460.354C36.1595 459.577 11.1924 433.954 11.2227 402.636V350.776H296.366V401.47C296.537 431.995 319.878 457.399 350.283 460.138H67.4719Z" fill="#00ACEA"/>
<path d="M350.283 460.138C319.877 457.399 296.538 431.994 296.366 401.47V350.776H82.7673L84.8098 51.837C84.8358 46.4996 85.9148 41.2198 87.9849 36.3002C90.0551 31.3806 93.0758 26.9179 96.8738 23.1678C100.672 19.4177 105.173 16.454 110.118 14.4465C115.064 12.439 120.357 11.4272 125.694 11.469H457.338V12.4903C451.665 12.4486 446.039 13.5268 440.784 15.663C435.529 17.7992 430.746 20.9516 426.711 24.9393C422.676 28.9271 419.468 33.6719 417.27 38.9018C415.072 44.1318 413.928 49.7441 413.903 55.417V401.468C413.845 416.951 407.707 431.791 396.81 442.79C390.81 448.927 383.528 453.664 375.485 456.663C367.443 459.662 358.837 460.848 350.283 460.137V460.138Z" fill="#00EFD1"/>
<path d="M465.737 1.89831C463.979 0.818583 461.957 0.246425 459.894 0.245209H125.694C96.9617 0.246331 73.5871 23.3875 73.5871 51.7562L71.6187 339.552H11.2227C5.02442 339.552 2.30593e-05 344.576 2.30593e-05 350.774V402.636C-0.0302782 440.052 29.8063 470.656 67.2093 471.572C67.7873 471.585 68.3843 471.598 68.9757 471.598C69.7434 471.598 70.5099 471.519 71.264 471.362H349.973C351.678 471.489 353.413 471.564 355.141 471.564C393.75 471.353 424.979 440.073 425.125 401.465V233.24H500.777C506.976 233.24 512 228.216 512 222.018V55.4159C512.016 48.3067 510.618 41.2653 507.887 34.7017C505.156 28.1381 501.146 22.1836 496.091 17.1847C487.869 8.97321 477.23 3.61532 465.737 1.89831ZM22.4454 402.636V361.998H285.144V401.47C285.186 419.074 291.864 436.016 303.845 448.916H67.4371C66.9108 448.92 66.3844 448.964 65.8671 449.039C41.3668 447.553 22.3006 427.18 22.4454 402.636ZM402.68 55.417V401.468C402.54 427.088 382.268 448.06 356.667 449.082C356.059 448.975 355.443 448.921 354.825 448.919H350.858C326.404 446.53 307.716 426.036 307.589 401.47V350.773C307.589 344.575 302.566 339.551 296.366 339.551H94.064L96.0325 51.8392C96.1952 35.6056 109.46 22.5682 125.694 22.6906H413.827C406.595 32.0663 402.675 43.5761 402.68 55.417ZM489.555 210.794H425.125V55.4159C425.254 49.0855 427.237 42.9319 430.829 37.7175C434.42 32.5031 439.463 28.4569 445.332 26.0803C451.2 23.7036 457.638 23.1009 463.845 24.3468C470.053 25.5927 475.759 28.6325 480.257 33.0895C483.21 36.0083 485.553 39.4856 487.15 43.3189C488.746 47.1521 489.563 51.2647 489.555 55.417V210.794Z" fill="#083863"/>
<path d="M144.088 121.833H250.38C256.575 121.833 261.603 116.808 261.603 110.61C261.603 104.411 256.575 99.3875 250.38 99.3875H144.088C137.889 99.3875 132.865 104.411 132.865 110.61C132.865 116.808 137.889 121.833 144.088 121.833ZM342.358 179.62H144.088C137.889 179.62 132.865 184.644 132.865 190.842C132.865 197.037 137.889 202.065 144.088 202.065H342.357C348.555 202.065 353.58 197.037 353.58 190.842C353.58 184.644 348.556 179.62 342.358 179.62ZM342.358 259.862H144.088C137.889 259.862 132.865 264.886 132.865 271.084C132.865 277.279 137.889 282.307 144.088 282.307H342.357C348.555 282.307 353.58 277.279 353.58 271.084C353.58 264.886 348.556 259.862 342.358 259.862Z" fill="#083863"/>
</g>
<defs>
<clipPath id="clip0_55_187">
<rect width="512" height="512" fill="white"/>
</clipPath>
</defs>
</svg>
