<svg width="100" height="100" viewBox="0 0 100 100" fill="none" xmlns="http://www.w3.org/2000/svg">
<path fill-rule="evenodd" clip-rule="evenodd" d="M49.9998 0C77.6139 0 99.9998 22.3803 99.9998 50.0068C99.9998 77.6195 77.6139 99.9998 49.9998 99.9998C22.3857 99.9998 0 77.6205 0 50.0068C0 22.3803 22.3873 0 49.9998 0Z" fill="#4CAF50"/>
<path fill-rule="evenodd" clip-rule="evenodd" d="M54.4113 33.6518C55.979 33.6516 57.5313 33.9603 58.9796 34.5602C60.428 35.1601 61.744 36.0394 62.8524 37.1479C63.9609 38.2565 64.8401 39.5725 65.4399 41.0209C66.0397 42.4693 66.3483 44.0216 66.348 45.5893C66.3526 45.991 66.5154 46.3747 66.801 46.6571C67.0867 46.9396 67.4722 47.098 67.8739 47.098C68.2756 47.098 68.6612 46.9396 68.9468 46.6571C69.2325 46.3747 69.3953 45.991 69.3998 45.5893C69.398 41.6148 67.8183 37.8036 65.0077 34.9933C62.1972 32.183 58.3858 30.6037 54.4113 30.6023C54.2097 30.6001 54.0096 30.6378 53.8226 30.7134C53.6356 30.789 53.4655 30.9009 53.3221 31.0427C53.1787 31.1845 53.0649 31.3533 52.9872 31.5394C52.9095 31.7255 52.8695 31.9252 52.8695 32.1269C52.8695 32.3285 52.9095 32.5282 52.9872 32.7143C53.0649 32.9004 53.1787 33.0692 53.3221 33.211C53.4655 33.3528 53.6356 33.4647 53.8226 33.5403C54.0096 33.6159 54.2097 33.6537 54.4113 33.6514V33.6518ZM52.108 43.4131C51.9064 43.4154 51.7063 43.3776 51.5193 43.302C51.3323 43.2264 51.1622 43.1145 51.0188 42.9727C50.8754 42.8309 50.7616 42.6621 50.6839 42.476C50.6061 42.2899 50.5661 42.0902 50.5661 41.8886C50.5661 41.6869 50.6061 41.4872 50.6839 41.3012C50.7616 41.1151 50.8754 40.9462 51.0188 40.8044C51.1622 40.6626 51.3323 40.5507 51.5193 40.4751C51.7063 40.3995 51.9064 40.3618 52.108 40.3641C53.1365 40.3635 54.1551 40.5656 55.1054 40.9589C56.0558 41.3522 56.9193 41.9289 57.6467 42.6561C58.374 43.3832 58.9509 44.2466 59.3444 45.1969C59.738 46.1471 59.9403 47.1656 59.94 48.1941C59.9355 48.5958 59.7727 48.9795 59.4871 49.262C59.2014 49.5444 58.8159 49.7029 58.4142 49.7029C58.0124 49.7029 57.6269 49.5444 57.3413 49.262C57.0556 48.9795 56.8928 48.5958 56.8883 48.1941C56.8885 47.5664 56.7651 46.9447 56.525 46.3646C56.2849 45.7846 55.9329 45.2575 55.4891 44.8135C55.0453 44.3695 54.5183 44.0174 53.9383 43.7771C53.3584 43.5368 52.7368 43.4131 52.109 43.4131H52.108ZM62.0346 81.1361C57.2148 80.285 52.4586 78.0738 48.307 75.5381C43.5047 72.6014 39.0189 68.9408 35.04 64.9607C31.0611 60.9807 27.399 56.4979 24.4623 51.691C21.9287 47.54 19.7117 42.7824 18.8652 37.9652C18.6619 36.8876 18.7232 35.7767 19.0439 34.7279C19.3848 33.6899 19.9692 32.7485 20.7482 31.9824L27.1053 25.6272C27.403 25.3314 27.8056 25.1654 28.2253 25.1654C28.645 25.1654 29.0476 25.3314 29.3453 25.6272L40.765 37.0445C41.0602 37.3429 41.2258 37.7456 41.2258 38.1653C41.2258 38.585 41.0602 38.9878 40.765 39.2861L34.6959 45.357C34.2636 45.7864 33.9983 46.3556 33.9477 46.9628C33.897 47.57 34.0643 48.1753 34.4195 48.6703C36.7674 51.9147 39.379 54.9598 42.2277 57.7746C45.0408 60.6246 48.0859 63.2359 51.3314 65.5816C51.8256 65.9377 52.4306 66.1057 53.0376 66.0553C53.6446 66.005 54.2137 65.7395 54.6424 65.3068L60.7166 59.2365C60.8629 59.0894 61.0371 58.9728 61.2289 58.8936C61.4206 58.8143 61.6263 58.7739 61.8338 58.7748C62.2544 58.7741 62.6582 58.9401 62.9566 59.2365L74.375 70.6545C74.6702 70.9527 74.8357 71.3554 74.8357 71.775C74.8357 72.1946 74.6702 72.5973 74.375 72.8955L68.0178 79.2514C67.257 80.0399 66.3109 80.6254 65.2659 80.9546C64.2208 81.2839 63.1099 81.3462 62.0346 81.1361ZM54.4113 21.7984C54.0071 21.7984 53.6194 21.6379 53.3336 21.352C53.0478 21.0662 52.8872 20.6785 52.8872 20.2743C52.8872 19.8701 53.0478 19.4824 53.3336 19.1966C53.6194 18.9108 54.0071 18.7502 54.4113 18.7502C57.9359 18.75 61.426 19.4441 64.6824 20.7928C67.9387 22.1416 70.8975 24.1185 73.3897 26.6108C75.882 29.1031 77.8589 32.0619 79.2076 35.3182C80.5563 38.5745 81.2504 42.0647 81.2502 45.5893C81.2502 45.994 81.0894 46.3821 80.8032 46.6683C80.5171 46.9545 80.1289 47.1152 79.7242 47.1152C79.3195 47.1152 78.9314 46.9545 78.6452 46.6683C78.359 46.3821 78.1982 45.994 78.1982 45.5893C78.1987 39.2801 75.6929 33.2291 71.232 28.7675C66.7711 24.3058 60.7205 21.799 54.4113 21.7984Z" fill="white"/>
</svg>
