<svg width="200" height="200" viewBox="0 0 200 200" fill="none" xmlns="http://www.w3.org/2000/svg">
<path d="M184.656 141.125L117.313 80.9688C116.733 80.4238 115.967 80.1204 115.172 80.1204C114.376 80.1204 113.611 80.4238 113.031 80.9688L99.375 94.75C98.821 95.3312 98.5119 96.1033 98.5119 96.9063C98.5119 97.7092 98.821 98.4813 99.375 99.0625L159.375 166.375C160.992 168.198 162.966 169.669 165.176 170.696C167.385 171.723 169.783 172.284 172.219 172.344H172.719C175.046 172.339 177.349 171.872 179.495 170.971C181.64 170.07 183.586 168.752 185.219 167.094C186.943 165.377 188.298 163.326 189.201 161.066C190.103 158.807 190.534 156.386 190.467 153.954C190.399 151.522 189.835 149.129 188.809 146.923C187.783 144.717 186.317 142.744 184.5 141.125H184.656Z" fill="#07485E"/>
<path d="M137.5 61.1562L101.969 25.7187C101.678 25.4258 101.333 25.1934 100.952 25.0347C100.571 24.8761 100.163 24.7944 99.75 24.7944C99.3375 24.7944 98.929 24.8761 98.5482 25.0347C98.1674 25.1934 97.8218 25.4258 97.5312 25.7187L44 79.25C43.7071 79.5405 43.4746 79.8861 43.316 80.2669C43.1573 80.6478 43.0756 81.0562 43.0756 81.4687C43.0756 81.8813 43.1573 82.2897 43.316 82.6705C43.4746 83.0514 43.7071 83.397 44 83.6875L79.4375 119.125C80.0196 119.702 80.8052 120.028 81.625 120.031C82.0363 120.034 82.444 119.955 82.8247 119.799C83.2054 119.644 83.5517 119.415 83.8437 119.125L137.5 65.625C137.798 65.334 138.034 64.9864 138.196 64.6027C138.357 64.219 138.44 63.8069 138.44 63.3906C138.44 62.9743 138.357 62.5622 138.196 62.1786C138.034 61.7949 137.798 61.4473 137.5 61.1562Z" fill="#FFB454"/>
<path d="M148.156 48.3125L113.188 13.3438C110.78 10.9469 107.522 9.60126 104.125 9.60126C100.728 9.60126 97.4696 10.9469 95.0625 13.3438L90.125 18.3125C89.543 18.898 89.2163 19.69 89.2163 20.5156C89.2163 21.3412 89.543 22.1332 90.125 22.7188L138.781 71.375C139.072 71.6679 139.417 71.9004 139.798 72.059C140.179 72.2177 140.587 72.2994 141 72.2994C141.413 72.2994 141.821 72.2177 142.202 72.059C142.583 71.9004 142.928 71.6679 143.219 71.375L148.156 66.4375C149.347 65.2477 150.291 63.8349 150.936 62.2799C151.58 60.7249 151.912 59.0582 151.912 57.375C151.912 55.6918 151.58 54.0251 150.936 52.4701C150.291 50.9151 149.347 49.5023 148.156 48.3125ZM41 71.875C40.4145 71.293 39.6225 70.9663 38.7969 70.9663C37.9713 70.9663 37.1793 71.293 36.5938 71.875L31.625 76.8125C30.4344 78.0023 29.49 79.4151 28.8456 80.9701C28.2013 82.5251 27.8696 84.1918 27.8696 85.875C27.8696 87.5582 28.2013 89.2249 28.8456 90.7799C29.49 92.3349 30.4344 93.7476 31.625 94.9375L66.5938 129.875C67.7836 131.066 69.1964 132.01 70.7514 132.654C72.3063 133.299 73.973 133.63 75.6563 133.63C77.3395 133.63 79.0062 133.299 80.5611 132.654C82.1161 132.01 83.5289 131.066 84.7188 129.875L89.6563 125C89.9492 124.709 90.1816 124.364 90.3403 123.983C90.4989 123.602 90.5806 123.194 90.5806 122.781C90.5806 122.369 90.4989 121.96 90.3403 121.579C90.1816 121.199 89.9492 120.853 89.6563 120.563L41 71.875Z" fill="#07485E"/>
<path d="M101.062 155.781H29.3125C27.5866 155.781 26.1875 157.18 26.1875 158.906V168.438C26.1875 170.163 27.5866 171.563 29.3125 171.563H101.062C102.788 171.563 104.188 170.163 104.188 168.438V158.906C104.188 157.18 102.788 155.781 101.062 155.781Z" fill="#FFD845"/>
<path d="M117.875 184.375H112.063V168.438C112.063 167.609 111.733 166.814 111.147 166.228C110.561 165.642 109.766 165.313 108.938 165.313H21.4375C20.6087 165.313 19.8138 165.642 19.2278 166.228C18.6417 166.814 18.3125 167.609 18.3125 168.438V184.375H12.5C11.6712 184.375 10.8763 184.704 10.2903 185.29C9.70424 185.876 9.375 186.671 9.375 187.5C9.375 188.329 9.70424 189.124 10.2903 189.71C10.8763 190.296 11.6712 190.625 12.5 190.625H117.875C118.704 190.625 119.499 190.296 120.085 189.71C120.671 189.124 121 188.329 121 187.5C121 186.671 120.671 185.876 120.085 185.29C119.499 184.704 118.704 184.375 117.875 184.375Z" fill="#FFB454"/>
<path d="M184.656 141.125L119.781 83.1563L135.187 67.7813L138.781 71.375C139.072 71.6679 139.417 71.9004 139.798 72.059C140.179 72.2177 140.587 72.2994 141 72.2994C141.413 72.2994 141.821 72.2177 142.202 72.059C142.583 71.9004 142.928 71.6679 143.219 71.375L148.156 66.4375C149.347 65.2477 150.291 63.8349 150.936 62.2799C151.58 60.7249 151.912 59.0582 151.912 57.375C151.912 55.6918 151.58 54.0251 150.936 52.4701C150.291 50.9151 149.347 49.5023 148.156 48.3125L113.188 13.3438C110.78 10.9469 107.522 9.60126 104.125 9.60126C100.728 9.60126 97.4696 10.9469 95.0625 13.3438L90.125 18.3125C89.543 18.898 89.2163 19.69 89.2163 20.5156C89.2163 21.3412 89.543 22.1332 90.125 22.7188L95.3438 27.9375L46.2187 77.0625L41 71.875C40.4145 71.293 39.6225 70.9663 38.7969 70.9663C37.9713 70.9663 37.1793 71.293 36.5938 71.875L31.625 76.8125C30.4344 78.0023 29.49 79.4151 28.8456 80.9701C28.2013 82.5251 27.8696 84.1918 27.8696 85.875C27.8696 87.5582 28.2013 89.2249 28.8456 90.7799C29.49 92.3349 30.4344 93.7476 31.625 94.9375L66.5937 129.875C67.7836 131.066 69.1964 132.01 70.7514 132.654C72.3063 133.299 73.973 133.63 75.6562 133.63C77.3394 133.63 79.0062 133.299 80.5611 132.654C82.1161 132.01 83.5289 131.066 84.7188 129.875L89.6563 125C89.9492 124.709 90.1816 124.364 90.3403 123.983C90.4989 123.602 90.5806 123.194 90.5806 122.781C90.5806 122.369 90.4989 121.96 90.3403 121.579C90.1816 121.199 89.9492 120.853 89.6563 120.563L86.0625 116.969L101.437 101.562L159.375 166.375C161.001 168.18 162.977 169.636 165.182 170.654C167.388 171.672 169.777 172.232 172.205 172.299C174.634 172.366 177.05 171.94 179.309 171.045C181.567 170.15 183.62 168.806 185.344 167.094C187.058 165.372 188.404 163.321 189.302 161.064C190.199 158.806 190.629 156.39 190.565 153.962C190.5 151.534 189.943 149.144 188.928 146.937C187.912 144.731 186.459 142.753 184.656 141.125ZM99.5 17.7813C100.755 16.5596 102.436 15.8759 104.188 15.8759C105.939 15.8759 107.62 16.5596 108.875 17.7813L143.75 52.75C144.37 53.3632 144.862 54.0932 145.198 54.8978C145.534 55.7024 145.706 56.5656 145.706 57.4375C145.706 58.3094 145.534 59.1726 145.198 59.9772C144.862 60.7818 144.37 61.5118 143.75 62.125L141 64.875L96.875 20.5L99.5 17.7813ZM80.2813 125.469C79.6681 126.089 78.9381 126.581 78.1334 126.916C77.3288 127.252 76.4656 127.425 75.5938 127.425C74.7219 127.425 73.8587 127.252 73.0541 126.916C72.2495 126.581 71.5194 126.089 70.9063 125.469L36.0625 90.625C35.4484 90.015 34.9611 89.2895 34.6286 88.4904C34.2961 87.6913 34.1249 86.8343 34.125 85.9688C34.1113 85.092 34.2759 84.2215 34.609 83.4103C34.9421 82.5991 35.4366 81.8641 36.0625 81.25L38.7812 78.5L83.0312 122.719L80.2813 125.469ZM50.625 81.4687L99.75 32.3438L130.75 63.3438L81.625 112.5L50.625 81.4687ZM180.969 162.719C179.844 163.828 178.506 164.698 177.036 165.278C175.567 165.857 173.995 166.133 172.416 166.089C170.836 166.045 169.282 165.682 167.847 165.023C166.411 164.363 165.124 163.42 164.062 162.25L105.875 97.0937L115.25 87.7187L180.5 145.781C181.67 146.843 182.613 148.13 183.273 149.566C183.932 151.001 184.295 152.555 184.339 154.134C184.383 155.714 184.107 157.285 183.528 158.755C182.948 160.225 182.078 161.563 180.969 162.688V162.719ZM117.875 184.375H112.063V168.438C112.063 167.609 111.733 166.814 111.147 166.228C110.561 165.642 109.766 165.313 108.938 165.313H104.188V159.063C104.188 158.234 103.858 157.439 103.272 156.853C102.686 156.267 101.891 155.938 101.063 155.938H29.1875C28.3587 155.938 27.5638 156.267 26.9778 156.853C26.3917 157.439 26.0625 158.234 26.0625 159.063V165.313H21.4375C20.6087 165.313 19.8138 165.642 19.2278 166.228C18.6417 166.814 18.3125 167.609 18.3125 168.438V184.375H12.5C11.6712 184.375 10.8763 184.704 10.2903 185.29C9.70424 185.876 9.375 186.671 9.375 187.5C9.375 188.329 9.70424 189.124 10.2903 189.71C10.8763 190.296 11.6712 190.625 12.5 190.625H117.875C118.704 190.625 119.499 190.296 120.085 189.71C120.671 189.124 121 188.329 121 187.5C121 186.671 120.671 185.876 120.085 185.29C119.499 184.704 118.704 184.375 117.875 184.375ZM32.4375 162.031H98.0625V165.156H32.4375V162.031ZM24.5625 184.375V171.563H105.813V184.375H24.5625Z" fill="black"/>
</svg>
