<svg width="512" height="512" viewBox="0 0 512 512" fill="none" xmlns="http://www.w3.org/2000/svg">
<path d="M448 319.04C435.34 358.293 410.9 392.696 378.002 417.572C345.104 442.448 305.344 456.59 264.127 458.075C222.909 459.561 182.234 448.319 147.63 425.876C113.027 403.434 86.1731 370.88 70.72 332.64L63.04 349.92C61.7671 352.752 59.6975 355.153 57.0838 356.829C54.47 358.505 51.425 359.385 48.32 359.36C46.1101 359.327 43.931 358.837 41.92 357.92C39.9966 357.07 38.2596 355.849 36.8083 354.328C35.357 352.806 34.2199 351.013 33.4621 349.052C32.7042 347.09 32.3404 344.998 32.3916 342.896C32.4427 340.794 32.9077 338.722 33.76 336.8L58.4 281.44C59.2621 279.47 60.5122 277.695 62.0758 276.219C63.6394 274.743 65.4844 273.598 67.5005 272.851C69.5167 272.105 71.6626 271.772 73.8102 271.873C75.9578 271.974 78.063 272.507 80 273.44L135.36 298.08C137.461 298.799 139.389 299.948 141.022 301.454C142.655 302.959 143.957 304.788 144.844 306.824C145.732 308.859 146.186 311.058 146.177 313.278C146.169 315.499 145.698 317.694 144.795 319.723C143.892 321.752 142.576 323.571 140.932 325.064C139.288 326.556 137.351 327.691 135.244 328.394C133.138 329.097 130.908 329.354 128.696 329.149C126.485 328.943 124.341 328.28 122.4 327.2L99.52 317.12C111.961 349.787 134.228 377.791 163.252 397.273C192.276 416.754 226.628 426.754 261.574 425.894C296.519 425.034 330.337 413.357 358.368 392.471C386.398 371.585 407.261 342.52 418.08 309.28C418.609 307.153 419.569 305.158 420.9 303.418C422.232 301.678 423.907 300.229 425.821 299.163C427.736 298.097 429.849 297.435 432.029 297.219C434.21 297.003 436.412 297.237 438.498 297.907C440.585 298.577 442.511 299.668 444.158 301.113C445.806 302.558 447.139 304.326 448.075 306.308C449.01 308.289 449.529 310.442 449.599 312.632C449.669 314.822 449.288 317.003 448.48 319.04H448ZM471.04 148.16C469.118 147.308 467.046 146.843 464.944 146.792C462.842 146.74 460.75 147.104 458.789 147.862C456.827 148.62 455.034 149.757 453.512 151.208C451.991 152.66 450.77 154.397 449.92 156.32L442.24 173.44C426.749 135.218 399.874 102.688 365.261 80.2636C330.648 57.8396 289.974 46.608 248.758 48.0931C207.543 49.5782 167.783 63.708 134.874 88.5649C101.965 113.422 77.4999 147.802 64.8 187.04C63.4846 191.177 63.8665 195.668 65.8619 199.524C67.8573 203.379 71.3027 206.285 75.44 207.6C79.5774 208.915 84.0679 208.534 87.9236 206.538C91.7794 204.543 94.6846 201.097 96 196.96C106.701 163.632 127.509 134.459 155.536 113.489C183.563 92.5182 217.421 80.7887 252.415 79.927C287.408 79.0654 321.803 89.1143 350.828 108.68C379.854 128.246 402.071 156.359 414.4 189.12L391.68 178.88C389.758 178.028 387.686 177.563 385.584 177.512C383.482 177.46 381.39 177.824 379.429 178.582C377.467 179.34 375.674 180.477 374.152 181.928C372.631 183.38 371.41 185.117 370.56 187.04C368.829 190.903 368.698 195.294 370.198 199.252C371.697 203.211 374.704 206.414 378.56 208.16L433.92 232.8C436.01 233.624 438.234 234.057 440.48 234.08C442.439 234.074 444.385 233.75 446.24 233.12C450.01 231.214 452.923 227.958 454.4 224L479.04 168.64C480.576 164.851 480.603 160.617 479.115 156.808C477.627 153 474.738 149.905 471.04 148.16Z" fill="url(#paint0_linear_53_116)"/>
<defs>
<linearGradient id="paint0_linear_53_116" x1="95.68" y1="413.6" x2="416.8" y2="92.48" gradientUnits="userSpaceOnUse">
<stop stop-color="#333399"/>
<stop offset="0.1" stop-color="#3C319B"/>
<stop offset="0.26" stop-color="#542BA1"/>
<stop offset="0.47" stop-color="#7C21AB"/>
<stop offset="0.7" stop-color="#B313B9"/>
<stop offset="0.97" stop-color="#F902CA"/>
<stop offset="0.99" stop-color="#FF00CC"/>
</linearGradient>
</defs>
</svg>
