<svg width="512" height="512" viewBox="0 0 512 512" fill="none" xmlns="http://www.w3.org/2000/svg">
<path fill-rule="evenodd" clip-rule="evenodd" d="M339.291 408.27H45.401V107.411L116.379 36.432H339.29L339.291 408.27Z" fill="#E0DFE1"/>
<path fill-rule="evenodd" clip-rule="evenodd" d="M313.86 382.839H19.9709V81.98L90.9489 11.002H313.86V382.839Z" fill="#F0F0F0"/>
<path fill-rule="evenodd" clip-rule="evenodd" d="M90.9489 81.98V11.002L19.9709 81.98H90.9489Z" fill="#E0DFE1"/>
<path fill-rule="evenodd" clip-rule="evenodd" d="M274.567 38.434C276.556 38.434 278.464 39.2242 279.87 40.6307C281.277 42.0372 282.067 43.9449 282.067 45.934C282.067 47.9231 281.277 49.8308 279.87 51.2373C278.464 52.6438 276.556 53.434 274.567 53.434H192.281C190.292 53.434 188.384 52.6438 186.978 51.2373C185.571 49.8308 184.781 47.9231 184.781 45.934C184.781 43.9449 185.571 42.0372 186.978 40.6307C188.384 39.2242 190.292 38.434 192.281 38.434H274.567ZM274.567 306.851C276.556 306.851 278.464 307.641 279.87 309.048C281.277 310.454 282.067 312.362 282.067 314.351C282.067 316.34 281.277 318.248 279.87 319.654C278.464 321.061 276.556 321.851 274.567 321.851H164.58C162.591 321.851 160.683 321.061 159.277 319.654C157.87 318.248 157.08 316.34 157.08 314.351C157.08 312.362 157.87 310.454 159.277 309.048C160.683 307.641 162.591 306.851 164.58 306.851H274.567ZM274.567 340.403C276.556 340.403 278.464 341.193 279.87 342.6C281.277 344.006 282.067 345.914 282.067 347.903C282.067 349.892 281.277 351.8 279.87 353.206C278.464 354.613 276.556 355.403 274.567 355.403H123.357C121.368 355.403 119.46 354.613 118.054 353.206C116.647 351.8 115.857 349.892 115.857 347.903C115.857 345.914 116.647 344.006 118.054 342.6C119.46 341.193 121.368 340.403 123.357 340.403H274.567ZM274.567 239.747C276.556 239.747 278.464 240.537 279.87 241.944C281.277 243.35 282.067 245.258 282.067 247.247C282.067 249.236 281.277 251.144 279.87 252.55C278.464 253.957 276.556 254.747 274.567 254.747H164.58C162.591 254.747 160.683 253.957 159.277 252.55C157.87 251.144 157.08 249.236 157.08 247.247C157.08 245.258 157.87 243.35 159.277 241.944C160.683 240.537 162.591 239.747 164.58 239.747H274.567ZM274.567 273.299C276.556 273.299 278.464 274.089 279.87 275.496C281.277 276.902 282.067 278.81 282.067 280.799C282.067 282.788 281.277 284.696 279.87 286.102C278.464 287.509 276.556 288.299 274.567 288.299H123.357C121.368 288.299 119.46 287.509 118.054 286.102C116.647 284.696 115.857 282.788 115.857 280.799C115.857 278.81 116.647 276.902 118.054 275.496C119.46 274.089 121.368 273.299 123.357 273.299H274.567ZM274.567 172.643C276.556 172.643 278.464 173.433 279.87 174.84C281.277 176.246 282.067 178.154 282.067 180.143C282.067 182.132 281.277 184.04 279.87 185.446C278.464 186.853 276.556 187.643 274.567 187.643H164.58C162.591 187.643 160.683 186.853 159.277 185.446C157.87 184.04 157.08 182.132 157.08 180.143C157.08 178.154 157.87 176.246 159.277 174.84C160.683 173.433 162.591 172.643 164.58 172.643H274.567ZM274.567 206.195C276.556 206.195 278.464 206.985 279.87 208.392C281.277 209.798 282.067 211.706 282.067 213.695C282.067 215.684 281.277 217.592 279.87 218.998C278.464 220.405 276.556 221.195 274.567 221.195H123.357C121.368 221.195 119.46 220.405 118.054 218.998C116.647 217.592 115.857 215.684 115.857 213.695C115.857 211.706 116.647 209.798 118.054 208.392C119.46 206.985 121.368 206.195 123.357 206.195H274.567ZM274.567 105.539C276.556 105.539 278.464 106.329 279.87 107.736C281.277 109.142 282.067 111.05 282.067 113.039C282.067 115.028 281.277 116.936 279.87 118.342C278.464 119.749 276.556 120.539 274.567 120.539H164.58C162.591 120.539 160.683 119.749 159.277 118.342C157.87 116.936 157.08 115.028 157.08 113.039C157.08 111.05 157.87 109.142 159.277 107.736C160.683 106.329 162.591 105.539 164.58 105.539H274.567ZM274.567 139.091C276.556 139.091 278.464 139.881 279.87 141.288C281.277 142.694 282.067 144.602 282.067 146.591C282.067 148.58 281.277 150.488 279.87 151.894C278.464 153.301 276.556 154.091 274.567 154.091H123.357C121.368 154.091 119.46 153.301 118.054 151.894C116.647 150.488 115.857 148.58 115.857 146.591C115.857 144.602 116.647 142.694 118.054 141.288C119.46 139.881 121.368 139.091 123.357 139.091H274.567ZM274.567 71.987C276.556 71.987 278.464 72.7772 279.87 74.1837C281.277 75.5902 282.067 77.4979 282.067 79.487C282.067 81.4761 281.277 83.3838 279.87 84.7903C278.464 86.1968 276.556 86.987 274.567 86.987H147.93C145.941 86.987 144.033 86.1968 142.627 84.7903C141.22 83.3838 140.43 81.4761 140.43 79.487C140.43 77.4979 141.22 75.5902 142.627 74.1837C144.033 72.7772 145.941 71.987 147.93 71.987H274.567Z" fill="#C8C9CD"/>
<path fill-rule="evenodd" clip-rule="evenodd" d="M53.6939 334.933C53.0261 334.204 52.5094 333.349 52.1736 332.419C51.8378 331.489 51.6895 330.502 51.7373 329.514C51.785 328.526 52.028 327.558 52.452 326.665C52.876 325.771 53.4728 324.971 54.2078 324.309C54.9429 323.648 55.8016 323.138 56.7346 322.81C57.6675 322.483 58.6561 322.343 59.6434 322.399C60.6307 322.455 61.597 322.706 62.4867 323.138C63.3763 323.57 64.1717 324.173 64.8269 324.914L74.2659 335.426L95.5309 310.617C96.1696 309.871 96.949 309.257 97.8247 308.812C98.7004 308.367 99.6552 308.099 100.635 308.023C101.614 307.947 102.599 308.064 103.533 308.368C104.467 308.673 105.332 309.158 106.078 309.797C106.824 310.436 107.438 311.215 107.883 312.091C108.328 312.967 108.596 313.921 108.672 314.901C108.748 315.88 108.631 316.865 108.326 317.799C108.022 318.733 107.537 319.598 106.898 320.344L80.3149 351.357C79.6438 352.224 78.7903 352.934 77.8149 353.435C76.8394 353.937 75.7658 354.218 74.6698 354.258C73.5738 354.299 72.4822 354.098 71.4723 353.671C70.4623 353.243 69.5585 352.599 68.8249 351.784L53.6939 334.933ZM53.6939 200.725C53.0261 199.996 52.5094 199.141 52.1736 198.211C51.8378 197.281 51.6895 196.294 51.7373 195.306C51.785 194.318 52.028 193.35 52.452 192.457C52.876 191.563 53.4728 190.763 54.2078 190.101C54.9429 189.44 55.8016 188.93 56.7346 188.602C57.6675 188.275 58.6561 188.135 59.6434 188.191C60.6307 188.247 61.597 188.498 62.4867 188.93C63.3763 189.362 64.1717 189.965 64.8269 190.706L74.2659 201.218L95.5309 176.409C96.1696 175.663 96.949 175.049 97.8247 174.604C98.7004 174.159 99.6552 173.891 100.635 173.815C101.614 173.739 102.599 173.856 103.533 174.16C104.467 174.465 105.332 174.95 106.078 175.589C106.824 176.228 107.438 177.007 107.883 177.883C108.328 178.759 108.596 179.713 108.672 180.693C108.748 181.672 108.631 182.657 108.326 183.591C108.022 184.525 107.537 185.39 106.898 186.136L80.3149 217.149C79.6437 218.016 78.7902 218.726 77.8147 219.227C76.8392 219.728 75.7655 220.009 74.6695 220.05C73.5736 220.09 72.482 219.89 71.4721 219.462C70.4622 219.035 69.5585 218.39 68.8249 217.575L53.6939 200.725ZM53.6939 133.621C53.0261 132.892 52.5094 132.037 52.1736 131.107C51.8378 130.177 51.6895 129.19 51.7373 128.202C51.785 127.214 52.028 126.246 52.452 125.353C52.876 124.459 53.4728 123.659 54.2078 122.997C54.9429 122.336 55.8016 121.826 56.7346 121.498C57.6675 121.171 58.6561 121.031 59.6434 121.087C60.6307 121.143 61.597 121.394 62.4867 121.826C63.3763 122.258 64.1717 122.861 64.8269 123.602L74.2659 134.114L95.5309 109.305C96.1696 108.559 96.949 107.945 97.8247 107.5C98.7004 107.055 99.6552 106.787 100.635 106.711C101.614 106.635 102.599 106.752 103.533 107.056C104.467 107.361 105.332 107.846 106.078 108.485C106.824 109.124 107.438 109.903 107.883 110.779C108.328 111.655 108.596 112.609 108.672 113.589C108.748 114.568 108.631 115.553 108.326 116.487C108.022 117.421 107.537 118.286 106.898 119.032L80.3149 150.045C79.6437 150.912 78.7902 151.622 77.8147 152.123C76.8392 152.624 75.7655 152.905 74.6695 152.946C73.5736 152.986 72.482 152.786 71.4721 152.358C70.4622 151.931 69.5585 151.286 68.8249 150.471L53.6939 133.621ZM53.6939 267.829C53.0261 267.1 52.5094 266.245 52.1736 265.315C51.8378 264.385 51.6895 263.398 51.7373 262.41C51.785 261.422 52.028 260.454 52.452 259.561C52.876 258.667 53.4728 257.867 54.2078 257.205C54.9429 256.544 55.8016 256.034 56.7346 255.706C57.6675 255.379 58.6561 255.239 59.6434 255.295C60.6307 255.351 61.597 255.602 62.4867 256.034C63.3763 256.466 64.1717 257.069 64.8269 257.81L74.2659 268.322L95.5309 243.513C96.1696 242.767 96.949 242.153 97.8247 241.708C98.7004 241.263 99.6552 240.995 100.635 240.919C101.614 240.843 102.599 240.96 103.533 241.264C104.467 241.569 105.332 242.054 106.078 242.693C106.824 243.332 107.438 244.111 107.883 244.987C108.328 245.863 108.596 246.817 108.672 247.797C108.748 248.776 108.631 249.761 108.326 250.695C108.022 251.629 107.537 252.494 106.898 253.24L80.3149 284.253C79.6438 285.12 78.7903 285.83 77.8149 286.331C76.8394 286.833 75.7658 287.114 74.6698 287.154C73.5738 287.195 72.4822 286.994 71.4723 286.567C70.4623 286.139 69.5585 285.495 68.8249 284.68L53.6939 267.829Z" fill="#43A2FF"/>
<path fill-rule="evenodd" clip-rule="evenodd" d="M244.667 490.819H355.129C363.538 490.819 370.418 483.939 370.418 475.53V453.83C370.418 445.421 363.538 438.541 355.129 438.541H244.667C236.258 438.541 229.378 445.421 229.378 453.83V475.53C229.378 483.939 236.258 490.819 244.667 490.819Z" fill="#B77442"/>
<path fill-rule="evenodd" clip-rule="evenodd" d="M211.671 470.474H388.124C391.194 470.474 393.706 472.986 393.706 476.056V495.416C393.706 498.486 391.195 500.998 388.124 500.998H211.671C208.601 500.998 206.089 498.486 206.089 495.416V476.056C206.09 472.986 208.601 470.474 211.671 470.474ZM369.168 321.764L482.443 387.164C491.589 392.444 494.751 404.247 489.471 413.393C484.191 422.539 472.388 425.702 463.242 420.421L349.967 355.021C340.821 349.741 337.658 337.938 342.939 328.792C348.22 319.647 360.022 316.484 369.168 321.764Z" fill="#A56832"/>
<path fill-rule="evenodd" clip-rule="evenodd" d="M335.319 253.808L402.503 292.597C402.867 292.808 403.132 293.154 403.241 293.561C403.35 293.967 403.293 294.399 403.084 294.764L345.039 395.3C344.828 395.663 344.482 395.929 344.076 396.037C343.67 396.146 343.237 396.09 342.873 395.881L275.689 357.092C275.325 356.881 275.06 356.535 274.951 356.128C274.842 355.722 274.899 355.29 275.108 354.925L333.153 254.388C333.364 254.025 333.71 253.76 334.116 253.651C334.522 253.543 334.955 253.599 335.319 253.808Z" fill="#B77442"/>
<path fill-rule="evenodd" clip-rule="evenodd" d="M332.582 245.062L411.446 290.594C414.098 292.125 415.015 295.548 413.484 298.2L405.374 312.247C403.843 314.899 400.42 315.816 397.768 314.285L318.904 268.753C316.252 267.222 315.335 263.799 316.866 261.147L324.976 247.1C326.508 244.448 329.93 243.531 332.582 245.062ZM275.136 344.562L354 390.094C356.652 391.625 357.569 395.048 356.038 397.7L347.928 411.747C346.397 414.399 342.974 415.316 340.322 413.785L261.458 368.253C258.806 366.722 257.889 363.299 259.42 360.647L267.53 346.6C269.061 343.948 272.484 343.03 275.136 344.562Z" fill="#A56832"/>
</svg>
