<svg width="200" height="200" viewBox="0 0 200 200" fill="none" xmlns="http://www.w3.org/2000/svg">
<path d="M126.632 14.4559V185.544C126.632 190.279 122.78 194.132 118.044 194.132H22.2795C17.5442 194.132 13.6913 190.279 13.6913 185.544V14.4559C13.6913 9.72059 17.5442 5.86765 22.2795 5.86765H118.044C122.78 5.86765 126.632 9.72059 126.632 14.4559Z" fill="#3A3A3A"/>
<path d="M119.397 14.4559V185.544C119.397 190.279 115.544 194.132 110.809 194.132H15.0442C10.3089 194.132 6.45593 190.279 6.45593 185.544V14.4559C6.45593 9.72059 10.3089 5.86765 15.0442 5.86765H110.809C115.544 5.86765 119.397 9.72059 119.397 14.4559Z" fill="#51504F"/>
<path d="M110.338 17.6324V173.279C110.338 174.779 109.132 175.985 107.632 175.985H18.2207C16.7207 175.985 15.5148 174.779 15.5148 173.279V17.6324C15.5148 16.1618 16.7207 14.9559 18.2207 14.9559H107.632C109.132 14.9559 110.338 16.1618 110.338 17.6324Z" fill="white"/>
<path d="M51.9236 185.068C54.1883 184.156 56.4559 183.676 58.7236 183.353C60.9883 183 63.2589 182.871 65.5265 182.862C67.7912 182.862 70.0589 182.997 72.3265 183.344C74.5912 183.668 76.8618 184.15 79.1295 185.068C76.8618 185.985 74.5942 186.465 72.3265 186.788C70.0618 187.138 67.7912 187.271 65.5265 187.274C63.2498 187.28 60.9758 187.116 58.7236 186.782C56.4589 186.459 54.1883 185.979 51.9236 185.068Z" fill="#3A3A3A"/>
<path d="M158.456 34.8971V155.838C158.456 161.191 154.132 165.515 148.779 165.515H66.1912C60.8383 165.515 56.5148 161.191 56.5148 155.838V34.8971C56.5148 31.1912 54.9854 27.8088 52.5442 25.3676C51.3007 24.1141 49.8206 23.1202 48.1897 22.4436C46.5589 21.7671 44.8098 21.4213 43.0442 21.4265H144.956C152.427 21.4265 158.456 27.4559 158.456 34.8971Z" fill="#D1DAFE"/>
<path d="M56.5148 34.8971V70.8676H39.2207C33.8677 70.8676 29.5442 66.5441 29.5442 61.1912V35.4559C29.5442 27.8676 35.7795 21.25 43.3677 21.4265C46.956 21.5147 50.1912 22.9853 52.5442 25.3676C54.9854 27.8088 56.5148 31.1912 56.5148 34.8971Z" fill="#8A9BEA"/>
<path d="M67.603 47.7294C67.4984 47.627 67.4159 47.5042 67.3608 47.3686C67.3056 47.233 67.2789 47.0875 67.2824 46.9412V31.8941C67.2797 31.7469 67.3062 31.6006 67.3605 31.4637C67.4148 31.3268 67.4957 31.2021 67.5986 31.0967C67.7015 30.9914 67.8243 30.9075 67.9598 30.85C68.0954 30.7925 68.241 30.7625 68.3883 30.7618H74.1177C76.3471 30.7618 78.0206 31.2206 79.1353 32.1382C80.2501 33.0559 80.8089 34.2618 80.8089 35.7559C80.8089 36.7382 80.5324 37.6353 79.9853 38.4471C79.4383 39.2588 78.6353 39.8441 77.5853 40.2029C78.7677 40.5147 79.5736 41.25 80.0089 42.4059C80.4412 43.5618 80.6589 44.6971 80.6589 45.8118V46.9412C80.6624 47.0873 80.636 47.2325 80.5814 47.3681C80.5267 47.5036 80.445 47.6266 80.3412 47.7294C80.2386 47.8338 80.1158 47.916 79.9802 47.9711C79.8447 48.0263 79.6993 48.0531 79.553 48.05C79.4019 48.0572 79.251 48.0336 79.1094 47.9805C78.9678 47.9274 78.8385 47.846 78.7295 47.7412C78.6266 47.6358 78.5464 47.5104 78.4938 47.3728C78.4412 47.2352 78.4173 47.0883 78.4236 46.9412V46.2059C78.4236 45.3824 78.3471 44.6265 78.2 43.9294C78.0416 43.2151 77.6728 42.5645 77.1412 42.0618C76.5853 41.5118 75.7412 41.2382 74.6118 41.2382H69.5206V46.9441C69.5191 47.0909 69.4887 47.2359 69.4311 47.3709C69.3735 47.506 69.2899 47.6283 69.185 47.731C69.0801 47.8337 68.956 47.9147 68.8198 47.9694C68.6836 48.0242 68.538 48.0516 68.3912 48.05C68.2447 48.0529 68.0991 48.0257 67.9635 47.97C67.828 47.9144 67.7052 47.8315 67.603 47.7265V47.7294ZM73.9706 39.1235C75.3824 39.1235 76.5001 38.8441 77.3265 38.2853C77.7216 38.0347 78.0442 37.6852 78.2625 37.2715C78.4807 36.8577 78.587 36.394 78.5706 35.9265C78.5706 34.9412 78.2118 34.1912 77.5001 33.6618C76.7853 33.1382 75.5706 32.8765 73.85 32.8765H69.5206V39.1235H73.9706ZM88.3559 47.4353C87.2784 46.9472 86.3586 46.1679 85.7001 45.1853C85.0118 44.1765 84.6706 42.9412 84.6706 41.4824V31.7706C84.6706 31.4588 84.7736 31.1912 84.9883 30.9706C85.0887 30.8633 85.2104 30.7784 85.3457 30.7211C85.4809 30.6639 85.6267 30.6356 85.7736 30.6382C85.9226 30.6359 86.0705 30.6642 86.2081 30.7214C86.3457 30.7785 86.4701 30.8634 86.5736 30.9706C86.6808 31.0741 86.7656 31.1985 86.8228 31.3361C86.88 31.4737 86.9083 31.6216 86.9059 31.7706V41.5559C86.9059 42.5412 87.1295 43.3794 87.5824 44.0647C88.0324 44.7529 88.6265 45.2706 89.3648 45.6147C90.103 45.9588 90.8883 46.1294 91.7236 46.1294C92.5618 46.1294 93.3471 45.9588 94.0853 45.6147C94.8236 45.2706 95.4177 44.7529 95.8677 44.0647C96.3206 43.3765 96.5442 42.5412 96.5442 41.5559V31.7706C96.5442 31.4588 96.653 31.1912 96.8677 30.9706C97.0765 30.75 97.3383 30.6382 97.6501 30.6382C97.9618 30.6382 98.2295 30.75 98.4501 30.9706C98.5573 31.0741 98.6421 31.1985 98.6993 31.3361C98.7564 31.4737 98.7847 31.6216 98.7824 31.7706V41.4824C98.7824 42.9412 98.4383 44.1765 97.7501 45.1853C97.0919 46.1682 96.1719 46.9476 95.0942 47.4353C94.0376 47.9218 92.8882 48.1736 91.7251 48.1736C90.5619 48.1736 89.4125 47.9218 88.3559 47.4353ZM103.882 47.4706C103.736 47.3289 103.62 47.1587 103.542 46.9705C103.465 46.7823 103.426 46.5801 103.429 46.3765V31.7706C103.429 31.4588 103.535 31.1912 103.75 30.9706C103.85 30.8633 103.972 30.7784 104.107 30.7211C104.243 30.6639 104.388 30.6356 104.535 30.6382C104.684 30.6359 104.832 30.6642 104.97 30.7214C105.107 30.7785 105.232 30.8634 105.335 30.9706C105.443 31.0741 105.527 31.1985 105.585 31.3361C105.642 31.4737 105.67 31.6216 105.668 31.7706V45.6882H113.709C113.857 45.6863 114.005 45.7148 114.142 45.772C114.279 45.8291 114.403 45.9137 114.506 46.0206C114.613 46.1237 114.697 46.2477 114.755 46.3847C114.812 46.5218 114.84 46.6691 114.838 46.8177C114.841 46.965 114.814 47.1114 114.756 47.2473C114.699 47.3831 114.614 47.5053 114.506 47.6059C114.401 47.7097 114.277 47.7915 114.14 47.8465C114.003 47.9016 113.856 47.9287 113.709 47.9265H104.979C104.776 47.9293 104.573 47.8903 104.385 47.8119C104.197 47.7335 104.024 47.6173 103.882 47.4706ZM117.912 47.6059C117.808 47.5032 117.726 47.3803 117.671 47.2447C117.617 47.1091 117.59 46.9638 117.594 46.8177V31.8941C117.591 31.7469 117.618 31.6006 117.672 31.4637C117.727 31.3268 117.807 31.2021 117.91 31.0967C118.013 30.9914 118.136 30.9075 118.272 30.85C118.407 30.7925 118.553 30.7625 118.7 30.7618H128.562C128.856 30.7618 129.106 30.8647 129.312 31.0706C129.518 31.2765 129.618 31.5235 129.618 31.8177C129.618 32.1118 129.515 32.3618 129.312 32.5559C129.213 32.6523 129.095 32.7279 128.966 32.7784C128.838 32.8289 128.7 32.8533 128.562 32.85H119.832V38.2853H127.677C127.971 38.2853 128.221 38.3882 128.427 38.5941C128.632 38.8 128.732 39.05 128.732 39.3441C128.732 39.6382 128.629 39.8853 128.427 40.0794C128.327 40.1762 128.21 40.2523 128.081 40.3033C127.953 40.3543 127.815 40.3792 127.677 40.3765H119.832V45.8353H128.562C128.856 45.8353 129.106 45.9382 129.312 46.1441C129.518 46.35 129.618 46.5971 129.618 46.8941C129.618 47.1882 129.515 47.4353 129.312 47.6294C129.213 47.7258 129.095 47.8015 128.966 47.852C128.838 47.9025 128.7 47.9268 128.562 47.9235H118.7C118.554 47.9272 118.409 47.9009 118.273 47.8463C118.138 47.7916 118.015 47.7098 117.912 47.6059ZM132.838 46.9912C132.638 46.9067 132.468 46.7656 132.347 46.5853C132.22 46.4099 132.151 46.199 132.15 45.9824C132.15 45.7059 132.244 45.4618 132.432 45.2588C132.524 45.1578 132.636 45.0779 132.762 45.0246C132.887 44.9713 133.023 44.9458 133.159 44.95C133.32 44.9501 133.479 44.9842 133.627 45.05C135.152 45.725 136.803 46.0679 138.471 46.0559C141.338 46.0559 142.774 45.1147 142.774 43.2294C142.778 42.9964 142.731 42.7652 142.635 42.5526C142.54 42.34 142.398 42.1513 142.221 42C141.853 41.6706 141.397 41.4118 140.856 41.2235C140.315 41.0382 139.544 40.8118 138.544 40.5471C137.215 40.2029 136.141 39.8706 135.324 39.5529C134.516 39.2421 133.791 38.7489 133.206 38.1118C132.618 37.4735 132.324 36.6235 132.324 35.5559C132.324 34.6235 132.568 33.7735 133.059 33.0118C133.553 32.2471 134.277 31.6441 135.235 31.1912C136.194 30.7412 137.347 30.5147 138.691 30.5147C140.494 30.5147 142.127 30.7853 143.585 31.3265C144.044 31.4912 144.274 31.8177 144.274 32.3118C144.274 32.5735 144.185 32.8118 144.003 33.0235C143.916 33.128 143.807 33.2113 143.683 33.2669C143.559 33.3224 143.424 33.3489 143.288 33.3441C143.153 33.3346 143.02 33.3007 142.897 33.2441C141.624 32.8034 140.286 32.5797 138.938 32.5824C137.644 32.5824 136.588 32.8265 135.777 33.3177C134.965 33.8118 134.562 34.5 134.562 35.3853C134.562 35.9735 134.753 36.4559 135.138 36.8235C135.521 37.1912 136.006 37.4794 136.588 37.6853C137.171 37.8912 137.962 38.1059 138.962 38.3353C140.256 38.6471 141.3 38.9588 142.097 39.2706C142.891 39.5824 143.574 40.0647 144.138 40.7206C144.703 41.3765 144.985 42.2618 144.985 43.3765C144.985 44.2941 144.724 45.1177 144.2 45.8471C143.674 46.5765 142.935 47.1471 141.985 47.5559C141.035 47.9677 139.938 48.1735 138.691 48.1735C136.68 48.1874 134.687 47.7849 132.838 46.9912Z" fill="#4269C4"/>
<path d="M89.1177 86.0588H69.5589C68.382 86.0588 67.2533 85.5917 66.4205 84.7601C65.5878 83.9285 65.1192 82.8004 65.1177 81.6235V62.0588C65.1177 59.6059 67.1059 57.6176 69.5589 57.6176H89.1177C91.5677 57.6176 93.5589 59.6059 93.5589 62.0588V81.6176C93.5589 82.2009 93.444 82.7784 93.2208 83.3172C92.9976 83.856 92.6705 84.3456 92.2581 84.758C91.8457 85.1704 91.3561 85.4976 90.8172 85.7208C90.2784 85.9439 89.7009 86.0588 89.1177 86.0588Z" fill="#4269C4"/>
<path d="M93.5471 69.7059V82.0912C93.5471 84.2794 91.7824 86.0706 89.5677 86.0706H69.0912C68.0368 86.0675 67.0264 85.6472 66.2808 84.9016C65.5352 84.156 65.1149 83.1456 65.1118 82.0912V80.4059C66.9059 80.7471 68.7765 80.9059 70.6706 80.9059C80.503 80.9059 89.0942 76.4 93.5471 69.7059Z" fill="#255299"/>
<path d="M89.1177 121.829H69.5589C68.3815 121.829 67.2523 121.362 66.4195 120.53C65.5867 119.697 65.1185 118.569 65.1177 117.391V97.8324C65.1177 95.3794 67.1059 93.3912 69.5589 93.3912H89.1177C91.5677 93.3912 93.5589 95.3794 93.5589 97.8324V117.391C93.5589 118.569 93.0909 119.699 92.2581 120.532C91.4252 121.364 90.2955 121.829 89.1177 121.829ZM89.1177 157.6H69.5589C68.9756 157.6 68.3981 157.485 67.8593 157.262C67.3205 157.039 66.8309 156.712 66.4185 156.299C66.0061 155.887 65.6789 155.397 65.4557 154.858C65.2326 154.32 65.1177 153.742 65.1177 153.159V133.6C65.1177 131.147 67.1059 129.159 69.5589 129.159H89.1177C91.5677 129.159 93.5589 131.147 93.5589 133.6V153.159C93.5589 154.337 93.0909 155.466 92.2581 156.299C91.4252 157.132 90.2955 157.6 89.1177 157.6Z" fill="#4269C4"/>
<path d="M130.785 62.3529C128.756 62.0618 126.727 61.6176 124.697 60.7971C126.727 59.9823 128.756 59.5588 130.785 59.2676C132.802 58.9741 134.836 58.8247 136.874 58.8206C138.903 58.8206 140.929 58.9529 142.956 59.2706C144.985 59.5588 147.015 59.9824 149.044 60.8C147.015 61.6412 144.985 62.0647 142.956 62.3529C140.927 62.6676 138.9 62.7735 136.871 62.7735C134.841 62.7735 132.812 62.6676 130.785 62.3529ZM149.044 143.391C148.427 144.206 147.812 144.629 147.197 144.921C146.579 145.235 145.962 145.368 145.35 145.368C144.72 145.357 144.1 145.203 143.538 144.918C142.801 144.575 142.164 144.048 141.688 143.388C142.306 142.574 142.924 142.124 143.538 141.835C144.098 141.547 144.721 141.402 145.35 141.415C145.965 141.415 146.579 141.521 147.197 141.835C147.815 142.126 148.427 142.547 149.044 143.391ZM149.044 107.603C148.427 108.447 147.812 108.868 147.197 109.159C146.579 109.474 145.962 109.579 145.35 109.579C144.732 109.579 144.153 109.474 143.538 109.159C142.8 108.804 142.164 108.267 141.688 107.6C142.306 106.785 142.924 106.365 143.538 106.071C144.156 105.759 144.732 105.653 145.35 105.626C145.965 105.626 146.579 105.759 147.197 106.074C147.815 106.365 148.427 106.785 149.044 107.603ZM105.318 133.876C104.299 133.575 103.359 133.053 102.565 132.347C103.471 131.532 104.412 131.109 105.318 130.818C106.259 130.503 107.165 130.371 108.071 130.371C109.012 130.371 109.918 130.476 110.859 130.794C111.765 131.082 112.706 131.529 113.612 132.347C112.818 133.053 111.878 133.575 110.859 133.876C109.918 134.194 109.012 134.324 108.071 134.324C107.165 134.324 106.259 134.194 105.318 133.876ZM149.044 71.8412C148.427 72.6559 147.812 73.1059 147.197 73.3941C146.579 73.6853 145.962 73.8176 145.35 73.8176C144.732 73.8176 144.153 73.6853 143.538 73.3676C142.801 73.0249 142.164 72.4982 141.688 71.8382C142.306 71.0235 142.924 70.6029 143.538 70.3088C144.103 70.0152 144.731 69.8619 145.368 69.8619C146.005 69.8619 146.632 70.0152 147.197 70.3088C147.815 70.6029 148.427 71.0235 149.044 71.8382V71.8412ZM105.318 98.1176C104.299 97.8153 103.36 97.2932 102.565 96.5882C103.471 95.7706 104.412 95.3235 105.318 95.0294C106.206 94.7388 107.136 94.5967 108.071 94.6088C109.012 94.6088 109.918 94.7147 110.859 95.0294C111.765 95.3235 112.706 95.7412 113.612 96.5882C112.706 97.4029 111.765 97.8235 110.859 98.1176C109.918 98.4294 109.012 98.5618 108.071 98.5618C107.136 98.5512 106.208 98.4034 105.318 98.1176ZM126.403 141.835C129.047 142.126 131.691 142.547 134.335 143.391C131.688 144.206 129.047 144.629 126.403 144.921C123.756 145.235 121.112 145.368 118.468 145.368C115.805 145.364 113.144 145.214 110.497 144.918C107.85 144.629 105.209 144.206 102.565 143.388C105.209 142.574 107.853 142.124 110.497 141.835C113.143 141.536 115.805 141.396 118.468 141.415C121.112 141.415 123.756 141.521 126.403 141.835ZM142.956 130.794C144.985 131.082 147.015 131.529 149.044 132.347C147.015 133.165 144.985 133.588 142.956 133.876C140.927 134.194 138.9 134.324 136.871 134.324C134.841 134.324 132.812 134.194 130.785 133.876C128.756 133.588 126.727 133.165 124.697 132.347C126.727 131.532 128.756 131.109 130.785 130.818C132.815 130.503 134.844 130.371 136.874 130.371C138.903 130.371 140.929 130.476 142.956 130.794ZM142.956 95.0294C144.985 95.3235 147.015 95.7412 149.044 96.5882C147.015 97.4029 144.985 97.8235 142.956 98.1176C140.927 98.4294 138.9 98.5618 136.871 98.5618C134.834 98.5562 132.801 98.4069 130.785 98.1147C128.756 97.8235 126.727 97.4029 124.697 96.5853C126.727 95.7706 128.756 95.3206 130.785 95.0294C132.801 94.7324 134.836 94.5918 136.874 94.6088C138.903 94.6088 140.929 94.7147 142.956 95.0294ZM105.318 62.3529C104.298 62.0413 103.358 61.5103 102.565 60.7971C103.471 59.9823 104.412 59.5588 105.318 59.2676C106.259 58.9529 107.165 58.8471 108.071 58.8206C109.012 58.8206 109.918 58.9529 110.859 59.2706C111.765 59.5588 112.706 59.9824 113.612 60.8C112.706 61.6412 111.765 62.0647 110.859 62.3529C109.918 62.6676 109.012 62.7735 108.071 62.7735C107.165 62.7735 106.259 62.6676 105.318 62.3529ZM108.977 120.174C106.838 119.882 104.7 119.462 102.565 118.644C104.7 117.826 106.838 117.406 108.977 117.115C111.112 116.81 113.267 116.66 115.424 116.668C117.562 116.668 119.735 116.8 121.874 117.118C124.009 117.406 126.147 117.826 128.321 118.647C126.237 119.407 124.074 119.928 121.874 120.2C117.593 120.767 113.255 120.76 108.977 120.174ZM108.977 84.4118C106.838 84.1206 104.7 83.7 102.565 82.8824C104.7 82.0647 106.838 81.6176 108.977 81.3265C111.114 81.0428 113.268 80.9023 115.424 80.9059C117.562 80.9059 119.735 81.0118 121.874 81.3265C124.009 81.6176 126.147 82.0647 128.321 82.8824C126.147 83.7 124.009 84.1206 121.874 84.4118C119.737 84.7181 117.582 84.8675 115.424 84.8588C113.267 84.8534 111.113 84.704 108.977 84.4118ZM110.5 109.159C107.853 108.865 105.206 108.418 102.565 107.6C105.209 106.785 107.853 106.365 110.497 106.071C113.144 105.759 115.785 105.653 118.468 105.626C121.112 105.626 123.756 105.759 126.403 106.074C129.047 106.365 131.691 106.785 134.335 107.603C131.688 108.447 129.047 108.868 126.403 109.159C123.756 109.474 121.112 109.579 118.468 109.579C115.785 109.579 113.147 109.474 110.5 109.159ZM110.5 73.3676C107.853 73.0794 105.206 72.6559 102.565 71.8382C105.209 71.0235 107.853 70.6029 110.497 70.3088C113.144 69.9941 115.785 69.8647 118.468 69.8647C121.112 69.8647 123.756 69.9941 126.403 70.3118C129.047 70.6 131.691 71.0235 134.335 71.8412C131.688 72.6559 129.047 73.1059 126.403 73.3941C123.756 73.6853 121.112 73.8176 118.468 73.8176C115.785 73.8176 113.147 73.6853 110.5 73.3676ZM102.553 154.415C104.7 153.597 106.847 153.171 108.994 152.879C111.141 152.565 113.285 152.447 115.432 152.438C117.579 152.441 119.727 152.559 121.871 152.874C124.018 153.162 126.165 153.591 128.312 154.415C126.165 155.238 124.018 155.668 121.871 155.956C119.724 156.271 117.577 156.388 115.429 156.391C113.285 156.382 111.138 156.265 108.991 155.95C106.844 155.662 104.697 155.232 102.553 154.415Z" fill="#8A9BEA"/>
<path d="M93.5471 105.465V117.85C93.5471 120.038 91.7824 121.829 89.5677 121.829H69.0912C68.0368 121.826 67.0264 121.406 66.2808 120.66C65.5352 119.915 65.1149 118.904 65.1118 117.85V116.165C66.9059 116.506 68.7765 116.665 70.6706 116.665C80.503 116.665 89.0942 112.159 93.5471 105.465ZM93.5471 141.235V153.621C93.5471 155.809 91.7824 157.6 89.5677 157.6H69.0912C68.0368 157.597 67.0264 157.177 66.2808 156.431C65.5352 155.685 65.1149 154.675 65.1118 153.621V151.932C66.9059 152.276 68.7765 152.432 70.6706 152.432C80.503 152.432 89.0942 147.926 93.5471 141.235Z" fill="#255299"/>
<path d="M87.5883 65.0794C86.656 67.9118 85.1413 70.1353 83.5001 72.2912C81.8236 74.3529 79.9266 76.2206 77.8001 77.8618L77.3177 78.2147C77.133 78.3615 76.9207 78.4699 76.6934 78.5333C76.4661 78.5968 76.2283 78.6141 75.9942 78.5842C75.7601 78.5543 75.5344 78.4779 75.3303 78.3594C75.1262 78.2408 74.9479 78.0826 74.806 77.8941L74.7766 77.8647C73.3266 75.8647 71.9413 73.7735 71.0707 71.1647C72.906 71.7441 74.453 72.5823 75.9001 73.5176C77.253 71.9059 78.7354 70.4588 80.3766 69.1353C82.5001 67.5265 84.756 65.9823 87.5883 65.0794ZM87.5883 100.841C86.656 103.674 85.1413 105.897 83.5001 108.053C81.8236 110.112 79.9266 111.982 77.8001 113.624L77.3177 113.976C77.133 114.123 76.9207 114.232 76.6934 114.295C76.4661 114.359 76.2283 114.376 75.9942 114.346C75.7601 114.316 75.5344 114.24 75.3303 114.121C75.1262 114.003 74.9479 113.844 74.806 113.656L74.7766 113.624C73.3266 111.626 71.9413 109.535 71.0707 106.926C72.906 107.506 74.453 108.344 75.9001 109.276C77.253 107.668 78.7354 106.218 80.3766 104.897C82.5001 103.288 84.756 101.741 87.5883 100.841ZM83.7913 145.647C84.6854 146.991 85.503 148.412 86.056 150.1C84.3442 149.574 82.9207 148.756 81.603 147.835C80.798 147.314 80.0402 146.724 79.3383 146.071C78.6266 146.7 77.8883 147.306 77.0736 147.835C75.7266 148.756 74.303 149.574 72.6177 150.1C73.1707 148.415 73.9883 146.991 74.8824 145.647C75.4119 144.829 76.0177 144.091 76.6471 143.382C75.9937 142.68 75.4032 141.921 74.8824 141.115C73.9619 139.797 73.1442 138.374 72.6177 136.659C74.3295 137.212 75.753 138.032 77.0707 138.926C77.8883 139.456 78.6266 140.059 79.3354 140.691C80.0472 140.059 80.8119 139.456 81.603 138.926C82.9207 138.032 84.3442 137.212 86.056 136.662C85.5322 138.253 84.7685 139.754 83.7913 141.115C83.2538 141.917 82.6643 142.683 82.0266 143.409C82.6589 144.118 83.2619 144.859 83.7913 145.647Z" fill="white"/>
<path d="M134.706 137.785C133.982 135.482 133.55 133.176 133.1 130.874C132.859 129.938 132.747 127.959 133.409 126.503C134.024 124.965 135.262 123.676 136.8 122.868C137.574 122.471 138.429 122.206 139.306 122.085C140.221 121.985 140.553 121.991 141.206 121.938L144.662 121.709C149.267 121.472 153.88 121.469 158.485 121.7L161.944 121.932L163.841 122.076C164.724 122.194 165.577 122.459 166.353 122.859C167.894 123.668 169.129 124.962 169.747 126.5C170.412 127.953 170.294 129.938 170.056 130.874C169.606 133.176 169.174 135.482 168.441 137.785C167.709 135.482 167.279 133.176 166.824 130.874C166.665 129.521 166.432 129.115 165.941 128.529C165.471 128.035 164.921 127.685 164.341 127.582C164.064 127.536 163.78 127.537 163.503 127.585L161.944 127.7L158.488 127.929C156.182 128.056 153.879 128.091 151.577 128.106C149.27 128.102 146.965 128.041 144.662 127.924L141.206 127.688C140.706 127.653 139.882 127.615 139.647 127.576C139.368 127.527 139.082 127.526 138.803 127.574C138.221 127.676 137.677 128.029 137.197 128.524C136.706 129.112 136.479 129.524 136.315 130.874C135.865 133.176 135.432 135.482 134.706 137.785Z" fill="#B53016"/>
<path d="M193.544 141.779V185.044C193.544 190.044 189.485 194.132 184.485 194.132H118.691C113.662 194.132 109.603 190.044 109.603 185.044V141.779C109.603 136.779 113.662 132.721 118.691 132.721H184.485C189.485 132.721 193.544 136.779 193.544 141.779Z" fill="#FA990E"/>
<path d="M193.544 141.779V148.985C193.544 151.309 192.074 153.397 189.868 154.162L166.456 162.456C165.868 162.662 165.25 162.779 164.632 162.779H138.544C137.913 162.777 137.286 162.668 136.691 162.456L113.279 154.162C111.074 153.397 109.603 151.309 109.603 148.985V141.779C109.603 136.779 113.662 132.721 118.691 132.721H184.485C189.485 132.721 193.544 136.779 193.544 141.779Z" fill="#FBAD3E"/>
<path d="M157.377 167.241V170.447C157.377 171.238 157.221 172.021 156.918 172.752C156.615 173.483 156.172 174.147 155.612 174.706C155.053 175.266 154.389 175.709 153.658 176.012C152.927 176.315 152.144 176.471 151.353 176.471C150.562 176.471 149.779 176.315 149.048 176.012C148.317 175.709 147.653 175.266 147.094 174.706C146.534 174.147 146.091 173.483 145.788 172.752C145.485 172.021 145.329 171.238 145.329 170.447V167.241H157.377Z" fill="#912010"/>
<path d="M164.426 165.682C164.347 166.144 164.123 166.568 163.786 166.894C163.449 167.219 163.017 167.428 162.553 167.491C154.918 168.576 147.447 168.544 140.144 167.491C139.67 167.426 139.229 167.207 138.891 166.868C138.552 166.529 138.333 166.089 138.268 165.615C138.027 163.737 138.016 161.836 138.235 159.956C138.335 158.968 139.221 158.212 140.209 158.147C147.616 157.429 155.076 157.419 162.485 158.115C163.474 158.212 164.297 158.968 164.426 159.924C164.691 161.765 164.691 163.706 164.426 165.682Z" fill="#B53016"/>
<path d="M156.679 43.0118C164.957 43.0118 171.668 36.3013 171.668 28.0235C171.668 19.7458 164.957 13.0353 156.679 13.0353C148.402 13.0353 141.691 19.7458 141.691 28.0235C141.691 36.3013 148.402 43.0118 156.679 43.0118Z" fill="#B53016"/>
<path d="M171.665 28.0294C171.665 29.9977 171.278 31.9468 170.526 33.7654C169.773 35.584 168.669 37.2365 167.278 38.6284C165.886 40.0203 164.234 41.1243 162.415 41.8775C160.597 42.6306 158.648 43.018 156.679 43.0176C153.556 43.017 150.51 42.0412 147.968 40.2264C145.425 38.4115 143.513 35.8482 142.497 32.8941C145.215 34.6823 148.685 35.7559 152.494 35.7559C161.221 35.7559 168.303 30.05 168.303 23.0059C168.303 20.4823 167.391 18.1235 165.818 16.1382C167.64 17.5382 169.115 19.339 170.129 21.4012C171.143 23.4634 171.669 25.7314 171.665 28.0294Z" fill="#912010"/>
<path d="M164.447 21.8971C163.965 23.25 163.335 24.4118 162.635 25.5235C161.912 26.6118 161.135 27.6324 160.282 28.5735C158.594 30.4728 156.668 32.1455 154.55 33.55L154.05 33.8824C153.694 34.1162 153.26 34.2011 152.842 34.1186C152.424 34.0361 152.055 33.7928 151.815 33.4412C151.199 32.5657 150.643 31.6499 150.15 30.7C149.668 29.7206 149.206 28.7235 148.909 27.5559C150.056 27.9088 151.035 28.4265 151.98 28.9441C152.274 29.1118 152.574 29.2971 152.868 29.5C154.235 27.9824 155.753 26.6147 157.397 25.3941C158.435 24.6409 159.524 23.9608 160.656 23.3588C161.857 22.7232 163.13 22.2326 164.447 21.8971Z" fill="white"/>
</svg>
