<svg width="512" height="512" viewBox="0 0 512 512" fill="none" xmlns="http://www.w3.org/2000/svg">
<path d="M243.346 492.489V330.305H214.853L179.606 303.164L164.099 309.139L156.41 307.379L101.477 328.676C85.5359 335.237 64.1899 355.879 64.1899 386.511V492.714C64.1899 499.576 69.7529 505.14 76.6159 505.14H255.994C249.038 505.138 243.346 499.446 243.346 492.489Z" fill="#DD636E"/>
<path d="M96.422 493.712V372.79C96.422 347.257 111.253 328.672 125.423 319.391L101.476 328.675C85.535 335.236 64.189 355.878 64.189 386.51V492.713C64.189 499.575 69.752 505.139 76.615 505.139H103.962C99.529 503.24 96.422 498.84 96.422 493.712Z" fill="#DA4A54"/>
<path d="M282.875 291.364C281.58 290.863 280.467 289.983 279.681 288.839C278.895 287.695 278.473 286.34 278.469 284.952L278.448 258.293C267.767 265.282 255.019 269.362 241.329 269.362C226.233 269.362 212.984 265.177 202.181 258.19V284.911C202.181 290.187 197.475 291.458 195.468 292.236L193.986 292.811L192.323 298.264L177.275 304.062L177.508 305.55L214.852 334.306H243.345V309.83C243.345 302.873 249.037 300.182 255.993 300.182L305.348 300.14L282.875 291.364Z" fill="#FFCEBE"/>
<path d="M240.932 269.355C226.002 269.282 212.889 265.115 202.181 258.189V284.91C202.181 290.186 197.475 291.457 195.468 292.235L193.986 292.81L192.323 298.263L177.275 304.061L177.508 305.549L214.852 334.305H240.932V269.355Z" fill="#FFB1A0"/>
<path d="M334.493 162.592H330.849L307.349 170.138V205.138L309.278 207.145C326.742 209.192 341.274 196.442 341.274 180.843C341.274 174.095 338.754 167.583 334.493 162.592Z" fill="#FFCEBE"/>
<path d="M325.749 164.229L307.349 170.138V205.138L309.278 207.145C315.27 207.847 320.916 206.807 325.749 204.508V164.229Z" fill="#FFB1A0"/>
<path d="M146.198 162.592H149.842L173.342 170.138V205.138L171.413 207.145C153.949 209.192 139.417 196.442 139.417 180.843C139.417 174.095 141.938 167.583 146.198 162.592Z" fill="#FFCEBE"/>
<path d="M157.817 180.843C157.817 175.72 159.273 170.734 161.838 166.444L149.842 162.592H146.198C141.938 167.583 139.417 174.096 139.417 180.843C139.417 196.443 153.95 209.192 171.413 207.145L173.342 205.138V204.508C164.089 200.107 157.817 191.09 157.817 180.843Z" fill="#FFB1A0"/>
<path d="M298.049 162.499C269.443 146.446 240.345 145.829 240.345 145.829C240.345 145.829 211.248 146.446 182.641 162.499C178.631 164.749 174.864 166.245 171.368 167.103V205.369C171.368 240.905 199.212 273.361 241.329 273.361C278.821 273.361 309.322 242.859 309.322 205.369V167.103C305.826 166.245 302.06 164.75 298.049 162.499Z" fill="#FFDECF"/>
<path d="M207.449 205.37V151.91C199.649 154.342 191.127 157.738 182.641 162.499C178.631 164.749 174.865 166.245 171.368 167.103V205.369C171.368 240.905 199.212 273.361 241.329 273.361C247.348 273.361 253.183 272.566 258.745 271.09C227.264 263.132 207.449 235.347 207.449 205.37Z" fill="#FFCEBE"/>
<path d="M197.358 354.229C198.479 355.511 200.056 356.305 201.753 356.443C203.45 356.58 205.134 356.05 206.447 354.965L225.867 338.904C226.543 338.344 227.1 337.654 227.504 336.875C227.908 336.096 228.151 335.243 228.219 334.368C228.286 333.492 228.177 332.613 227.897 331.781C227.617 330.949 227.172 330.181 226.589 329.525L193.986 292.81L156.409 307.378L197.358 354.229Z" fill="#FFE07D"/>
<path d="M435.655 297.181H378.244L372.682 303.055H316.182L310.404 297.181H285.778C281.796 299.433 279.106 303.54 279.106 308.223V494.096C279.106 498.779 281.796 502.886 285.779 505.138H435.655C442.611 505.138 448.303 499.446 448.303 492.489V309.829C448.303 302.872 442.611 297.181 435.655 297.181Z" fill="#FBC481"/>
<path d="M282.846 492.489V309.829C282.846 302.872 288.538 297.181 295.494 297.181H252.994C246.038 297.181 240.346 302.872 240.346 309.829V492.489C240.346 499.446 246.038 505.138 252.994 505.138H295.494C288.538 505.138 282.846 499.446 282.846 492.489Z" fill="#DD9973"/>
<path d="M310.405 297.18V376.01C310.405 380.726 315.641 383.558 319.588 380.975L341.076 366.913C342.042 366.281 343.171 365.944 344.325 365.944C345.479 365.944 346.608 366.281 347.574 366.913L369.062 380.975C373.008 383.557 378.245 380.726 378.245 376.01V297.18H310.405Z" fill="#D6865F"/>
<path d="M344.325 297.18H310.405V376.01C310.405 380.726 315.641 383.558 319.588 380.975L341.076 366.913C342.042 366.281 343.171 365.944 344.325 365.944V297.18Z" fill="#B97359"/>
<path d="M335.219 138.29C335.219 138.29 303.997 93.908 240.305 93.908C176.613 93.908 145.391 138.29 145.391 138.29C136.751 160.096 153.166 184.033 182.625 167.501C211.219 151.455 240.305 150.838 240.305 150.838C240.305 150.838 269.39 151.455 297.985 167.501C327.444 184.033 343.859 160.096 335.219 138.29Z" fill="#FFE07D"/>
<path d="M190.552 116.125C190.552 116.125 196.161 108.158 207.45 98.126C165.86 109.204 145.392 138.29 145.392 138.29C136.752 160.096 153.167 184.033 182.626 167.501C189.321 163.744 196.039 160.841 202.408 158.586C188.834 151.558 183.732 133.337 190.552 116.125Z" fill="#FFD064"/>
<path d="M216.155 32.94C175.891 40.374 145.391 75.661 145.391 118.076V138.29C145.391 138.29 160.711 124.388 191.735 116.042C193.064 80.412 202.554 49.785 216.155 32.94ZM264.454 32.94C278.056 49.785 287.545 80.412 288.874 116.042C319.898 124.388 335.218 138.29 335.218 138.29V118.076C335.219 75.661 304.718 40.374 264.454 32.94Z" fill="#DD636E"/>
<path d="M231.973 34.493H248.636C251.844 34.493 255.01 34.673 258.127 35.013V23.205C258.127 14.956 251.378 8.20697 243.129 8.20697H237.48C229.231 8.20697 222.482 14.956 222.482 23.205V35.012C225.634 34.6676 228.802 34.4944 231.973 34.493Z" fill="#FFE07D"/>
<path d="M240.305 23.205C240.305 17.122 243.981 11.865 249.217 9.51797C247.303 8.65572 245.229 8.2089 243.13 8.20697H237.481C229.232 8.20697 222.483 14.956 222.483 23.205V35.013C225.635 34.6678 228.803 34.4942 231.974 34.493H240.305V23.205Z" fill="#FFD064"/>
<path d="M231.973 31.494C226.463 31.494 221.076 32.015 215.852 32.998C201.246 49.583 191.221 80.561 190.537 116.36C204.054 112.614 220.624 109.901 240.304 109.901C259.984 109.901 276.555 112.615 290.072 116.36C289.388 80.561 279.363 49.582 264.757 32.998C259.442 31.9964 254.045 31.4925 248.636 31.493L231.973 31.494Z" fill="#DA4A54"/>
<path d="M240.196 31.494H231.973C226.463 31.494 221.076 32.015 215.852 32.998C201.246 49.583 191.221 80.562 190.537 116.361C198.272 114.217 207.013 112.415 216.758 111.263C218.563 78.334 227.405 49.676 240.196 31.494Z" fill="#DF4854"/>
<path d="M227.724 85.162H252.474C256.617 85.162 259.974 81.804 259.974 77.662C259.974 73.52 256.617 70.162 252.474 70.162H227.724C225.735 70.162 223.827 70.9522 222.421 72.3587C221.014 73.7652 220.224 75.6729 220.224 77.662C220.224 79.6511 221.014 81.5588 222.421 82.9653C223.827 84.3718 225.735 85.162 227.724 85.162ZM319.886 465.771H271.434C267.291 465.771 263.934 469.129 263.934 473.271C263.934 477.413 267.291 480.771 271.434 480.771H319.886C324.029 480.771 327.386 477.413 327.386 473.271C327.386 469.129 324.029 465.771 319.886 465.771ZM319.886 440.884H271.434C267.291 440.884 263.934 444.242 263.934 448.384C263.934 452.526 267.291 455.884 271.434 455.884H319.886C324.029 455.884 327.386 452.526 327.386 448.384C327.386 444.242 324.029 440.884 319.886 440.884ZM319.886 415.997H271.434C267.291 415.997 263.934 419.355 263.934 423.497C263.934 427.639 267.291 430.997 271.434 430.997H319.886C324.029 430.997 327.386 427.639 327.386 423.497C327.386 419.355 324.029 415.997 319.886 415.997Z" fill="black"/>
<path d="M76.369 512H328.505C332.648 512 336.005 508.642 336.005 504.5C336.005 500.358 332.648 497 328.505 497H252.748C249.957 497 247.6 494.642 247.6 491.851V309.19C247.6 306.4 249.957 304.043 252.748 304.043H302.659V375.372C302.659 386.096 314.588 392.414 323.448 386.613L344.078 373.113L364.708 386.613C373.629 392.453 385.498 386.036 385.498 375.373V356.43C385.498 352.288 382.141 348.93 377.998 348.93C373.855 348.93 370.498 352.288 370.498 356.43V372.475L351.434 360C349.247 358.569 346.691 357.807 344.078 357.807C341.465 357.807 338.909 358.569 336.722 360L317.659 372.475V304.043H370.498V321.429C370.498 325.571 373.855 328.929 377.998 328.929C382.141 328.929 385.498 325.571 385.498 321.429V304.043H435.409C438.2 304.043 440.557 306.4 440.557 309.19V491.851C440.557 494.642 438.2 497 435.409 497H363.505C359.362 497 356.005 500.358 356.005 504.5C356.005 508.642 359.362 512 363.505 512H435.409C446.519 512 455.557 502.961 455.557 491.851V309.19C455.557 298.081 446.519 289.043 435.409 289.043H299.05L285.722 283.881L285.705 265.575C302.035 253.567 313.362 235.155 315.977 214.073C342.459 211.765 357.428 183.722 342.873 161.027C345.55 153.568 345.533 144.798 342.552 136.35V117.414C342.552 71.662 309.652 33.003 265.428 24.836V22.503C265.429 10.095 255.334 0 242.925 0H237.274C224.865 0 214.769 10.095 214.769 22.504V24.837C170.663 33.005 137.645 71.529 137.645 117.415V136.351C134.603 144.973 134.661 153.924 137.506 161.481C127.763 176.068 130.674 194.064 143.029 205.055C148.881 210.261 156.33 213.385 164.214 214.072C166.79 235.047 177.909 253.466 194.435 265.489L194.433 283.851C194.302 283.913 98.656 320.991 98.521 321.043L98.377 321.1C78.181 329.412 56.443 353.226 56.443 385.871V492.074C56.443 503.062 65.381 512 76.369 512ZM252.748 289.042C241.638 289.042 232.6 298.08 232.6 309.19V324.713C231.925 323.832 234.054 326.272 205.502 294.119C208.11 291.532 209.436 288.244 209.436 284.272V273.964C218.803 277.93 229.842 280.224 241.084 280.224C251.27 280.233 261.351 278.17 270.714 274.159L270.723 284.335C270.728 285.975 271.002 287.561 271.515 289.043H252.748V289.042ZM316.577 198.888V179.883C324.016 179.755 329.416 177.068 332.745 174.699C336.165 186.72 327.828 196.952 316.577 198.888ZM327.553 117.416V123.283C317.915 117.775 309.307 113.791 297.2 110.005C296.091 85.646 290.797 63.208 282.308 45.932C309.032 58.646 327.553 85.905 327.553 117.416ZM237.274 15H242.925C246.654 15 250.429 17.682 250.429 23.318C248.847 23.284 231.333 23.285 229.769 23.318C229.769 17.83 233.406 15 237.274 15ZM219.613 39.231C221.99 38.829 227.109 38.296 231.764 38.296H248.434C253.05 38.296 258.219 38.836 260.585 39.231C272.13 53.708 279.991 78.446 281.946 106.011C255.409 100.323 224.96 100.286 198.252 106.011C200.208 78.447 208.07 53.708 219.613 39.231ZM152.645 117.416C152.645 85.906 171.166 58.647 197.89 45.932C189.402 63.209 184.108 85.647 182.998 110.005C171.438 113.62 161.691 118.02 152.645 123.283V117.416ZM163.623 198.888C151.798 196.857 143.974 185.882 147.534 174.821C152.257 178.191 157.866 179.779 163.623 179.878V198.888ZM152.865 158.905C150.135 154.511 149.576 148.233 151.507 142.122C174.388 124.356 210.569 116.738 240.1 116.738C269.498 116.738 305.412 124.042 328.693 142.123C330.585 148.112 330.081 154.259 327.491 158.638C322.102 167.743 310.669 165.484 301.475 160.322H301.474C278.76 147.576 250.191 141.82 236.384 142.893C217.584 144.355 196.391 150.409 178.725 160.322C169.649 165.414 158.368 167.725 152.865 158.905ZM178.623 204.732V176.95C181.102 175.982 183.734 174.711 186.065 173.402C202.709 164.064 224.472 158.304 240.106 157.695C242.43 157.78 268.556 159.05 294.133 173.402C296.53 174.753 299.016 175.937 301.576 176.945V204.732C301.576 238.227 274.256 265.186 241.15 265.222L241.083 265.223L241.021 265.222C202.762 265.186 178.623 235.222 178.623 204.732ZM191.593 301.049L220.073 333.122L202.141 347.951L168.853 309.865L191.593 301.049ZM71.443 385.872C71.443 358.431 90.897 340.434 104.017 335.001L153.974 315.633L191.464 358.527C196.509 364.3 205.082 364.984 210.98 360.107L230.402 344.045C231.232 343.358 231.96 342.585 232.599 341.753V491.851C232.599 493.343 232.807 495.265 233.266 497H133.294V395.734C133.294 391.592 129.937 388.234 125.794 388.234C121.651 388.234 118.294 391.592 118.294 395.734V497H76.369C75.0629 496.999 73.8108 496.479 72.8872 495.556C71.9637 494.632 71.4443 493.38 71.443 492.074V385.872Z" fill="black"/>
</svg>
