<svg width="512" height="512" viewBox="0 0 512 512" fill="none" xmlns="http://www.w3.org/2000/svg">
<path d="M65.795 84.2722C65.795 84.2722 19.3145 86.5039 19.3145 140.631V422.017L65.795 390.254V84.2722Z" fill="#4E73A8"/>
<path d="M51.078 390.254C46.8092 390.254 42.5842 391.114 38.6554 392.784C34.7266 394.453 31.1746 396.897 28.2115 399.97C25.2485 403.043 22.9352 406.682 21.4099 410.669C19.8847 414.656 19.1786 418.91 19.334 423.176C19.9469 440.388 34.6157 453.781 51.8385 453.781H289.952C290.437 453.782 290.91 453.627 291.3 453.337C291.689 453.047 291.975 452.639 292.113 452.173C292.251 451.708 292.235 451.21 292.067 450.754C291.899 450.299 291.588 449.91 291.18 449.646C284.57 445.362 276.724 437.1 276.724 422.018C276.724 395.94 300.16 390.254 300.16 390.254H51.078Z" fill="#EAF5FF"/>
<path d="M65.795 84.2722H300.166V390.254H65.795V84.2722Z" fill="#88B0EA"/>
<path d="M467.76 15.0588H276.664C270.053 15.0592 263.714 17.6854 259.039 22.3597C254.365 27.0341 251.739 33.3737 251.738 39.9842V219.904C251.739 226.514 254.365 232.854 259.039 237.528C263.714 242.203 270.053 244.829 276.664 244.829H372.209V313.395L440.687 244.829H467.754C474.365 244.829 480.705 242.203 485.379 237.529C490.053 232.854 492.68 226.515 492.68 219.904V39.9842C492.68 33.3746 490.054 27.0357 485.381 22.3614C480.708 17.6872 474.37 15.0604 467.76 15.0588Z" fill="#FFD071"/>
<path d="M437.867 91.1525H360.09C358.492 91.1525 356.96 90.5179 355.83 89.3883C354.701 88.2587 354.066 86.7265 354.066 85.129C354.066 83.5315 354.701 81.9994 355.83 80.8697C356.96 79.7401 358.492 79.1055 360.09 79.1055H437.867C439.464 79.1055 440.997 79.7401 442.126 80.8697C443.256 81.9994 443.89 83.5315 443.89 85.129C443.89 86.7265 443.256 88.2587 442.126 89.3883C440.997 90.5179 439.464 91.1525 437.867 91.1525ZM437.867 135.556H360.09C358.492 135.556 356.96 134.922 355.83 133.792C354.701 132.663 354.066 131.13 354.066 129.533C354.066 127.935 354.701 126.403 355.83 125.274C356.96 124.144 358.492 123.509 360.09 123.509H437.867C439.464 123.509 440.997 124.144 442.126 125.274C443.256 126.403 443.89 127.935 443.89 129.533C443.89 131.13 443.256 132.663 442.126 133.792C440.997 134.922 439.464 135.556 437.867 135.556ZM437.867 179.962H360.09C358.492 179.962 356.96 179.327 355.83 178.198C354.701 177.068 354.066 175.536 354.066 173.938C354.066 172.341 354.701 170.809 355.83 169.679C356.96 168.55 358.492 167.915 360.09 167.915H437.867C439.464 167.915 440.997 168.55 442.126 169.679C443.256 170.809 443.89 172.341 443.89 173.938C443.89 175.536 443.256 177.068 442.126 178.198C440.997 179.327 439.464 179.962 437.867 179.962Z" fill="white"/>
<path d="M277.197 428.041C276.576 424.049 276.576 419.986 277.197 415.994H55.695C54.0975 415.994 52.5654 416.629 51.4358 417.758C50.3061 418.888 49.6715 420.42 49.6715 422.018C49.6715 423.615 50.3061 425.147 51.4358 426.277C52.5654 427.406 54.0975 428.041 55.695 428.041H277.197Z" fill="#C9D4FF"/>
<path d="M309.338 91.1525C312.665 91.1525 315.362 88.4557 315.362 85.129C315.362 81.8023 312.665 79.1055 309.338 79.1055C306.012 79.1055 303.315 81.8023 303.315 85.129C303.315 88.4557 306.012 91.1525 309.338 91.1525Z" fill="white"/>
<path d="M309.338 135.557C312.665 135.557 315.362 132.86 315.362 129.533C315.362 126.206 312.665 123.509 309.338 123.509C306.012 123.509 303.315 126.206 303.315 129.533C303.315 132.86 306.012 135.557 309.338 135.557Z" fill="white"/>
<path d="M309.338 179.962C312.665 179.962 315.362 177.265 315.362 173.938C315.362 170.612 312.665 167.915 309.338 167.915C306.012 167.915 303.315 170.612 303.315 173.938C303.315 177.265 306.012 179.962 309.338 179.962Z" fill="white"/>
<path d="M71.9886 415.994H117.737V453.781H71.9886V415.994Z" fill="#C9D4FF"/>
<path d="M87.3894 422.018V496.941L119.846 473.416L152.302 496.941V422.018H87.3894Z" fill="#F47676"/>
<path d="M19.3144 428.041C17.7169 428.041 16.1848 427.406 15.0551 426.277C13.9255 425.147 13.2909 423.615 13.2909 422.017V140.633C13.2909 81.4517 64.9848 78.2803 65.5059 78.2547C67.1014 78.1748 68.6633 78.732 69.848 79.8038C71.0327 80.8755 71.7432 82.374 71.823 83.9695C71.9029 85.565 71.3457 87.127 70.274 88.3117C69.2022 89.4964 67.7038 90.2068 66.1082 90.2867C64.3629 90.3861 25.344 93.1569 25.344 140.633V422.017C25.344 422.809 25.188 423.593 24.8849 424.324C24.5818 425.055 24.1376 425.719 23.5776 426.279C23.0176 426.838 22.3529 427.282 21.6214 427.584C20.8899 427.887 20.106 428.042 19.3144 428.041Z" fill="#383A49"/>
<path d="M300.168 459.805H178.506C176.908 459.805 175.376 459.17 174.246 458.04C173.117 456.911 172.482 455.379 172.482 453.781C172.482 452.184 173.117 450.651 174.246 449.522C175.376 448.392 176.908 447.758 178.506 447.758H279.88C273.947 440.491 270.706 431.398 270.706 422.018C270.706 412.637 273.947 403.544 279.88 396.277H51.078C44.2513 396.277 37.7042 398.989 32.877 403.817C28.0498 408.644 25.338 415.191 25.338 422.018C25.338 428.844 28.0498 435.391 32.877 440.218C37.7042 445.046 44.2513 447.758 51.078 447.758H86.1545C87.7521 447.758 89.2842 448.392 90.4138 449.522C91.5434 450.651 92.1781 452.184 92.1781 453.781C92.1781 455.379 91.5434 456.911 90.4138 458.04C89.2842 459.17 87.7521 459.805 86.1545 459.805H51.078C41.0562 459.805 31.4449 455.823 24.3585 448.737C17.272 441.651 13.2909 432.039 13.2909 422.018C13.2909 411.996 17.272 402.384 24.3585 395.298C31.4449 388.212 41.0562 384.23 51.078 384.23H300.168C301.641 384.231 303.063 384.771 304.165 385.749C305.267 386.728 305.972 388.076 306.147 389.539C306.322 391.002 305.954 392.478 305.114 393.689C304.274 394.899 303.019 395.76 301.588 396.107C296.011 397.712 291.13 401.132 287.718 405.826C284.306 410.519 282.559 416.218 282.753 422.018C282.753 443.116 300.824 447.741 301.588 447.928C303.019 448.275 304.274 449.136 305.114 450.346C305.954 451.557 306.322 453.033 306.147 454.496C305.972 455.959 305.267 457.307 304.165 458.286C303.063 459.264 301.641 459.804 300.168 459.805ZM65.795 367.363C64.1975 367.363 62.6653 366.728 61.5357 365.599C60.4061 364.469 59.7715 362.937 59.7715 361.339V84.2722C59.7715 82.6746 60.4061 81.1425 61.5357 80.0129C62.6653 78.8833 64.1975 78.2487 65.795 78.2487H224.364C225.962 78.2487 227.494 78.8833 228.624 80.0129C229.753 81.1425 230.388 82.6746 230.388 84.2722C230.388 85.8697 229.753 87.4018 228.624 88.5315C227.494 89.6611 225.962 90.2957 224.364 90.2957H71.8185V361.339C71.8185 362.937 71.1839 364.469 70.0543 365.599C68.9246 366.728 67.3925 367.363 65.795 367.363Z" fill="#383A49"/>
<path d="M300.168 396.277C298.57 396.277 297.038 395.643 295.908 394.513C294.779 393.384 294.144 391.852 294.144 390.254V274.437C294.144 272.839 294.779 271.307 295.908 270.177C297.038 269.048 298.57 268.413 300.168 268.413C301.765 268.413 303.297 269.048 304.427 270.177C305.556 271.307 306.191 272.839 306.191 274.437V390.254C306.191 391.852 305.556 393.384 304.427 394.513C303.297 395.643 301.765 396.277 300.168 396.277ZM152.303 502.965C150.997 502.967 149.725 502.544 148.68 501.76L119.846 480.06L91.011 501.76C90.1161 502.433 89.0512 502.844 87.9359 502.946C86.8206 503.047 85.6991 502.836 84.6973 502.335C83.6954 501.835 82.8529 501.065 82.2645 500.112C81.676 499.159 81.3648 498.061 81.3658 496.941V422.018C81.3658 420.42 82.0005 418.888 83.1301 417.758C84.2597 416.629 85.7918 415.994 87.3894 415.994H152.302C153.899 415.994 155.432 416.629 156.561 417.758C157.691 418.888 158.325 420.42 158.325 422.018V496.941C158.325 498.539 157.691 500.071 156.561 501.2C155.432 502.33 153.901 502.965 152.303 502.965ZM119.846 466.5C121.152 466.498 122.423 466.921 123.467 467.704L146.278 484.872V428.041H93.4129V484.872L116.224 467.704C117.269 466.921 118.54 466.498 119.846 466.5Z" fill="#383A49"/>
<path d="M372.213 319.419C370.616 319.419 369.084 318.784 367.954 317.654C366.825 316.525 366.19 314.993 366.19 313.395V250.853H276.67C268.465 250.843 260.598 247.58 254.796 241.778C248.994 235.976 245.73 228.109 245.721 219.904V39.9842C245.73 31.779 248.994 23.9125 254.796 18.1106C260.598 12.3086 268.465 9.04484 276.67 9.03528H467.766C475.971 9.04484 483.838 12.3086 489.639 18.1107C495.441 23.9127 498.704 31.7791 498.714 39.9842V219.904C498.704 228.109 495.441 235.976 489.639 241.778C483.838 247.58 475.971 250.843 467.766 250.853H443.19L376.471 317.652C375.342 318.782 373.811 319.418 372.213 319.419ZM276.67 21.0823C271.658 21.0879 266.854 23.0811 263.31 26.6247C259.767 30.1683 257.773 34.9728 257.768 39.9842V219.904C257.773 224.915 259.767 229.72 263.31 233.263C266.854 236.807 271.658 238.8 276.67 238.806H372.215C373.812 238.806 375.345 239.44 376.474 240.57C377.604 241.7 378.238 243.232 378.238 244.829V298.841L436.432 240.572C436.991 240.012 437.656 239.568 438.387 239.265C439.118 238.962 439.902 238.806 440.693 238.806H467.762C472.773 238.8 477.577 236.806 481.12 233.263C484.663 229.719 486.656 224.915 486.662 219.904V39.9842C486.656 34.9731 484.663 30.1688 481.12 26.6253C477.577 23.0817 472.773 21.0883 467.762 21.0823H276.67Z" fill="#383A49"/>
</svg>
