<svg width="512" height="512" viewBox="0 0 512 512" fill="none" xmlns="http://www.w3.org/2000/svg">
<g clip-path="url(#clip0_31_36)">
<path d="M295.515 109.244L269.225 90.711C268.266 90.0348 267.183 89.5541 266.037 89.2966C264.892 89.0391 263.708 89.0097 262.551 89.2101C261.395 89.4105 260.289 89.8367 259.297 90.4646C258.305 91.0924 257.447 91.9094 256.771 92.869L92.9711 325.236C92.1123 326.456 91.5725 327.871 91.4007 329.353C91.2289 330.835 91.4306 332.337 91.9874 333.721C92.5443 335.105 93.4385 336.327 94.5888 337.278C95.7391 338.228 97.1087 338.875 98.5731 339.16L105.349 340.475C107.421 340.877 109.384 341.717 111.105 342.939C112.827 344.15 114.271 345.715 115.339 347.53L118.855 353.486C119.645 354.825 120.771 355.934 122.121 356.705C123.471 357.476 124.999 357.881 126.553 357.88C127.985 357.88 129.395 357.536 130.666 356.876C131.937 356.217 133.031 355.262 133.856 354.092L297.673 121.701C299.038 119.763 299.577 117.362 299.173 115.026C298.768 112.69 297.452 110.61 295.515 109.244Z" fill="#F99841"/>
<path d="M360.882 155.323L334.592 136.79C332.654 135.425 330.254 134.885 327.918 135.289C325.583 135.694 323.503 137.009 322.137 138.946L158.335 371.313C157.476 372.533 156.935 373.948 156.763 375.43C156.591 376.912 156.793 378.414 157.349 379.798C157.906 381.182 158.801 382.405 159.951 383.355C161.102 384.305 162.472 384.952 163.936 385.237L170.712 386.551C172.784 386.954 174.745 387.794 176.467 389.014C178.191 390.227 179.635 391.794 180.703 393.611L184.221 399.567C185.011 400.905 186.137 402.014 187.487 402.784C188.837 403.554 190.364 403.959 191.918 403.959C193.35 403.959 194.761 403.616 196.032 402.957C197.303 402.298 198.397 401.343 199.222 400.173L363.04 167.778C364.405 165.84 364.945 163.439 364.54 161.104C364.135 158.768 362.819 156.689 360.882 155.323Z" fill="#FFD05C"/>
<path d="M331.857 138.065C331.657 136.908 331.232 135.803 330.604 134.811C329.977 133.819 329.16 132.96 328.201 132.284L301.908 113.751C300.949 113.075 299.865 112.594 298.72 112.336C297.575 112.078 296.39 112.049 295.234 112.249C294.077 112.449 292.971 112.875 291.98 113.503C290.988 114.131 290.129 114.948 289.453 115.907L125.652 348.274C124.792 349.494 124.251 350.909 124.079 352.391C123.907 353.873 124.108 355.375 124.665 356.76C125.222 358.144 126.116 359.367 127.267 360.317C128.418 361.267 129.788 361.913 131.253 362.198L138.031 363.513C140.103 363.915 142.065 364.755 143.786 365.978C145.509 367.188 146.953 368.753 148.019 370.569L151.537 376.523C152.327 377.862 153.453 378.971 154.802 379.741C156.152 380.512 157.68 380.917 159.234 380.916C160.666 380.916 162.077 380.572 163.348 379.913C164.62 379.254 165.714 378.299 166.539 377.129L330.357 144.739C331.721 142.801 332.26 140.401 331.857 138.065Z" fill="#FBB85F"/>
<path d="M364.669 165.715L398.846 116.981C400.211 115.043 400.751 112.643 400.346 110.307C399.942 107.972 398.626 105.893 396.689 104.527L305.034 39.915C304.075 39.2387 302.992 38.758 301.847 38.5003C300.702 38.2426 299.517 38.213 298.361 38.4131C297.204 38.6132 296.098 39.0392 295.107 39.6666C294.115 40.2941 293.256 41.1107 292.58 42.07L258.307 91.204L364.669 165.715Z" fill="#D1D6E4"/>
<path d="M391.553 30.031C389.788 28.802 387.996 27.555 386.183 26.276L382.263 23.512C380.717 22.421 379.174 21.3257 377.634 20.226L376.892 19.697C362.697 9.567 349.287 0 336.474 0C326.893 0 318.671 5.056 311.34 15.455L291.628 43.42L397.598 118.751L417.61 90.365C423.834 81.537 426.192 73.452 424.818 65.648C422.323 51.458 408.079 41.539 391.553 30.031Z" fill="#EF5440"/>
<path opacity="0.15" d="M274.734 102.714C275.111 102.228 275.535 101.781 276.002 101.381L276.001 101.38L309.33 53.599L309.323 53.595L310.264 52.26L310.274 52.246L310.275 52.245L329.036 25.63C336.366 15.231 344.588 10.175 354.17 10.175C358.63 10.175 363.163 11.352 367.774 13.291C365.304 11.595 362.789 9.96577 360.231 8.405C359.957 8.239 359.683 8.072 359.409 7.91C358.638 7.4496 357.86 7.00154 357.075 6.566C356.668 6.338 356.26 6.108 355.853 5.889C355.321 5.60281 354.785 5.32345 354.245 5.051C353.805 4.826 353.363 4.612 352.924 4.399C352.461 4.17367 351.996 3.95366 351.528 3.739C351.207 3.594 350.888 3.457 350.569 3.319C350.123 3.12537 349.674 2.93835 349.223 2.758C348.919 2.637 348.615 2.515 348.311 2.4C347.788 2.20345 347.261 2.01675 346.73 1.84C346.515 1.768 346.298 1.686 346.082 1.619C345.363 1.38973 344.638 1.18164 343.907 0.995C343.694 0.94 343.481 0.897 343.268 0.847C342.737 0.72006 342.203 0.606358 341.667 0.506C341.413 0.458 341.157 0.417 340.903 0.376C340.389 0.29421 339.873 0.225521 339.356 0.17C339.126 0.146 338.896 0.117 338.667 0.098C337.938 0.0360168 337.206 0.00332388 336.474 0C326.893 0 318.671 5.056 311.34 15.455L292.579 42.07L292.578 42.071L292.568 42.085L291.627 43.42L291.634 43.424L258.305 91.205L274.734 102.714Z" fill="#30302F"/>
<path d="M431.556 465.78H170.815C168.608 465.756 166.5 464.862 164.949 463.294C163.397 461.725 162.527 459.607 162.527 457.401C162.527 455.194 163.397 453.076 164.949 451.507C166.5 449.939 168.608 449.045 170.815 449.021H431.556C432.664 449.009 433.764 449.217 434.791 449.632C435.818 450.048 436.753 450.663 437.541 451.443C438.329 452.222 438.954 453.15 439.381 454.172C439.808 455.195 440.028 456.292 440.028 457.401C440.028 458.509 439.808 459.606 439.381 460.629C438.954 461.651 438.329 462.579 437.541 463.358C436.753 464.138 435.818 464.753 434.791 465.169C433.764 465.584 432.664 465.792 431.556 465.78ZM144.004 465.78H82.625C81.5169 465.792 80.4174 465.584 79.3901 465.169C78.3628 464.753 77.4282 464.138 76.6403 463.358C75.8525 462.579 75.227 461.651 74.8001 460.629C74.3732 459.606 74.1534 458.509 74.1534 457.401C74.1534 456.292 74.3732 455.195 74.8001 454.172C75.227 453.15 75.8525 452.222 76.6403 451.443C77.4282 450.663 78.3628 450.048 79.3901 449.632C80.4174 449.217 81.5169 449.009 82.625 449.021H144.004C145.104 449.021 146.194 449.238 147.211 449.659C148.227 450.08 149.151 450.697 149.929 451.476C150.707 452.254 151.324 453.177 151.745 454.194C152.166 455.211 152.383 456.301 152.383 457.401C152.383 459.623 151.5 461.754 149.929 463.326C148.357 464.897 146.226 465.78 144.004 465.78ZM431.556 512H82.625C80.4029 512 78.2718 511.117 76.7005 509.546C75.1292 507.975 74.2465 505.844 74.2465 503.622C74.2465 501.399 75.1292 499.268 76.7005 497.697C78.2718 496.126 80.4029 495.243 82.625 495.243H431.555C432.663 495.231 433.762 495.439 434.79 495.854C435.817 496.27 436.751 496.885 437.539 497.664C438.327 498.443 438.952 499.371 439.379 500.393C439.806 501.416 440.026 502.513 440.026 503.621C440.026 504.729 439.806 505.826 439.38 506.849C438.953 507.871 438.328 508.799 437.54 509.578C436.752 510.358 435.818 510.973 434.79 511.389C433.763 511.804 432.664 512.012 431.556 512Z" fill="#D1D6E4"/>
<path d="M124.464 426.693L92.668 404.278C91.2896 403.306 89.6828 402.707 88.0041 402.54C86.3254 402.373 84.6321 402.643 83.089 403.325C79.949 404.71 78.958 399.086 78.529 402.491L72.141 452.168C71.9175 453.929 72.1778 455.718 72.8939 457.342C73.6099 458.966 74.7548 460.365 76.2056 461.388C77.6564 462.411 79.3584 463.019 81.1289 463.148C82.8993 463.277 84.6714 462.921 86.255 462.119L129.718 439.606C132.78 438.057 128.332 438.817 128.581 435.395C128.704 433.713 128.389 432.027 127.667 430.502C126.946 428.978 125.843 427.665 124.464 426.693Z" fill="#415B6B"/>
<path d="M189.913 369.133C184.523 365.333 177.826 363.804 171.229 364.931C170.073 365.131 168.932 365.41 167.815 365.768C167.566 358.182 163.897 350.795 157.231 346.096C153.013 343.115 147.973 341.518 142.808 341.528C141.382 341.528 139.95 341.651 138.549 341.893C137.392 342.093 136.25 342.373 135.132 342.73C134.886 335.147 131.216 327.757 124.55 323.059C120.333 320.075 115.291 318.478 110.125 318.488C108.701 318.488 107.271 318.611 105.868 318.853C99.305 319.989 93.5691 323.611 89.7061 329.066L88.6701 330.533C87.827 331.729 87.29 333.114 87.1061 334.566L77.8831 407.602C78.3581 407.864 78.8191 408.146 79.2681 408.461L126.027 441.423C126.271 441.325 126.513 441.229 126.751 441.11L191.668 408.269C192.972 407.609 194.094 406.641 194.936 405.447L195.988 403.956C203.887 392.682 201.163 377.064 189.913 369.133Z" fill="#E2B186"/>
<path opacity="0.15" d="M85.0351 462.211L91.2971 459.043L109.035 318.541C107.973 318.576 106.915 318.68 105.866 318.853C99.3031 319.989 93.5671 323.611 89.7041 329.066L88.6681 330.533C87.825 331.729 87.288 333.114 87.1041 334.566L77.8651 407.745C77.6946 409.099 77.8383 410.474 78.2851 411.764C77.537 412.894 77.0571 414.18 76.8821 415.524L72.1341 453.117C71.931 454.726 72.1696 456.361 72.8244 457.845C73.4792 459.329 74.5254 460.607 75.8511 461.542C77.1776 462.475 78.7328 463.03 80.3504 463.148C81.9681 463.266 83.5873 462.942 85.0351 462.211Z" fill="#30302F"/>
</g>
<defs>
<clipPath id="clip0_31_36">
<rect width="512" height="512" fill="white"/>
</clipPath>
</defs>
</svg>
